<svg xmlns="http://www.w3.org/2000/svg" xmlns:xlink="http://www.w3.org/1999/xlink" zoomAndPan="magnify" preserveAspectRatio="xMidYMid meet" version="1.0" viewBox="0 5.36 137 150"><defs><clipPath id="68525c201f"><path d="M 0 5.355469 L 137 5.355469 L 137 155.355469 L 0 155.355469 Z M 0 5.355469 " clip-rule="nonzero"/></clipPath></defs><g clip-path="url(#68525c201f)"><path fill="#22396a" d="M 8.890625 97.695312 L 18.726562 97.695312 C 22.964844 97.695312 26.585938 100.71875 27.417969 104.804688 L 35.992188 100.640625 C 23.289062 88.746094 23.542969 76.160156 24.175781 45.6875 C 24.265625 41.207031 24.367188 36.335938 24.429688 31.070312 C 24.449219 29.964844 25.269531 29.050781 26.332031 28.878906 C 42.199219 26.316406 56.75 18.476562 67.332031 6.449219 C 68.238281 5.417969 69.839844 5.433594 70.734375 6.457031 C 81.199219 18.429688 95.988281 26.367188 111.726562 28.878906 C 112.851562 29.0625 113.644531 30.039062 113.628906 31.144531 C 113.691406 36.382812 113.792969 41.226562 113.882812 45.6875 C 114.667969 83.820312 114.871094 94.011719 90.355469 109.386719 C 91.902344 111.554688 92.625 114.03125 92.066406 116.527344 L 120.449219 105.667969 C 136.1875 99.632812 143.804688 115.082031 127.96875 123.34375 L 83 146.8125 C 80.546875 148.09375 77.941406 148.421875 75.257812 147.792969 L 43.5 140.367188 L 27.558594 147.179688 C 27.167969 151.730469 23.328125 155.292969 18.722656 155.292969 L 8.886719 155.292969 C 3.996094 155.292969 0.00390625 151.300781 0.00390625 146.410156 L 0.0117188 146.410156 L 0.0117188 106.578125 L 0.00390625 106.578125 C 0.0078125 101.691406 4 97.695312 8.890625 97.695312 Z M 27.59375 109.722656 L 27.59375 142.269531 L 42.324219 135.984375 C 42.773438 135.761719 43.292969 135.691406 43.8125 135.820312 L 76.28125 143.40625 C 77.945312 143.800781 79.417969 143.617188 80.914062 142.828125 L 125.894531 119.355469 C 136.625 113.753906 132.519531 105.867188 122.054688 109.878906 L 85.328125 123.9375 C 84.84375 124.121094 84.285156 124.136719 83.753906 123.945312 L 56.925781 114.054688 C 55.753906 113.628906 55.160156 112.328125 55.582031 111.167969 C 56.007812 109.996094 57.308594 109.394531 58.480469 109.824219 L 84.328125 119.347656 C 87.71875 117.28125 89.089844 114.550781 86.027344 111.167969 C 84.515625 109.503906 82.242188 108.085938 79.808594 107.007812 L 58.222656 97.472656 C 56.25 96.59375 54.070312 96.804688 52.164062 97.792969 C 52.089844 97.828125 52.015625 97.855469 51.945312 97.890625 Z M 18.726562 102.210938 L 8.890625 102.210938 C 6.492188 102.210938 4.519531 104.171875 4.519531 106.578125 L 4.511719 106.578125 L 4.511719 146.410156 L 4.519531 146.410156 C 4.519531 148.808594 6.492188 150.78125 8.890625 150.78125 L 18.726562 150.78125 C 21.121094 150.78125 23.085938 148.808594 23.085938 146.410156 L 23.09375 146.410156 L 23.09375 106.578125 L 23.085938 106.578125 C 23.085938 104.175781 21.121094 102.210938 18.726562 102.210938 Z M 40.351562 98.515625 L 46.679688 95.449219 C 33.175781 85.21875 33.371094 76.03125 33.910156 49.707031 C 33.984375 46.25 34.054688 42.488281 34.109375 38.4375 C 34.117188 37.324219 34.941406 36.410156 36 36.246094 C 48.132812 34.289062 59.242188 28.304688 67.332031 19.109375 C 68.238281 18.074219 69.839844 18.09375 70.734375 19.117188 C 78.730469 28.265625 90.027344 34.316406 102.054688 36.246094 C 103.179688 36.421875 103.972656 37.40625 103.949219 38.511719 C 104.003906 42.535156 104.078125 46.273438 104.148438 49.707031 C 104.816406 81.980469 104.945312 88.527344 80.539062 102.402344 C 83.164062 103.5625 84.996094 104.449219 87.109375 106.085938 C 110.324219 91.726562 110.132812 82.265625 109.382812 45.777344 C 109.304688 41.847656 109.21875 37.617188 109.144531 33 C 93.816406 30.128906 79.6875 22.570312 69.019531 11.28125 C 58.363281 22.570312 44.230469 30.128906 28.90625 33 C 28.832031 37.613281 28.75 41.847656 28.664062 45.777344 C 28.054688 75.773438 27.8125 87.550781 40.351562 98.515625 Z M 51.328125 93.25 C 54.1875 92.15625 57.1875 92.070312 60.046875 93.34375 L 75.390625 100.125 C 100.402344 86.359375 100.292969 80.984375 99.648438 49.796875 C 99.585938 46.890625 99.519531 43.761719 99.476562 40.355469 C 87.878906 38.097656 77.179688 32.382812 69.03125 23.917969 C 60.867188 32.382812 50.171875 38.097656 38.574219 40.355469 C 38.53125 43.761719 38.464844 46.890625 38.402344 49.796875 C 37.875 75.511719 37.710938 83.691406 51.328125 93.25 Z M 64.324219 62.640625 C 64.324219 61.140625 65.761719 60.070312 67.195312 60.464844 L 74.207031 55.996094 C 75.246094 55.328125 76.636719 55.632812 77.304688 56.683594 C 77.972656 57.722656 77.667969 59.113281 76.617188 59.78125 L 70.417969 63.738281 L 78.023438 71.5 C 78.890625 72.386719 78.878906 73.8125 77.996094 74.679688 C 77.113281 75.546875 75.683594 75.535156 74.808594 74.652344 L 66.882812 66.574219 C 65.527344 66.746094 64.320312 65.695312 64.320312 64.335938 L 64.320312 62.640625 Z M 73.984375 45.972656 L 74.28125 46.375 C 75.011719 47.371094 74.800781 48.785156 73.796875 49.519531 C 72.789062 50.257812 71.382812 50.039062 70.652344 49.035156 L 67.308594 44.472656 C 66.410156 43.347656 66.660156 41.886719 67.867188 41.089844 L 72.5 37.78125 C 73.515625 37.058594 74.921875 37.296875 75.632812 38.304688 C 76.355469 39.320312 76.117188 40.726562 75.113281 41.445312 L 74.957031 41.546875 C 84.65625 44.1875 91.601562 53.035156 91.601562 63.339844 C 91.601562 75.804688 81.492188 85.917969 69.023438 85.917969 C 53.164062 85.917969 42.324219 69.984375 47.933594 55.296875 C 48.914062 52.710938 50.375 50.34375 52.203125 48.300781 C 53.027344 47.378906 54.453125 47.296875 55.378906 48.128906 C 56.300781 48.949219 56.382812 50.375 55.550781 51.300781 C 49.199219 58.40625 49.464844 69.316406 56.253906 76.105469 C 63.308594 83.164062 74.742188 83.164062 81.800781 76.105469 C 91.574219 66.332031 87.132812 49.707031 73.984375 45.972656 Z M 73.984375 45.972656 " fill-opacity="1" fill-rule="nonzero"/></g></svg>