<svg xmlns="http://www.w3.org/2000/svg" xmlns:xlink="http://www.w3.org/1999/xlink" zoomAndPan="magnify" preserveAspectRatio="xMidYMid meet" version="1.0" viewBox="0.05 0 149.87 88.5"><defs><clipPath id="5c8a2fe183"><path d="M 38 0 L 101 0 L 101 88.5 L 38 88.5 Z M 38 0 " clip-rule="nonzero"/></clipPath></defs><path fill="#22396a" d="M 34.980469 82.789062 C 35.160156 80.421875 35.421875 78.0625 35.757812 75.714844 L 12.25 75.714844 C 11.867188 75.714844 11.496094 75.648438 11.136719 75.503906 C 10.78125 75.359375 10.464844 75.152344 10.191406 74.882812 C 9.917969 74.613281 9.703125 74.300781 9.550781 73.949219 C 9.402344 73.59375 9.324219 73.222656 9.320312 72.839844 L 9.320312 18.53125 C 9.324219 18.148438 9.402344 17.777344 9.550781 17.421875 C 9.703125 17.070312 9.917969 16.757812 10.191406 16.488281 C 10.464844 16.21875 10.78125 16.011719 11.136719 15.867188 C 11.496094 15.722656 11.867188 15.652344 12.25 15.65625 L 43.808594 15.65625 C 46.296875 12.972656 49 10.53125 51.925781 8.335938 C 52.726562 7.730469 53.550781 7.144531 54.394531 6.566406 L 12.25 6.566406 C 5.515625 6.566406 0.0546875 11.925781 0.0546875 18.53125 L 0.0546875 72.835938 C 0.0546875 79.445312 5.515625 84.800781 12.25 84.800781 L 34.992188 84.800781 C 34.933594 84.128906 34.929688 83.460938 34.980469 82.789062 Z M 34.980469 82.789062 " fill-opacity="1" fill-rule="nonzero"/><path fill="#22396a" d="M 143.058594 27.921875 L 134.949219 27.921875 L 134.949219 18.53125 C 134.949219 11.925781 129.488281 6.566406 122.753906 6.566406 L 108.078125 6.566406 C 107.816406 8.289062 107.21875 9.882812 106.28125 11.347656 C 105.484375 12.707031 104.867188 14.144531 104.421875 15.65625 L 122.753906 15.65625 C 123.136719 15.652344 123.507812 15.722656 123.867188 15.867188 C 124.222656 16.011719 124.539062 16.21875 124.8125 16.488281 C 125.089844 16.757812 125.300781 17.070312 125.453125 17.421875 C 125.601562 17.777344 125.679688 18.148438 125.683594 18.53125 L 125.683594 72.835938 C 125.679688 73.222656 125.601562 73.59375 125.453125 73.945312 C 125.300781 74.300781 125.089844 74.613281 124.8125 74.882812 C 124.539062 75.152344 124.222656 75.359375 123.867188 75.5 C 123.507812 75.644531 123.136719 75.714844 122.753906 75.710938 L 81.519531 75.710938 C 76.660156 78.21875 71.570312 80.082031 66.242188 81.304688 C 65.378906 81.484375 64.507812 81.570312 63.628906 81.570312 C 62.628906 81.570312 61.640625 81.457031 60.667969 81.226562 C 60.535156 82.347656 60.421875 83.488281 60.332031 84.652344 C 60.328125 84.699219 60.324219 84.75 60.320312 84.800781 L 122.753906 84.800781 C 129.488281 84.800781 134.949219 79.441406 134.949219 72.835938 L 134.949219 63.449219 L 143.058594 63.449219 C 143.507812 63.453125 143.949219 63.414062 144.386719 63.332031 C 144.828125 63.246094 145.253906 63.121094 145.667969 62.957031 C 146.082031 62.789062 146.476562 62.582031 146.851562 62.335938 C 147.226562 62.09375 147.574219 61.8125 147.890625 61.5 C 148.210938 61.1875 148.496094 60.847656 148.746094 60.476562 C 149 60.109375 149.214844 59.71875 149.386719 59.304688 C 149.5625 58.894531 149.695312 58.472656 149.789062 58.035156 C 149.878906 57.597656 149.925781 57.152344 149.929688 56.707031 L 149.929688 34.664062 C 149.925781 34.214844 149.878906 33.773438 149.789062 33.335938 C 149.695312 32.898438 149.5625 32.472656 149.386719 32.0625 C 149.210938 31.652344 149 31.261719 148.746094 30.890625 C 148.496094 30.523438 148.210938 30.183594 147.890625 29.867188 C 147.570312 29.554688 147.226562 29.277344 146.851562 29.03125 C 146.476562 28.789062 146.082031 28.582031 145.667969 28.414062 C 145.253906 28.246094 144.828125 28.121094 144.386719 28.039062 C 143.949219 27.957031 143.503906 27.917969 143.058594 27.921875 Z M 143.058594 27.921875 " fill-opacity="1" fill-rule="nonzero"/><g clip-path="url(#5c8a2fe183)"><path fill="#22396a" d="M 52.503906 84.078125 C 52.726562 81.164062 53.078125 78.378906 53.539062 75.714844 C 54.007812 73 54.585938 70.417969 55.246094 67.964844 C 57.425781 59.796875 60.789062 52.148438 65.335938 45.023438 C 65.691406 44.46875 66.042969 43.9375 66.386719 43.425781 C 66.578125 43.148438 66.765625 42.875 66.953125 42.605469 C 69.347656 39.152344 72.023438 35.941406 74.984375 32.964844 C 76.027344 31.902344 77.125 30.902344 78.28125 29.964844 C 78.925781 29.476562 79.414062 28.859375 79.746094 28.121094 C 80.101562 27.324219 80.226562 26.488281 80.117188 25.621094 C 80.007812 24.75 79.679688 23.976562 79.136719 23.289062 C 79.042969 23.171875 78.945312 23.058594 78.839844 22.953125 C 78.824219 22.933594 78.808594 22.917969 78.792969 22.902344 C 78.695312 22.800781 78.589844 22.703125 78.484375 22.613281 C 78.464844 22.597656 78.445312 22.578125 78.421875 22.5625 C 78.316406 22.472656 78.203125 22.386719 78.089844 22.308594 C 78.078125 22.300781 78.0625 22.289062 78.046875 22.28125 C 77.9375 22.207031 77.820312 22.136719 77.703125 22.070312 C 77.691406 22.0625 77.675781 22.054688 77.664062 22.046875 C 77.542969 21.980469 77.417969 21.921875 77.292969 21.863281 L 77.21875 21.832031 C 77.097656 21.78125 76.96875 21.734375 76.84375 21.691406 C 76.820312 21.683594 76.796875 21.675781 76.773438 21.667969 C 76.640625 21.628906 76.503906 21.589844 76.367188 21.558594 L 76.359375 21.558594 C 76.222656 21.527344 76.085938 21.503906 75.949219 21.488281 C 75.925781 21.484375 75.902344 21.480469 75.878906 21.476562 C 75.746094 21.460938 75.613281 21.453125 75.476562 21.445312 C 75.453125 21.445312 75.425781 21.445312 75.398438 21.445312 C 75.292969 21.441406 75.183594 21.445312 75.078125 21.449219 C 75.03125 21.453125 74.988281 21.453125 74.941406 21.457031 C 74.796875 21.464844 74.652344 21.480469 74.507812 21.503906 C 74.503906 21.503906 74.5 21.503906 74.496094 21.503906 C 74.355469 21.527344 74.21875 21.558594 74.082031 21.59375 C 74.035156 21.605469 73.992188 21.617188 73.949219 21.632812 C 73.851562 21.660156 73.753906 21.6875 73.660156 21.722656 C 73.609375 21.738281 73.558594 21.757812 73.507812 21.777344 C 73.417969 21.8125 73.328125 21.851562 73.242188 21.890625 C 73.191406 21.914062 73.140625 21.9375 73.09375 21.960938 C 73 22.007812 72.910156 22.058594 72.820312 22.109375 C 72.78125 22.132812 72.738281 22.15625 72.695312 22.179688 C 72.566406 22.261719 72.441406 22.347656 72.316406 22.4375 L 72.285156 22.464844 C 70.75 23.691406 69.292969 25.007812 67.917969 26.410156 C 67.757812 26.570312 67.597656 26.734375 67.429688 26.902344 C 66.769531 27.578125 66.058594 28.332031 65.3125 29.160156 C 65.125 29.371094 64.9375 29.582031 64.746094 29.796875 C 64.363281 30.234375 63.972656 30.6875 63.574219 31.160156 C 61.984375 33.050781 60.277344 35.253906 58.554688 37.765625 C 55.378906 42.402344 52.664062 47.296875 50.414062 52.449219 C 50.035156 53.316406 49.667969 54.191406 49.3125 55.070312 C 49.203125 54.785156 49.09375 54.488281 48.992188 54.1875 C 48.941406 54.035156 48.890625 53.882812 48.84375 53.726562 C 48.734375 53.378906 48.632812 53.023438 48.539062 52.65625 C 47.417969 48.289062 47.460938 42.605469 50.925781 35.699219 C 52.761719 32.066406 55.128906 28.816406 58.023438 25.953125 L 58.03125 25.949219 C 58.503906 25.476562 58.992188 25.011719 59.492188 24.558594 L 59.621094 24.445312 C 60.078125 24.035156 60.546875 23.632812 61.027344 23.234375 C 64.308594 20.570312 67.859375 18.328125 71.675781 16.511719 C 72.277344 16.21875 72.890625 15.9375 73.515625 15.65625 C 74.761719 15.097656 76.050781 14.566406 77.378906 14.058594 C 78.070312 13.796875 78.757812 13.546875 79.433594 13.3125 C 82.09375 12.394531 84.796875 11.617188 87.535156 10.976562 C 87.328125 11.695312 87.140625 12.441406 86.976562 13.210938 C 86.953125 13.320312 86.929688 13.433594 86.90625 13.546875 C 86.871094 13.71875 86.835938 13.894531 86.804688 14.070312 C 86.523438 15.582031 86.371094 17.105469 86.351562 18.644531 C 86.34375 19.429688 86.375 20.214844 86.449219 20.996094 C 86.476562 21.273438 86.507812 21.546875 86.542969 21.824219 C 86.550781 21.871094 86.558594 21.914062 86.5625 21.960938 C 86.714844 23.046875 86.953125 24.117188 87.277344 25.164062 C 89.253906 31.507812 90.757812 37.304688 89.242188 43.097656 C 89.1875 43.304688 89.128906 43.511719 89.070312 43.71875 C 88.945312 44.128906 88.804688 44.542969 88.648438 44.957031 C 88.570312 45.164062 88.488281 45.371094 88.402344 45.578125 C 85.253906 53.09375 78.550781 57.863281 72.769531 60.722656 L 72.765625 60.722656 C 72.425781 60.894531 72.085938 61.058594 71.75 61.214844 C 70.128906 61.96875 68.472656 62.636719 66.785156 63.21875 L 66.507812 63.316406 C 66.203125 63.417969 65.914062 63.511719 65.640625 63.601562 L 65.414062 63.671875 C 63.734375 64.199219 62.675781 64.429688 62.632812 64.4375 C 62.601562 64.445312 62.570312 64.453125 62.539062 64.460938 C 62.433594 64.484375 62.328125 64.511719 62.222656 64.542969 C 62.171875 64.558594 62.121094 64.570312 62.074219 64.589844 C 61.945312 64.632812 61.820312 64.675781 61.695312 64.730469 C 60.730469 65.136719 59.980469 65.792969 59.441406 66.691406 C 59.363281 66.820312 59.289062 66.957031 59.222656 67.097656 C 58.863281 67.851562 58.71875 68.648438 58.789062 69.484375 C 58.855469 70.320312 59.128906 71.082031 59.609375 71.769531 C 59.804688 72.058594 60.027344 72.320312 60.28125 72.554688 C 60.332031 72.601562 60.382812 72.644531 60.4375 72.6875 C 60.488281 72.734375 60.535156 72.777344 60.589844 72.820312 C 60.613281 72.839844 60.644531 72.859375 60.671875 72.878906 C 60.75 72.9375 60.832031 73 60.914062 73.054688 C 60.9375 73.066406 60.960938 73.078125 60.980469 73.09375 C 61.074219 73.152344 61.164062 73.210938 61.261719 73.261719 C 61.3125 73.289062 61.363281 73.3125 61.414062 73.339844 C 61.484375 73.375 61.554688 73.410156 61.625 73.441406 C 61.980469 73.601562 62.351562 73.714844 62.734375 73.785156 C 62.753906 73.789062 62.777344 73.796875 62.796875 73.800781 C 63.070312 73.847656 63.347656 73.871094 63.628906 73.871094 C 63.863281 73.871094 64.09375 73.851562 64.324219 73.820312 C 64.378906 73.8125 64.433594 73.800781 64.492188 73.792969 C 64.535156 73.785156 64.582031 73.777344 64.628906 73.765625 C 65.632812 73.5625 89.3125 68.488281 97.390625 49.199219 C 100.605469 41.523438 99.796875 34.21875 97.996094 27.300781 C 97.96875 27.191406 97.941406 27.082031 97.910156 26.972656 C 97.785156 26.492188 97.652344 26.011719 97.519531 25.535156 C 97.214844 24.472656 96.898438 23.421875 96.570312 22.375 C 96.128906 20.882812 95.964844 19.355469 96.085938 17.800781 C 96.101562 17.582031 96.117188 17.367188 96.140625 17.148438 C 96.183594 16.753906 96.238281 16.359375 96.308594 15.96875 C 96.347656 15.722656 96.394531 15.480469 96.445312 15.242188 C 96.605469 14.472656 96.808594 13.734375 97.03125 13.035156 C 97.128906 12.71875 97.234375 12.414062 97.339844 12.113281 C 97.664062 11.210938 98.035156 10.324219 98.449219 9.457031 C 98.761719 8.796875 99.046875 8.265625 99.253906 7.894531 C 99.335938 7.746094 99.40625 7.625 99.464844 7.53125 C 99.546875 7.390625 99.59375 7.3125 99.597656 7.304688 C 99.691406 7.160156 99.773438 7.015625 99.851562 6.863281 C 99.902344 6.765625 99.945312 6.667969 99.988281 6.570312 C 100.285156 5.871094 100.40625 5.140625 100.347656 4.386719 C 100.289062 3.628906 100.058594 2.925781 99.65625 2.28125 C 99.597656 2.1875 99.535156 2.097656 99.472656 2.007812 C 99.453125 1.980469 99.429688 1.953125 99.410156 1.921875 C 99.363281 1.863281 99.320312 1.804688 99.273438 1.75 C 99.246094 1.71875 99.21875 1.6875 99.191406 1.65625 C 99.148438 1.605469 99.105469 1.554688 99.058594 1.507812 C 99.027344 1.476562 98.996094 1.445312 98.964844 1.414062 C 98.917969 1.367188 98.875 1.324219 98.828125 1.28125 C 98.792969 1.25 98.757812 1.21875 98.726562 1.191406 C 98.679688 1.148438 98.632812 1.109375 98.585938 1.074219 C 98.546875 1.042969 98.511719 1.015625 98.472656 0.988281 C 98.425781 0.949219 98.375 0.914062 98.328125 0.882812 C 98.289062 0.855469 98.25 0.828125 98.210938 0.800781 C 98.160156 0.769531 98.109375 0.738281 98.054688 0.707031 C 98.015625 0.683594 97.976562 0.65625 97.9375 0.636719 C 97.882812 0.605469 97.828125 0.578125 97.773438 0.546875 C 97.734375 0.527344 97.691406 0.503906 97.652344 0.484375 C 97.59375 0.457031 97.539062 0.433594 97.480469 0.40625 C 97.441406 0.390625 97.398438 0.371094 97.355469 0.355469 C 97.296875 0.332031 97.234375 0.308594 97.175781 0.285156 C 97.132812 0.273438 97.09375 0.257812 97.054688 0.246094 C 96.984375 0.222656 96.914062 0.203125 96.84375 0.183594 C 96.8125 0.171875 96.777344 0.160156 96.746094 0.152344 C 96.640625 0.125 96.535156 0.101562 96.429688 0.0820312 C 96.421875 0.078125 96.414062 0.078125 96.40625 0.078125 C 96.308594 0.0585938 96.207031 0.0429688 96.105469 0.03125 C 96.070312 0.0273438 96.035156 0.0234375 95.996094 0.0195312 C 95.925781 0.015625 95.855469 0.0078125 95.78125 0.00390625 C 95.738281 0 95.691406 0 95.652344 0 C 95.585938 -0.00390625 95.523438 -0.00390625 95.460938 -0.00390625 C 95.328125 -0.00390625 95.199219 0 95.066406 0.0117188 L 94.964844 0.0195312 L 94.941406 0.0234375 L 94.828125 0.0351562 L 94.796875 0.0390625 C 94.695312 0.046875 94.566406 0.0625 94.414062 0.078125 L 94.355469 0.0859375 C 94.242188 0.0976562 94.117188 0.113281 93.976562 0.128906 L 93.75 0.15625 C 93.648438 0.171875 93.539062 0.183594 93.425781 0.199219 C 92.957031 0.261719 92.398438 0.339844 91.761719 0.4375 C 91.582031 0.464844 91.398438 0.492188 91.207031 0.523438 C 91.015625 0.554688 90.816406 0.589844 90.613281 0.625 C 90.308594 0.675781 89.988281 0.730469 89.65625 0.792969 C 89.214844 0.871094 88.753906 0.960938 88.269531 1.054688 C 87.90625 1.128906 87.53125 1.203125 87.144531 1.285156 C 86.117188 1.503906 85.011719 1.757812 83.84375 2.050781 C 80.550781 2.871094 77.316406 3.878906 74.140625 5.070312 C 73.890625 5.164062 73.644531 5.257812 73.394531 5.355469 C 72.824219 5.578125 72.261719 5.800781 71.699219 6.027344 C 70.496094 6.527344 69.324219 7.046875 68.175781 7.585938 C 65.925781 8.644531 63.742188 9.820312 61.621094 11.113281 C 60.933594 11.53125 60.257812 11.960938 59.59375 12.402344 C 58.601562 13.0625 57.640625 13.742188 56.707031 14.445312 C 50.367188 19.21875 45.492188 24.953125 42.210938 31.492188 C 41.710938 32.480469 41.261719 33.472656 40.855469 34.460938 C 40.753906 34.710938 40.652344 34.957031 40.558594 35.203125 C 40.085938 36.417969 39.679688 37.648438 39.335938 38.902344 C 38.472656 42.015625 38.089844 45.1875 38.183594 48.414062 C 38.257812 50.601562 38.5625 52.753906 39.101562 54.875 C 39.539062 56.585938 40.117188 58.25 40.835938 59.867188 C 41.035156 60.316406 41.238281 60.75 41.445312 61.167969 C 41.515625 61.3125 41.585938 61.449219 41.65625 61.589844 C 41.757812 61.785156 41.859375 61.980469 41.960938 62.171875 C 42.078125 62.390625 42.195312 62.601562 42.3125 62.804688 C 42.375 62.917969 42.4375 63.027344 42.5 63.136719 C 43.300781 64.507812 44.179688 65.835938 45.128906 67.109375 C 45.203125 67.207031 45.28125 67.316406 45.351562 67.414062 C 44.714844 70 44.183594 72.625 43.761719 75.289062 C 43.546875 76.617188 43.363281 77.957031 43.203125 79.304688 C 43.046875 80.648438 42.914062 82.003906 42.808594 83.363281 C 42.730469 84.386719 42.964844 85.335938 43.511719 86.203125 C 43.582031 86.320312 43.660156 86.433594 43.746094 86.546875 C 43.796875 86.617188 43.851562 86.683594 43.90625 86.75 C 43.976562 86.835938 44.050781 86.917969 44.128906 87 C 44.34375 87.222656 44.578125 87.421875 44.832031 87.601562 C 44.957031 87.6875 45.089844 87.773438 45.226562 87.847656 C 45.867188 88.210938 46.554688 88.421875 47.289062 88.472656 C 47.414062 88.480469 47.539062 88.488281 47.660156 88.484375 C 48.125 88.488281 48.578125 88.421875 49.023438 88.292969 C 50.148438 87.96875 51.039062 87.324219 51.699219 86.355469 C 52.160156 85.664062 52.429688 84.90625 52.5 84.074219 Z M 52.503906 84.078125 " fill-opacity="1" fill-rule="nonzero"/></g></svg>