<svg xmlns="http://www.w3.org/2000/svg" xmlns:xlink="http://www.w3.org/1999/xlink" zoomAndPan="magnify" preserveAspectRatio="xMidYMid meet" version="1.0" viewBox="0 0 150 147.75"><defs><clipPath id="ba29a2a797"><path d="M 0 0 L 150 0 L 150 147.75 L 0 147.75 Z M 0 0 " clip-rule="nonzero"/></clipPath></defs><g clip-path="url(#ba29a2a797)"><path fill="#22396a" d="M 92.835938 87.851562 C 108.292969 76.78125 117.5 58.855469 117.5 39.859375 L 117.5 13.421875 C 117.5 12.203125 116.515625 11.183594 115.292969 11.125 C 109.019531 10.894531 102.773438 10.023438 96.699219 8.484375 C 89.554688 6.652344 82.609375 3.949219 76.105469 0.378906 C 75.40625 0 74.59375 0 73.894531 0.378906 C 67.390625 3.921875 60.472656 6.652344 53.300781 8.484375 C 47.226562 10.023438 40.953125 10.921875 34.707031 11.125 C 33.484375 11.15625 32.5 12.171875 32.5 13.421875 L 32.5 39.859375 C 32.5 58.855469 41.738281 76.78125 57.164062 87.851562 C 62.390625 91.597656 68.171875 94.472656 74.332031 96.332031 C 74.535156 96.390625 74.769531 96.417969 75 96.417969 C 75.230469 96.417969 75.4375 96.390625 75.667969 96.332031 C 81.828125 94.472656 87.609375 91.625 92.835938 87.851562 Z M 59.835938 84.132812 C 45.570312 73.933594 37.089844 57.375 37.089844 39.859375 L 37.089844 15.601562 C 42.929688 15.25 48.765625 14.351562 54.460938 12.925781 C 61.578125 11.125 68.492188 8.453125 75.027344 4.996094 C 81.566406 8.453125 88.449219 11.097656 95.597656 12.925781 C 101.261719 14.378906 107.101562 15.28125 112.96875 15.601562 L 112.96875 39.859375 C 112.96875 57.375 104.457031 73.90625 90.195312 84.132812 C 85.574219 87.472656 80.460938 90.027344 75.027344 91.742188 C 69.566406 90.027344 64.484375 87.472656 59.835938 84.132812 Z M 75 77.652344 C 58.617188 77.652344 45.308594 64.320312 45.308594 47.964844 C 45.308594 31.605469 58.617188 18.242188 75 18.242188 C 79.792969 18.242188 84.558594 19.40625 88.800781 21.644531 C 89.933594 22.222656 90.339844 23.617188 89.757812 24.75 C 89.175781 25.882812 87.78125 26.292969 86.648438 25.710938 C 83.019531 23.820312 79.097656 22.832031 75 22.832031 C 61.144531 22.832031 49.871094 34.105469 49.871094 47.964844 C 49.871094 61.820312 61.144531 73.09375 75 73.09375 C 88.855469 73.09375 100.128906 61.820312 100.128906 47.964844 C 100.128906 45.8125 99.867188 43.664062 99.316406 41.628906 C 98.996094 40.410156 99.722656 39.160156 100.941406 38.839844 C 102.164062 38.519531 103.410156 39.246094 103.730469 40.46875 C 104.371094 42.90625 104.691406 45.433594 104.691406 47.964844 C 104.691406 64.320312 91.382812 77.652344 75 77.652344 Z M 66.515625 37.882812 C 64.078125 35.441406 60.097656 35.441406 57.65625 37.882812 C 56.464844 39.074219 55.828125 40.640625 55.828125 42.296875 C 55.828125 43.984375 56.464844 45.550781 57.65625 46.714844 L 69.101562 58.160156 C 70.292969 59.351562 71.863281 59.988281 73.519531 59.988281 C 75.175781 59.988281 76.773438 59.351562 77.933594 58.160156 L 104.050781 32.042969 C 106.492188 29.601562 106.492188 25.621094 104.050781 23.183594 C 102.859375 21.992188 101.292969 21.351562 99.636719 21.351562 C 97.949219 21.351562 96.382812 21.992188 95.21875 23.183594 L 73.519531 44.882812 Z M 98.445312 26.4375 C 99.082031 25.796875 100.15625 25.796875 100.828125 26.4375 C 101.496094 27.105469 101.496094 28.148438 100.828125 28.820312 L 74.710938 54.933594 C 74.070312 55.574219 72.964844 55.574219 72.328125 54.933594 L 60.882812 43.488281 C 60.5625 43.167969 60.386719 42.761719 60.386719 42.296875 C 60.386719 41.863281 60.5625 41.425781 60.882812 41.105469 C 61.199219 40.789062 61.636719 40.613281 62.074219 40.613281 C 62.507812 40.613281 62.945312 40.789062 63.261719 41.105469 L 71.890625 49.734375 C 72.328125 50.171875 72.910156 50.402344 73.519531 50.402344 C 74.128906 50.402344 74.710938 50.171875 75.144531 49.734375 Z M 143.5 46.308594 C 141.730469 45.785156 139.785156 45.898438 138.070312 46.625 C 136.355469 47.382812 134.960938 48.71875 134.175781 50.402344 L 117.617188 84.886719 C 117.617188 84.886719 117.589844 84.859375 117.589844 84.859375 C 117.210938 84.539062 116.804688 84.277344 116.367188 84.042969 C 116.253906 83.984375 116.164062 83.929688 116.050781 83.871094 C 115.613281 83.636719 115.148438 83.433594 114.65625 83.289062 C 111.835938 82.445312 108.726562 83.144531 106.519531 85.175781 L 92.257812 98.570312 C 90.976562 99.789062 90.019531 101.328125 89.496094 103.015625 L 83.335938 123.40625 C 82.089844 123.089844 80.753906 123.234375 79.589844 123.871094 C 78.339844 124.542969 77.441406 125.644531 77.035156 127.011719 L 75.726562 131.339844 C 75.320312 132.703125 75.464844 134.128906 76.132812 135.378906 C 76.800781 136.625 77.90625 137.527344 79.269531 137.933594 L 109.714844 147.113281 C 110.210938 147.257812 110.734375 147.347656 111.226562 147.347656 C 113.492188 147.347656 115.585938 145.863281 116.28125 143.597656 L 117.589844 139.269531 C 117.996094 137.90625 117.851562 136.480469 117.183594 135.230469 C 116.628906 134.214844 115.816406 133.460938 114.800781 132.964844 L 115.84375 129.507812 C 116.542969 127.214844 117.792969 125.121094 119.476562 123.4375 L 130.285156 112.71875 C 133.421875 109.578125 135.6875 105.6875 136.820312 101.386719 L 148.761719 55.75 C 149.894531 51.710938 147.570312 47.527344 143.5 46.308594 Z M 113.261719 137.960938 L 111.953125 142.292969 C 111.835938 142.667969 111.457031 142.871094 111.082031 142.757812 L 80.636719 133.574219 C 80.257812 133.460938 80.054688 133.082031 80.171875 132.703125 L 81.476562 128.375 C 81.535156 128.144531 81.710938 128.027344 81.828125 127.96875 C 81.941406 127.910156 82.148438 127.851562 82.351562 127.910156 L 112.796875 137.089844 C 113.144531 137.179688 113.375 137.585938 113.261719 137.960938 Z M 144.375 54.644531 L 132.433594 100.285156 C 131.503906 103.769531 129.671875 106.964844 127.117188 109.523438 L 116.308594 120.210938 C 114.074219 122.421875 112.417969 125.179688 111.515625 128.203125 L 110.5 131.601562 L 87.78125 124.746094 L 93.941406 104.378906 C 94.230469 103.449219 94.753906 102.609375 95.453125 101.96875 L 95.597656 101.824219 L 109.6875 88.574219 C 110.675781 87.675781 112.070312 87.328125 113.347656 87.703125 C 113.984375 87.90625 114.539062 88.226562 114.972656 88.722656 C 115.351562 89.128906 115.640625 89.621094 115.816406 90.144531 C 116.253906 91.511719 115.875 93.019531 114.800781 94.007812 L 103.5 104.613281 C 102.570312 105.484375 102.539062 106.9375 103.410156 107.867188 C 103.875 108.359375 104.457031 108.59375 105.066406 108.59375 C 105.621094 108.59375 106.199219 108.390625 106.636719 107.980469 L 117.9375 97.378906 C 120.058594 95.433594 120.957031 92.496094 120.40625 89.710938 L 138.300781 52.4375 C 138.621094 51.738281 139.203125 51.1875 139.898438 50.867188 C 140.625 50.546875 141.410156 50.492188 142.164062 50.722656 C 143.851562 51.214844 144.839844 52.929688 144.375 54.644531 Z M 72.910156 127.039062 C 72.09375 124.335938 69.304688 122.796875 66.605469 123.464844 L 60.472656 103.042969 C 59.953125 101.359375 59.023438 99.820312 57.714844 98.597656 L 43.449219 85.175781 C 41.273438 83.171875 38.164062 82.445312 35.34375 83.289062 C 34.878906 83.433594 34.414062 83.636719 33.980469 83.871094 C 33.863281 83.929688 33.777344 83.984375 33.660156 84.042969 C 33.226562 84.277344 32.816406 84.566406 32.441406 84.859375 C 32.441406 84.859375 32.410156 84.886719 32.410156 84.886719 L 15.851562 50.402344 C 15.039062 48.71875 13.671875 47.382812 11.929688 46.625 C 10.214844 45.871094 8.300781 45.753906 6.5 46.308594 C 2.429688 47.527344 0.105469 51.710938 1.183594 55.808594 L 13.121094 101.445312 C 14.253906 105.714844 16.492188 109.636719 19.65625 112.777344 L 30.464844 123.496094 C 32.148438 125.179688 33.429688 127.273438 34.125 129.566406 L 35.171875 133.023438 C 32.847656 134.128906 31.628906 136.769531 32.382812 139.300781 L 33.691406 143.628906 C 34.386719 145.921875 36.480469 147.375 38.746094 147.375 C 39.238281 147.375 39.761719 147.289062 40.253906 147.144531 L 70.699219 137.933594 C 72.066406 137.527344 73.167969 136.625 73.839844 135.378906 C 74.507812 134.128906 74.652344 132.703125 74.246094 131.367188 Z M 33.691406 120.210938 L 22.882812 109.492188 C 20.328125 106.9375 18.46875 103.742188 17.566406 100.253906 L 5.625 54.644531 C 5.191406 52.960938 6.148438 51.214844 7.835938 50.722656 C 8.589844 50.492188 9.375 50.546875 10.101562 50.867188 C 10.796875 51.1875 11.378906 51.738281 11.726562 52.4375 L 29.621094 89.710938 C 29.070312 92.496094 30 95.402344 32.09375 97.347656 L 43.394531 107.953125 C 43.828125 108.359375 44.410156 108.5625 44.960938 108.5625 C 45.570312 108.5625 46.179688 108.332031 46.617188 107.835938 C 47.488281 106.90625 47.429688 105.453125 46.53125 104.582031 L 35.199219 93.980469 C 34.15625 93.019531 33.746094 91.480469 34.210938 90.117188 C 34.359375 89.621094 34.648438 89.128906 35.027344 88.722656 C 35.492188 88.226562 36.015625 87.90625 36.652344 87.703125 C 37.929688 87.328125 39.324219 87.644531 40.3125 88.546875 L 54.402344 101.792969 L 54.546875 101.941406 C 55.246094 102.609375 55.769531 103.449219 56.058594 104.378906 L 62.21875 124.746094 L 57.394531 126.195312 L 39.5 131.601562 L 38.484375 128.203125 C 37.582031 125.179688 35.925781 122.421875 33.691406 120.210938 Z M 69.363281 133.546875 L 38.917969 142.726562 C 38.542969 142.84375 38.164062 142.640625 38.046875 142.261719 L 36.738281 137.933594 C 36.625 137.554688 36.828125 137.179688 37.203125 137.0625 L 67.648438 127.882812 C 67.738281 127.851562 67.796875 127.851562 67.851562 127.851562 C 68 127.851562 68.113281 127.882812 68.171875 127.941406 C 68.289062 128 68.433594 128.113281 68.523438 128.347656 L 69.828125 132.675781 C 69.945312 133.054688 69.742188 133.429688 69.363281 133.546875 Z M 69.363281 133.546875 " fill-opacity="1" fill-rule="nonzero"/></g></svg>