<svg xmlns="http://www.w3.org/2000/svg" xmlns:xlink="http://www.w3.org/1999/xlink" zoomAndPan="magnify" preserveAspectRatio="xMidYMid meet" version="1.0" viewBox="0 2 150 113.5"><defs><clipPath id="f227233ecb"><path d="M 0 2 L 150 2 L 150 115.5 L 0 115.5 Z M 0 2 " clip-rule="nonzero"/></clipPath></defs><g clip-path="url(#f227233ecb)"><path fill="#22396a" d="M 142.996094 91.996094 C 144.53125 93.019531 145.453125 94.730469 145.453125 96.570312 C 145.453125 100.496094 141.449219 103.109375 137.898438 101.65625 C 135.824219 100.808594 133.898438 103.1875 135.164062 105.039062 C 136.761719 107.378906 135.089844 110.621094 132.210938 110.621094 C 130.238281 110.621094 128.636719 109.015625 128.636719 107.046875 L 128.636719 92.375 L 132.796875 92.375 C 133.582031 95.566406 135.980469 98.136719 139.066406 98.855469 C 140.265625 99.140625 141.507812 98.394531 141.792969 97.15625 C 142.078125 95.933594 141.316406 94.710938 140.097656 94.433594 C 138.339844 94.023438 137.066406 92.203125 137.066406 90.105469 C 137.066406 88.007812 138.339844 86.1875 140.097656 85.78125 C 141.316406 85.496094 142.078125 84.273438 141.792969 83.054688 C 141.507812 81.832031 140.289062 81.066406 139.066406 81.351562 C 135.980469 82.070312 133.582031 84.644531 132.796875 87.832031 L 128.636719 87.832031 L 128.636719 73.160156 C 128.636719 71.191406 130.238281 69.589844 132.210938 69.589844 C 135.089844 69.589844 136.761719 72.832031 135.164062 75.171875 C 133.898438 77.023438 135.824219 79.398438 137.898438 78.554688 C 141.464844 77.101562 145.453125 79.726562 145.453125 83.640625 C 145.453125 85.484375 144.53125 87.191406 142.996094 88.210938 C 141.644531 89.113281 141.644531 91.097656 142.996094 91.996094 Z M 120.519531 110.621094 C 117.644531 110.621094 115.960938 107.386719 117.566406 105.039062 C 118.839844 103.171875 116.882812 100.808594 114.828125 101.65625 C 111.3125 103.105469 107.273438 100.519531 107.273438 96.570312 C 107.273438 94.726562 108.191406 93.019531 109.730469 91.996094 C 111.078125 91.101562 111.078125 89.105469 109.730469 88.210938 C 108.191406 87.191406 107.273438 85.480469 107.273438 83.640625 C 107.273438 79.722656 111.269531 77.101562 114.828125 78.554688 C 116.902344 79.402344 118.828125 77.023438 117.566406 75.171875 C 115.960938 72.824219 117.640625 69.589844 120.519531 69.589844 C 122.488281 69.589844 124.089844 71.191406 124.089844 73.160156 L 124.089844 87.832031 L 119.933594 87.832031 C 119.144531 84.644531 116.746094 82.070312 113.660156 81.351562 C 112.441406 81.070312 111.214844 81.828125 110.929688 83.054688 C 110.648438 84.273438 111.410156 85.496094 112.632812 85.777344 C 114.386719 86.1875 115.664062 88.007812 115.664062 90.105469 C 115.664062 92.203125 114.386719 94.019531 112.632812 94.429688 C 111.410156 94.710938 110.648438 95.933594 110.929688 97.15625 C 111.21875 98.390625 112.457031 99.140625 113.660156 98.855469 C 116.746094 98.136719 119.144531 95.566406 119.933594 92.375 L 124.089844 92.375 L 124.089844 107.046875 C 124.089844 109.015625 122.488281 110.621094 120.519531 110.621094 Z M 118.292969 17.515625 C 118.292969 13.0625 121.914062 9.441406 126.363281 9.441406 C 130.816406 9.441406 134.4375 13.0625 134.4375 17.515625 C 134.4375 21.964844 130.816406 25.585938 126.363281 25.585938 C 121.914062 25.585938 118.292969 21.964844 118.292969 17.515625 Z M 96.214844 20.414062 L 96.214844 14.613281 L 114.085938 14.613281 C 113.632812 16.542969 113.632812 18.484375 114.085938 20.414062 Z M 90.1875 34.636719 L 86.402344 42.480469 C 85.132812 45.101562 84.625 47.671875 84.808594 50.574219 L 86.03125 110.621094 L 65.398438 110.621094 L 67.636719 52.300781 C 67.816406 47.214844 65.867188 42.757812 62.003906 39.417969 C 59.320312 37.101562 57.960938 34.117188 57.960938 30.546875 L 57.960938 21.574219 C 57.960938 20.058594 59.195312 18.824219 60.710938 18.824219 L 75.222656 18.824219 C 74.628906 22.703125 70.546875 23.28125 65.496094 23.359375 C 63.070312 23.398438 62.394531 26.574219 64.445312 27.644531 C 70.234375 30.675781 73.039062 34.777344 73.019531 40.191406 C 73.015625 41.445312 74.03125 42.472656 75.292969 42.472656 C 76.546875 42.472656 77.558594 41.460938 77.5625 40.207031 C 77.582031 35.0625 75.679688 30.734375 71.894531 27.285156 C 74.15625 26.742188 75.890625 25.835938 77.203125 24.550781 C 79.601562 26.984375 83.457031 27.195312 86.09375 25.023438 C 87.601562 26.332031 89.644531 26.84375 91.628906 26.320312 C 91.628906 29.554688 91.710938 31.484375 90.1875 34.636719 Z M 37.773438 14.613281 L 57.949219 14.613281 L 57.949219 14.824219 C 55.636719 15.769531 53.917969 17.875 53.507812 20.414062 L 37.773438 20.414062 C 38.226562 18.503906 38.226562 16.523438 37.773438 14.613281 Z M 64.5625 6.613281 C 65.695312 6.613281 66.625 7.535156 66.625 8.675781 L 66.625 14.277344 L 62.496094 14.277344 L 62.496094 8.675781 C 62.496094 7.535156 63.421875 6.613281 64.5625 6.613281 Z M 73.234375 6.613281 C 74.371094 6.613281 75.296875 7.535156 75.296875 8.675781 L 75.296875 14.277344 L 71.167969 14.277344 L 71.167969 8.675781 C 71.167969 7.535156 72.097656 6.613281 73.234375 6.613281 Z M 81.910156 6.613281 C 80.769531 6.613281 79.84375 7.535156 79.84375 8.675781 L 79.84375 19.914062 C 79.84375 21.054688 80.769531 21.976562 81.910156 21.976562 C 83.046875 21.976562 83.972656 21.054688 83.972656 19.914062 L 83.972656 9.816406 C 83.972656 9.425781 84.011719 9.046875 84.085938 8.675781 L 83.972656 8.675781 C 83.972656 7.535156 83.046875 6.613281 81.910156 6.613281 Z M 90.09375 8.242188 C 89.238281 8.242188 88.515625 8.964844 88.515625 9.816406 L 88.515625 20.402344 C 88.515625 21.269531 89.222656 21.976562 90.09375 21.976562 C 90.964844 21.976562 91.671875 21.269531 91.671875 20.402344 L 91.671875 9.816406 C 91.671875 8.953125 90.964844 8.242188 90.09375 8.242188 Z M 25.496094 25.585938 C 21.042969 25.585938 17.421875 21.964844 17.421875 17.515625 C 17.421875 13.0625 21.042969 9.441406 25.496094 9.441406 C 29.945312 9.441406 33.566406 13.0625 33.566406 17.515625 C 33.566406 21.964844 29.945312 25.585938 25.496094 25.585938 Z M 46.441406 82.488281 C 46.441406 92.859375 35.570312 105.488281 25.496094 110.386719 C 15.421875 105.488281 4.550781 92.859375 4.550781 82.488281 C 4.550781 76.433594 9.476562 71.511719 15.53125 71.511719 C 18.691406 71.511719 21.699219 72.875 23.785156 75.253906 C 24.695312 76.289062 26.300781 76.285156 27.203125 75.253906 C 29.292969 72.875 32.300781 71.511719 35.460938 71.511719 C 41.515625 71.511719 46.441406 76.433594 46.441406 82.488281 Z M 149.996094 83.640625 C 149.996094 78.226562 145.683594 73.800781 140.3125 73.613281 C 140.707031 67.5 134.191406 63.125 128.636719 65.878906 L 128.636719 29.921875 C 134.511719 28.851562 138.980469 23.695312 138.980469 17.515625 C 138.980469 10.554688 133.324219 4.894531 126.363281 4.894531 C 122.1875 4.894531 118.480469 6.9375 116.1875 10.066406 L 96.214844 10.066406 L 96.214844 9.816406 C 96.214844 5.117188 91.105469 2.167969 87.042969 4.519531 C 84.6875 1.609375 80.398438 1.230469 77.570312 3.691406 C 75.078125 1.523438 71.386719 1.523438 68.898438 3.691406 C 64.648438 -0.0078125 57.949219 3.007812 57.949219 8.675781 L 57.949219 10.066406 L 35.671875 10.066406 C 33.375 6.9375 29.671875 4.894531 25.496094 4.894531 C 18.539062 4.894531 12.878906 10.554688 12.878906 17.515625 C 12.878906 23.695312 17.347656 28.851562 23.222656 29.921875 L 23.222656 69.007812 C 12.949219 63.140625 0.00390625 70.554688 0.00390625 82.488281 C 0.00390625 95.242188 12.957031 109.84375 24.578125 114.972656 C 25.167969 115.230469 25.824219 115.230469 26.414062 114.972656 C 38.035156 109.84375 50.984375 95.242188 50.984375 82.488281 C 50.984375 70.566406 38.0625 63.140625 27.769531 69.007812 L 27.769531 29.921875 C 30.996094 29.332031 33.804688 27.507812 35.671875 24.960938 L 53.414062 24.960938 L 53.414062 30.546875 C 53.414062 35.425781 55.363281 39.683594 59.035156 42.855469 C 61.820312 45.261719 63.226562 48.476562 63.097656 52.132812 L 60.851562 110.621094 L 50.554688 110.621094 C 49.296875 110.621094 48.28125 111.636719 48.28125 112.890625 C 48.28125 114.148438 49.296875 115.164062 50.554688 115.164062 L 102.277344 115.164062 C 103.535156 115.164062 104.546875 114.148438 104.546875 112.890625 C 104.546875 111.636719 103.535156 110.621094 102.277344 110.621094 L 90.578125 110.621094 L 89.351562 50.433594 C 89.351562 50.398438 89.347656 50.367188 89.34375 50.332031 C 89.210938 48.199219 89.558594 46.386719 90.492188 44.457031 L 94.28125 36.613281 C 96.382812 32.257812 96.175781 29.445312 96.175781 24.960938 L 116.1875 24.960938 C 118.054688 27.507812 120.863281 29.332031 124.09375 29.921875 L 124.09375 65.878906 C 118.523438 63.121094 112.019531 67.519531 112.414062 73.613281 C 107.046875 73.800781 102.730469 78.226562 102.730469 83.640625 C 102.730469 86.039062 103.585938 88.320312 105.089844 90.105469 C 103.585938 91.890625 102.730469 94.167969 102.730469 96.570312 C 102.730469 101.984375 107.046875 106.414062 112.414062 106.597656 C 112.121094 111.160156 115.835938 115.167969 120.519531 115.167969 C 122.816406 115.167969 124.886719 114.207031 126.367188 112.671875 C 127.839844 114.207031 129.917969 115.167969 132.210938 115.167969 C 136.882812 115.167969 140.609375 111.175781 140.3125 106.597656 C 145.6875 106.414062 149.996094 101.984375 149.996094 96.570312 C 149.996094 94.171875 149.144531 91.890625 147.636719 90.105469 C 149.144531 88.320312 149.996094 86.039062 149.996094 83.640625 Z M 149.996094 83.640625 " fill-opacity="1" fill-rule="evenodd"/></g></svg>