<svg width="65" height="65" viewBox="0 0 65 65" fill="none" xmlns="http://www.w3.org/2000/svg">
<path d="M10.8621 44.3412H8.323V31.629H36.7585V21.1807H19.4035V9.72852H48.7632V12.3H21.9425V18.6093H39.2975V34.2005H10.8621V44.3412Z" fill="#2D2D2D"/>
<path d="M54.2351 26.4777C53.38 25.3277 45.8298 15.1201 45.8298 10.043C45.8298 3.94254 49.5897 0 55.4143 0C61.2389 0 64.9998 3.94254 64.9998 10.043C64.9998 15.1283 57.4496 25.3349 56.5873 26.4777L55.4153 28.0452L54.2351 26.4777Z" fill="#2D2D2D"/>
<path d="M55.4228 13.2532C57.137 13.2532 58.5266 11.8459 58.5266 10.1099C58.5266 8.37387 57.137 6.96655 55.4228 6.96655C53.7087 6.96655 52.3191 8.37387 52.3191 10.1099C52.3191 11.8459 53.7087 13.2532 55.4228 13.2532Z" fill="white"/>
<path d="M8.40531 63.4325C7.55016 62.2826 0 52.0749 0 46.9979C0 40.8974 3.75984 36.9548 9.58445 36.9548C15.4091 36.9548 19.1689 40.8974 19.1689 46.9979C19.1689 52.0832 11.6187 62.2898 10.7565 63.4325L9.58445 65.0001L8.40531 63.4325Z" fill="#DB2B42"/>
<path d="M9.59276 50.2081C11.3069 50.2081 12.6965 48.8007 12.6965 47.0647C12.6965 45.3287 11.3069 43.9214 9.59276 43.9214C7.87861 43.9214 6.48901 45.3287 6.48901 47.0647C6.48901 48.8007 7.87861 50.2081 9.59276 50.2081Z" fill="white"/>
</svg>
