<svg width="77" height="77" viewBox="0 0 77 77" fill="none" xmlns="http://www.w3.org/2000/svg">
<path d="M38.5 1C59.2107 1 76 17.7893 76 38.5001C76 59.2104 59.2107 76 38.5 76C17.7893 76 1 59.2104 1 38.5001C1 17.7893 17.7893 1 38.5 1Z" fill="white" stroke="#1C1C1C" stroke-width="1.69905" stroke-linecap="round"/>
<path d="M18.0122 41.3051H24.865C25.2215 41.3051 25.537 41.0747 25.6456 40.735L31.8479 21.345C32.1119 20.5197 33.3093 20.6151 33.4388 21.4719L38.0259 51.7459C38.1529 52.5835 39.3119 52.7015 39.6053 51.9069L46.9926 31.8913C47.2627 31.1597 48.3048 31.1827 48.5421 31.9253L51.36 40.735C51.4686 41.0747 51.7841 41.3051 52.1407 41.3051H58.9936" fill="white"/>
<path d="M18.0122 41.3051H24.865C25.2215 41.3051 25.537 41.0747 25.6456 40.735L31.8479 21.345C32.1119 20.5197 33.3093 20.6151 33.4388 21.4719L38.0259 51.7459C38.1529 52.5835 39.3119 52.7015 39.6053 51.9069L46.9926 31.8913C47.2627 31.1597 48.3048 31.1827 48.5421 31.9253L51.36 40.735C51.4686 41.0747 51.7841 41.3051 52.1407 41.3051H58.9936" stroke="#DF1463" stroke-width="1.7" stroke-linecap="round"/>
</svg>
