<svg width="56" height="75" viewBox="0 0 56 75" fill="none" xmlns="http://www.w3.org/2000/svg">
<path d="M46.1795 22.7326C46.1795 22.9778 46.1764 23.2245 46.1719 23.4728C46.1688 23.557 46.1673 23.6414 46.1657 23.7256C46.1612 23.8881 46.155 24.052 46.1473 24.2145C46.1366 24.4734 46.1228 24.7324 46.1074 24.993C46.106 25.0129 46.106 25.0314 46.1043 25.0513C45.5648 33.692 42.0675 43.9938 35.6829 55.721C30.5733 65.1095 25.5357 71.816 25.2844 72.1471C25.2844 72.1485 25.2844 72.1485 25.2844 72.1485L23.4514 74.5838L23.4469 74.5793L23.4438 74.5838L21.6154 72.1563L21.6139 72.1517C21.4009 71.8712 16.3434 65.1479 11.2124 55.721C4.82769 43.9939 1.33037 33.692 0.790869 25.0513C0.789405 25.0314 0.789405 25.0115 0.787794 24.9915C0.770948 24.731 0.758643 24.472 0.74795 24.2161C0.740332 24.0521 0.73418 23.8881 0.729493 23.7256C0.728028 23.6414 0.724952 23.557 0.72334 23.4728C0.718799 23.2245 0.714111 22.9778 0.714111 22.7326C0.714258 10.1977 10.9121 0 23.4469 0C35.9817 0 46.1795 10.1977 46.1795 22.7326Z" fill="#67BFFF"/>
<path d="M46.1795 22.7326C46.1795 22.9778 46.1764 23.2245 46.1719 23.4728C46.1688 23.557 46.1674 23.6414 46.1657 23.7256C46.1612 23.8881 46.1551 24.052 46.1473 24.2145C46.1366 24.4734 46.1228 24.7324 46.1074 24.993C46.106 25.0129 46.106 25.0314 46.1044 25.0513C45.5649 33.692 42.0676 43.9938 35.6829 55.721C30.5734 65.1095 25.5358 71.816 25.2844 72.1471C25.2844 72.1485 25.2844 72.1485 25.2844 72.1485L23.4514 74.5838L23.4469 74.5793V0C35.9817 0 46.1795 10.1977 46.1795 22.7326Z" fill="#0088FF"/>
<path d="M35.0836 21.7517C35.0836 28.1778 29.8745 33.3884 23.4469 33.3884C17.0208 33.3884 11.8116 28.1777 11.8116 21.7517C11.8116 15.3241 17.0208 10.115 23.4469 10.115C29.8745 10.1148 35.0836 15.3241 35.0836 21.7517Z" fill="white"/>
<path d="M55.2859 59.541C55.2859 68.079 48.3648 74.9999 39.827 74.9999C39.7902 74.9999 39.7534 74.9999 39.7166 74.9984C35.5404 74.9709 31.7596 73.285 28.9949 70.5677C26.5121 68.1279 24.8492 64.8573 24.4585 61.2037C24.4002 60.6581 24.3682 60.1033 24.3682 59.5408C24.3682 54.9078 26.408 50.7516 29.6356 47.9179C29.6709 47.8873 29.7061 47.8566 29.7414 47.8275C30.9997 46.7425 32.4356 45.8582 33.9973 45.2207C35.7644 44.5019 37.6938 44.0973 39.7168 44.085C39.7536 44.0835 39.7903 44.0835 39.8271 44.0835C48.3648 44.0835 55.2859 51.003 55.2859 59.541Z" fill="#57555C"/>
<path d="M55.2858 59.541C55.2858 68.079 48.3647 74.9999 39.8269 74.9999C39.7901 74.9999 39.7533 74.9999 39.7166 74.9984V44.085C39.7533 44.0835 39.7901 44.0835 39.8269 44.0835C48.3647 44.0835 55.2858 51.003 55.2858 59.541Z" fill="#3C3A41"/>
<path d="M43.8207 61.3579L44.7862 66.987L39.7303 64.3295L39.7165 64.3371L34.6758 66.987L35.6415 61.3579L31.5525 57.3716L37.2031 56.5501L39.7165 51.4575L39.7303 51.4299L42.259 56.5501L47.9097 57.3716L43.8207 61.3579Z" fill="white"/>
<path d="M43.8208 61.3579L44.7862 66.987L39.7303 64.3295L39.7166 64.3371V51.4575L39.7303 51.4299L42.2591 56.5501L47.9097 57.3716L43.8208 61.3579Z" fill="#D9D8DB"/>
<path d="M35.0836 21.7519C35.0836 28.178 29.8745 33.3886 23.4469 33.3886V10.115C29.8745 10.115 35.0836 15.3243 35.0836 21.7519Z" fill="#D9D8DB"/>
</svg>
