<svg width="76" height="75" viewBox="0 0 76 75" fill="none" xmlns="http://www.w3.org/2000/svg">
<path d="M34.7105 5.17237C33.2289 5.17237 31.8631 5.65343 30.7631 6.46554C30.7631 2.89527 27.817 0 24.1841 0C20.9513 0 18.2617 2.29263 17.7091 5.31344C16.5209 3.63883 14.5774 2.58633 12.3419 2.58633C8.709 2.58633 5.76294 5.4816 5.76294 9.05187C5.76294 10.5131 6.25631 11.8606 7.08788 12.9441L38.0301 12.9325L40.4643 8.56437C39.3486 6.55343 37.2052 5.17237 34.7105 5.17237Z" fill="#95A5A5"/>
<path d="M67.6053 50.4312C63.2448 50.4312 59.7105 46.9579 59.7105 42.6724C59.7105 39.3052 61.8973 36.4474 64.9487 35.3741L45.2369 0L14.9736 54.3105H75.5L72.4316 48.8031C71.096 49.8194 69.425 50.4312 67.6053 50.4312Z" fill="#ECF0F1"/>
<path d="M67.6054 64.6551C66.8791 64.6551 66.2896 64.0758 66.2896 63.3619V50.4309C66.2896 49.717 66.8791 49.1377 67.6054 49.1377C68.3317 49.1377 68.9213 49.717 68.9213 50.4309V63.3619C68.9211 64.0759 68.3316 64.6551 67.6054 64.6551Z" fill="#805333"/>
<path d="M75.5001 42.6726C75.5001 46.958 71.9659 50.4313 67.6053 50.4313C63.2447 50.4313 59.7104 46.958 59.7104 42.6726C59.7104 38.3872 63.2447 34.9141 67.6053 34.9141C71.9659 34.9141 75.5001 38.3874 75.5001 42.6726Z" fill="#4FBA6F"/>
<path d="M7.07904 42.6723C6.35269 42.6723 5.76318 42.093 5.76318 41.3792V32.3276C5.76318 31.6138 6.35269 31.0344 7.07904 31.0344C7.80538 31.0344 8.39489 31.6138 8.39489 32.3276V41.3793C8.39474 42.0931 7.80538 42.6723 7.07904 42.6723Z" fill="#805333"/>
<path d="M13.6579 25.8623C13.6579 29.4325 10.7119 32.3278 7.07896 32.3278C3.44606 32.3278 0.5 29.4325 0.5 25.8623C0.5 22.292 3.44606 19.3967 7.07896 19.3967C10.7119 19.3967 13.6579 22.292 13.6579 25.8623Z" fill="#4FBA6F"/>
<path d="M50.4999 67.2415C50.4999 62.9627 46.9592 59.4828 42.6051 59.4828H14.9736C11.3459 59.4828 8.39461 56.5824 8.39461 53.0173C8.39461 45.8871 14.2973 40.0862 21.5525 40.0862H22.8998L25.7814 34.9138H21.5524C11.3945 34.9138 3.13135 43.0345 3.13135 53.0173C3.13135 59.4336 8.44454 64.6552 14.9734 64.6552H42.605C44.0563 64.6552 45.2365 65.8151 45.2365 67.2414C45.2365 71.5202 48.7773 75.0001 53.1314 75.0001H75.4998V69.8277H53.1315C51.6802 69.8279 50.4999 68.6678 50.4999 67.2415Z" fill="#2C3E50"/>
<path d="M45.237 25.8622L49.1843 18.1035L60.7567 27.851L58.3948 23.6135L45.237 0L32.0791 23.6135L29.7172 27.851L41.2896 18.1035L45.237 25.8622Z" fill="#ECF0F1"/>
<path d="M60.7565 27.8514L49.1841 18.104L45.2367 25.8627L41.2893 18.104L29.7168 27.8514L22.9116 40.0648L41.2893 31.0351L45.2367 38.7938L49.1841 31.0351L61.9263 37.295C62.7619 36.4454 63.7922 35.7807 64.9487 35.3734L60.7565 27.8514Z" fill="#95A5A5"/>
</svg>
