<!DOCTYPE svg PUBLIC "-//W3C//DTD SVG 1.1//EN" "http://www.w3.org/Graphics/SVG/1.1/DTD/svg11.dtd">
<!-- Uploaded to: SVG Repo, www.svgrepo.com, Transformed by: SVG Repo Mixer Tools -->
<svg width="101px" height="101px" viewBox="0 0 32 32" enable-background="new 0 0 32 32" version="1.1" xml:space="preserve" xmlns="http://www.w3.org/2000/svg" xmlns:xlink="http://www.w3.org/1999/xlink" fill="#000000">
<g id="SVGRepo_bgCarrier" stroke-width="0"/>
<g id="SVGRepo_tracerCarrier" stroke-linecap="round" stroke-linejoin="round"/>
<g id="SVGRepo_iconCarrier"> <g id="Layer_2"/> <g id="Layer_3"/> <g id="Layer_4"/> <g id="Layer_5"/> <g id="Layer_6"/> <g id="Layer_7"/> <g id="Layer_8"/> <g id="Layer_9"/> <g id="Layer_10"/> <g id="Layer_11"/> <g id="Layer_12"/> <g id="Layer_13"/> <g id="Layer_14"/> <g id="Layer_15"/> <g id="Layer_16"/> <g id="Layer_17"/> <g id="Layer_18"/> <g id="Layer_19"/> <g id="Maps_11_"/> <g id="Maps_10_"/> <g id="Maps_9_"/> <g id="Maps_8_"/> <g id="Maps_7_"/> <g id="Maps_6_"> <g> <path d="M23,8c0,3.52-2.61,6.44-6,6.92V26c0,0.55-0.45,1-1,1s-1-0.45-1-1V14.92c-3.39-0.48-6-3.4-6-6.92 c0-3.86,3.14-7,7-7S23,4.14,23,8z" fill="#3F51B5"/> </g> <g> <path d="M16,31c-7.2715,0-15-2.103-15-6c0-2.8154,4.2764-5.0859,10.895-5.7847 c0.5552-0.0557,1.0415,0.3408,1.0996,0.8896c0.0576,0.5493-0.3403,1.0415-0.8896,1.0996C6.481,21.7979,3,23.6367,3,25 c0,1.6309,5.0645,4,13,4s13-2.3691,13-4c0-1.3633-3.481-3.2021-9.105-3.7954c-0.5493-0.0581-0.9473-0.5503-0.8896-1.0996 c0.0576-0.5488,0.5425-0.9443,1.0996-0.8896C26.7236,19.9141,31,22.1846,31,25C31,28.897,23.2715,31,16,31z" fill="#2197F3"/> </g> </g> <g id="Maps_5_"/> <g id="Maps_4_"/> <g id="Maps_3_"/> <g id="Maps_2_"/> <g id="Maps_1_"/> <g id="Maps"/> </g>
</svg>