<svg xmlns="http://www.w3.org/2000/svg" xmlns:xlink="http://www.w3.org/1999/xlink" zoomAndPan="magnify" preserveAspectRatio="xMidYMid meet" version="1.0" viewBox="0 0.23 150.06 142.27"><defs><clipPath id="50f6a2b386"><path d="M 0 124 L 150 124 L 150 142.5 L 0 142.5 Z M 0 124 " clip-rule="nonzero"/></clipPath></defs><path fill="#22396a" d="M 144.410156 127.585938 C 143.503906 127.585938 142.773438 126.851562 142.773438 125.949219 L 142.773438 28.691406 L 7.320312 28.691406 L 7.320312 125.949219 C 7.320312 126.851562 6.589844 127.585938 5.683594 127.585938 C 4.777344 127.585938 4.046875 126.851562 4.046875 125.949219 L 4.046875 27.050781 C 4.046875 26.148438 4.777344 25.414062 5.683594 25.414062 L 144.410156 25.414062 C 145.316406 25.414062 146.046875 26.148438 146.046875 27.050781 L 146.046875 125.949219 C 146.046875 126.851562 145.316406 127.585938 144.410156 127.585938 Z M 144.410156 127.585938 " fill-opacity="1" fill-rule="evenodd"/><path fill="#22396a" d="M 108.242188 28.6875 C 107.339844 28.6875 106.605469 27.957031 106.605469 27.050781 L 106.605469 18.546875 C 106.605469 16.941406 105.300781 15.640625 103.699219 15.640625 L 46.398438 15.640625 C 44.792969 15.640625 43.488281 16.941406 43.488281 18.546875 L 43.488281 27.050781 C 43.488281 27.957031 42.757812 28.6875 41.851562 28.6875 C 40.949219 28.6875 40.214844 27.957031 40.214844 27.050781 L 40.214844 18.546875 C 40.214844 15.136719 42.988281 12.363281 46.398438 12.363281 L 103.699219 12.363281 C 107.105469 12.363281 109.878906 15.136719 109.878906 18.546875 L 109.878906 27.050781 C 109.878906 27.957031 109.144531 28.6875 108.242188 28.6875 Z M 108.242188 28.6875 " fill-opacity="1" fill-rule="evenodd"/><path fill="#22396a" d="M 136.792969 15.640625 C 135.886719 15.640625 135.152344 14.910156 135.152344 14 L 135.152344 5.507812 C 135.152344 4.402344 134.257812 3.507812 133.15625 3.507812 L 125.121094 3.507812 C 124.019531 3.507812 123.117188 4.402344 123.117188 5.507812 L 123.117188 14 C 123.117188 14.910156 122.382812 15.640625 121.480469 15.640625 C 120.574219 15.640625 119.839844 14.910156 119.839844 14 L 119.84375 5.507812 C 119.84375 2.597656 122.210938 0.230469 125.121094 0.230469 L 133.15625 0.230469 C 136.066406 0.230469 138.429688 2.597656 138.429688 5.507812 L 138.429688 14 C 138.429688 14.910156 137.699219 15.640625 136.792969 15.640625 Z M 136.792969 15.640625 " fill-opacity="1" fill-rule="evenodd"/><path fill="#22396a" d="M 139.542969 28.6875 C 138.636719 28.6875 137.902344 27.957031 137.902344 27.050781 L 137.902344 15.640625 L 120.371094 15.640625 L 120.371094 27.050781 C 120.371094 27.957031 119.636719 28.6875 118.734375 28.6875 C 117.828125 28.6875 117.09375 27.957031 117.09375 27.050781 L 117.09375 14 C 117.09375 13.097656 117.828125 12.363281 118.734375 12.363281 L 139.542969 12.363281 C 140.445312 12.363281 141.179688 13.097656 141.179688 14 L 141.179688 27.050781 C 141.179688 27.957031 140.445312 28.6875 139.542969 28.6875 Z M 139.542969 28.6875 " fill-opacity="1" fill-rule="evenodd"/><path fill="#22396a" d="M 28.613281 15.640625 C 27.707031 15.640625 26.976562 14.910156 26.976562 14 L 26.976562 5.507812 C 26.976562 4.402344 26.074219 3.507812 24.972656 3.507812 L 16.941406 3.507812 C 15.835938 3.507812 14.9375 4.402344 14.9375 5.507812 L 14.9375 14 C 14.9375 14.910156 14.207031 15.640625 13.296875 15.640625 C 12.394531 15.640625 11.660156 14.910156 11.660156 14 L 11.660156 5.507812 C 11.660156 2.597656 14.027344 0.230469 16.9375 0.230469 L 24.972656 0.230469 C 27.882812 0.230469 30.25 2.597656 30.25 5.507812 L 30.253906 14 C 30.253906 14.910156 29.519531 15.640625 28.613281 15.640625 Z M 28.613281 15.640625 " fill-opacity="1" fill-rule="evenodd"/><path fill="#22396a" d="M 31.363281 28.6875 C 30.457031 28.6875 29.722656 27.957031 29.722656 27.050781 L 29.722656 15.640625 L 12.191406 15.640625 L 12.191406 27.050781 C 12.191406 27.957031 11.457031 28.6875 10.550781 28.6875 C 9.648438 28.6875 8.914062 27.957031 8.914062 27.050781 L 8.914062 14 C 8.914062 13.097656 9.648438 12.363281 10.550781 12.363281 L 31.363281 12.363281 C 32.265625 12.363281 33 13.097656 33 14 L 33 27.050781 C 33 27.957031 32.265625 28.6875 31.363281 28.6875 Z M 31.363281 28.6875 " fill-opacity="1" fill-rule="evenodd"/><g clip-path="url(#50f6a2b386)"><path fill="#22396a" d="M 146.84375 127.585938 L 146.847656 127.585938 Z M 3.3125 138.734375 L 146.78125 138.734375 L 146.78125 127.585938 L 3.3125 127.585938 Z M 146.84375 142.007812 L 3.25 142.007812 C 1.480469 142.007812 0.0351562 140.566406 0.0351562 138.792969 L 0.0390625 127.519531 C 0.0390625 125.75 1.480469 124.3125 3.25 124.3125 L 146.84375 124.3125 C 148.613281 124.3125 150.054688 125.75 150.054688 127.523438 L 150.058594 138.792969 C 150.058594 140.566406 148.613281 142.007812 146.84375 142.007812 Z M 146.84375 142.007812 " fill-opacity="1" fill-rule="evenodd"/></g><path fill="#22396a" d="M 66.554688 99.273438 L 71.015625 99.273438 L 88.457031 71.945312 L 77.449219 71.945312 C 76.910156 71.945312 76.40625 71.675781 76.101562 71.234375 C 75.796875 70.789062 75.730469 70.222656 75.921875 69.71875 L 82.0625 53.726562 L 70.652344 53.726562 L 61 79.890625 L 71.476562 79.890625 C 72.011719 79.890625 72.515625 80.152344 72.820312 80.597656 C 73.128906 81.035156 73.199219 81.597656 73.007812 82.105469 Z M 71.914062 102.546875 L 64.1875 102.546875 C 63.648438 102.546875 63.148438 102.285156 62.839844 101.84375 C 62.539062 101.402344 62.464844 100.839844 62.65625 100.332031 L 69.113281 83.164062 L 58.652344 83.164062 C 58.117188 83.164062 57.613281 82.902344 57.308594 82.460938 C 57 82.027344 56.929688 81.460938 57.113281 80.960938 L 67.972656 51.519531 C 68.207031 50.875 68.820312 50.449219 69.507812 50.449219 L 84.449219 50.449219 C 84.988281 50.449219 85.492188 50.714844 85.796875 51.160156 C 86.101562 51.601562 86.171875 52.171875 85.976562 52.675781 L 79.835938 68.667969 L 91.441406 68.667969 C 92.039062 68.667969 92.59375 68.992188 92.878906 69.519531 C 93.164062 70.042969 93.144531 70.679688 92.824219 71.1875 L 73.296875 101.792969 C 72.996094 102.265625 72.472656 102.546875 71.914062 102.546875 Z M 71.914062 102.546875 " fill-opacity="1" fill-rule="evenodd"/><path fill="#22396a" d="M 116.738281 90.429688 L 121.585938 90.429688 L 121.585938 80.5625 C 121.585938 79.652344 122.320312 78.925781 123.222656 78.925781 L 133.089844 78.925781 L 133.089844 74.074219 L 123.222656 74.074219 C 122.320312 74.074219 121.585938 73.34375 121.585938 72.4375 L 121.585938 62.566406 L 116.738281 62.566406 L 116.738281 72.4375 C 116.738281 73.34375 116.003906 74.074219 115.097656 74.074219 L 105.234375 74.074219 L 105.234375 78.925781 L 115.097656 78.925781 C 116.003906 78.925781 116.738281 79.652344 116.738281 80.5625 Z M 123.222656 93.703125 L 115.097656 93.703125 C 114.195312 93.703125 113.460938 92.96875 113.460938 92.066406 L 113.460938 82.199219 L 103.59375 82.199219 C 102.691406 82.199219 101.957031 81.464844 101.957031 80.5625 L 101.957031 72.4375 C 101.957031 71.535156 102.691406 70.800781 103.59375 70.800781 L 113.460938 70.800781 L 113.460938 60.929688 C 113.460938 60.027344 114.195312 59.292969 115.097656 59.292969 L 123.222656 59.292969 C 124.128906 59.292969 124.859375 60.027344 124.859375 60.929688 L 124.859375 70.800781 L 134.726562 70.800781 C 135.636719 70.800781 136.363281 71.535156 136.363281 72.4375 L 136.363281 80.5625 C 136.363281 81.464844 135.632812 82.199219 134.726562 82.199219 L 124.859375 82.199219 L 124.859375 92.066406 C 124.859375 92.96875 124.125 93.703125 123.222656 93.703125 Z M 123.222656 93.703125 " fill-opacity="1" fill-rule="evenodd"/><path fill="#22396a" d="M 17.003906 78.925781 L 44.859375 78.925781 L 44.859375 74.074219 L 17.003906 74.074219 Z M 46.5 82.199219 L 15.367188 82.199219 C 14.460938 82.199219 13.730469 81.464844 13.730469 80.5625 L 13.730469 72.4375 C 13.730469 71.535156 14.460938 70.800781 15.367188 70.800781 L 46.5 70.800781 C 47.402344 70.800781 48.136719 71.535156 48.136719 72.4375 L 48.136719 80.5625 C 48.136719 81.464844 47.402344 82.199219 46.5 82.199219 Z M 46.5 82.199219 " fill-opacity="1" fill-rule="evenodd"/><path fill="#22396a" d="M 144.410156 42.082031 L 5.683594 42.082031 C 4.777344 42.082031 4.046875 41.347656 4.046875 40.441406 C 4.046875 39.539062 4.777344 38.804688 5.683594 38.804688 L 144.410156 38.804688 C 145.316406 38.804688 146.046875 39.539062 146.046875 40.441406 C 146.046875 41.347656 145.316406 42.082031 144.410156 42.082031 Z M 144.410156 42.082031 " fill-opacity="1" fill-rule="evenodd"/><path fill="#22396a" d="M 144.410156 114.191406 L 5.683594 114.191406 C 4.777344 114.191406 4.046875 113.457031 4.046875 112.554688 C 4.046875 111.648438 4.777344 110.917969 5.683594 110.917969 L 144.410156 110.917969 C 145.316406 110.917969 146.046875 111.648438 146.046875 112.554688 C 146.046875 113.457031 145.316406 114.191406 144.410156 114.191406 Z M 144.410156 114.191406 " fill-opacity="1" fill-rule="evenodd"/><path fill="#22396a" d="M 60.839844 15.640625 C 59.933594 15.640625 59.199219 14.910156 59.199219 14 L 59.199219 5.144531 C 59.199219 4.242188 58.464844 3.507812 57.5625 3.507812 L 51.023438 3.507812 C 50.117188 3.507812 49.386719 4.242188 49.386719 5.144531 L 49.386719 14 C 49.386719 14.910156 48.652344 15.640625 47.746094 15.640625 C 46.839844 15.640625 46.109375 14.910156 46.109375 14 L 46.109375 5.144531 C 46.109375 2.4375 48.3125 0.230469 51.023438 0.230469 L 57.5625 0.230469 C 60.273438 0.230469 62.476562 2.4375 62.476562 5.144531 L 62.476562 14 C 62.476562 14.910156 61.742188 15.640625 60.839844 15.640625 Z M 60.839844 15.640625 " fill-opacity="1" fill-rule="evenodd"/><path fill="#22396a" d="M 81.59375 15.640625 C 80.6875 15.640625 79.953125 14.910156 79.953125 14 L 79.957031 5.144531 C 79.957031 4.242188 79.222656 3.507812 78.316406 3.507812 L 71.777344 3.507812 C 70.875 3.507812 70.140625 4.242188 70.140625 5.144531 L 70.140625 14 C 70.140625 14.910156 69.40625 15.640625 68.5 15.640625 C 67.597656 15.640625 66.863281 14.910156 66.863281 14 L 66.863281 5.144531 C 66.863281 2.4375 69.066406 0.230469 71.777344 0.230469 L 78.316406 0.230469 C 81.027344 0.230469 83.230469 2.4375 83.230469 5.144531 L 83.230469 14 C 83.230469 14.910156 82.496094 15.640625 81.59375 15.640625 Z M 81.59375 15.640625 " fill-opacity="1" fill-rule="evenodd"/><path fill="#22396a" d="M 102.347656 15.640625 C 101.441406 15.640625 100.707031 14.910156 100.707031 14 L 100.707031 5.144531 C 100.707031 4.242188 99.976562 3.507812 99.070312 3.507812 L 92.53125 3.507812 C 91.625 3.507812 90.894531 4.242188 90.894531 5.144531 L 90.894531 14 C 90.894531 14.910156 90.160156 15.640625 89.253906 15.640625 C 88.351562 15.640625 87.617188 14.910156 87.617188 14 L 87.617188 5.144531 C 87.617188 2.4375 89.820312 0.230469 92.53125 0.230469 L 99.070312 0.230469 C 101.78125 0.230469 103.984375 2.4375 103.984375 5.144531 L 103.984375 14 C 103.984375 14.910156 103.253906 15.640625 102.347656 15.640625 Z M 102.347656 15.640625 " fill-opacity="1" fill-rule="evenodd"/></svg>