<svg xmlns="http://www.w3.org/2000/svg" xmlns:xlink="http://www.w3.org/1999/xlink" zoomAndPan="magnify" preserveAspectRatio="xMidYMid meet" version="1.0" viewBox="0 0 150 132.92"><defs><clipPath id="0460ce2f95"><path d="M 0 0 L 150 0 L 150 132.75 L 0 132.75 Z M 0 0 " clip-rule="nonzero"/></clipPath></defs><g clip-path="url(#0460ce2f95)"><path fill="#22396a" d="M 147.917969 0.644531 L 131.042969 0.644531 C 130.628906 0.644531 130.214844 0.6875 129.808594 0.765625 C 129.402344 0.847656 129.007812 0.96875 128.621094 1.128906 C 128.238281 1.285156 127.875 1.480469 127.527344 1.710938 C 127.183594 1.945312 126.863281 2.207031 126.570312 2.5 C 126.277344 2.792969 126.015625 3.113281 125.785156 3.457031 C 125.554688 3.800781 125.359375 4.167969 125.199219 4.550781 C 125.039062 4.933594 124.921875 5.328125 124.839844 5.738281 C 124.757812 6.144531 124.714844 6.554688 124.714844 6.96875 L 124.714844 9.46875 L 118.867188 9.46875 L 91.527344 0.164062 C 91.066406 0.0078125 90.605469 0.0117188 90.148438 0.183594 L 39.074219 19.269531 C 37.121094 20 35.742188 22.082031 35.292969 24.980469 C 34.757812 28.410156 35.585938 33.207031 38.667969 35.636719 C 40.160156 36.808594 42.730469 37.875 46.507812 36.3125 L 67.445312 27.953125 C 67.382812 28.539062 67.382812 29.125 67.441406 29.710938 C 67.503906 30.296875 67.625 30.867188 67.804688 31.429688 C 67.988281 31.988281 68.226562 32.523438 68.519531 33.03125 C 68.8125 33.542969 69.15625 34.015625 69.550781 34.453125 C 69.945312 34.890625 70.378906 35.28125 70.855469 35.628906 C 71.332031 35.976562 71.835938 36.265625 72.375 36.507812 C 72.914062 36.746094 73.46875 36.925781 74.046875 37.050781 C 74.621094 37.171875 75.203125 37.230469 75.792969 37.230469 L 89.390625 37.230469 L 103.550781 45.800781 C 105.496094 46.988281 107.609375 47.574219 109.890625 47.558594 L 124.714844 47.558594 L 124.714844 50.09375 C 124.714844 50.507812 124.757812 50.917969 124.839844 51.324219 C 124.921875 51.734375 125.039062 52.128906 125.199219 52.511719 C 125.359375 52.894531 125.554688 53.261719 125.785156 53.605469 C 126.015625 53.949219 126.277344 54.269531 126.570312 54.5625 C 126.863281 54.855469 127.183594 55.121094 127.527344 55.351562 C 127.875 55.582031 128.238281 55.777344 128.621094 55.933594 C 129.007812 56.09375 129.402344 56.214844 129.808594 56.296875 C 130.214844 56.378906 130.628906 56.417969 131.042969 56.417969 L 147.921875 56.417969 C 148.191406 56.417969 148.453125 56.367188 148.703125 56.261719 C 148.957031 56.160156 149.175781 56.011719 149.371094 55.816406 C 149.5625 55.625 149.710938 55.402344 149.8125 55.152344 C 149.917969 54.902344 149.96875 54.640625 149.96875 54.367188 L 149.96875 2.695312 C 149.96875 2.421875 149.917969 2.160156 149.8125 1.910156 C 149.710938 1.660156 149.5625 1.4375 149.371094 1.246094 C 149.175781 1.050781 148.957031 0.902344 148.703125 0.800781 C 148.453125 0.695312 148.191406 0.644531 147.917969 0.644531 Z M 109.980469 43.457031 C 108.429688 43.492188 106.996094 43.105469 105.675781 42.292969 L 91.023438 33.425781 C 90.699219 33.226562 90.34375 33.128906 89.960938 33.128906 L 75.789062 33.128906 C 75.507812 33.128906 75.230469 33.101562 74.953125 33.046875 C 74.675781 32.992188 74.410156 32.910156 74.148438 32.800781 C 73.890625 32.695312 73.640625 32.5625 73.40625 32.40625 C 73.171875 32.25 72.957031 32.070312 72.757812 31.871094 C 72.558594 31.671875 72.378906 31.457031 72.222656 31.222656 C 72.066406 30.988281 71.933594 30.738281 71.828125 30.480469 C 71.71875 30.21875 71.636719 29.949219 71.582031 29.675781 C 71.527344 29.398438 71.5 29.121094 71.5 28.835938 C 71.5 28.074219 71.691406 27.363281 72.078125 26.703125 C 72.089844 26.683594 72.101562 26.664062 72.113281 26.644531 C 72.257812 26.402344 72.425781 26.179688 72.617188 25.96875 C 72.628906 25.953125 72.644531 25.9375 72.660156 25.921875 C 72.757812 25.820312 72.859375 25.71875 72.964844 25.625 L 72.96875 25.621094 C 73.777344 24.914062 74.71875 24.558594 75.792969 24.554688 L 97.617188 24.554688 C 97.890625 24.554688 98.148438 24.503906 98.402344 24.398438 C 98.652344 24.296875 98.875 24.148438 99.066406 23.953125 C 99.257812 23.761719 99.40625 23.539062 99.511719 23.289062 C 99.613281 23.039062 99.667969 22.777344 99.667969 22.503906 C 99.667969 22.234375 99.613281 21.972656 99.511719 21.71875 C 99.40625 21.46875 99.257812 21.246094 99.066406 21.054688 C 98.875 20.863281 98.652344 20.714844 98.402344 20.609375 C 98.148438 20.507812 97.890625 20.453125 97.617188 20.453125 L 75.789062 20.453125 C 73.835938 20.460938 72.097656 21.070312 70.570312 22.292969 L 44.960938 32.515625 C 42.585938 33.5 41.546875 32.683594 41.203125 32.414062 C 39.746094 31.265625 38.929688 28.277344 39.34375 25.613281 C 39.59375 24.003906 40.179688 23.238281 40.511719 23.113281 L 90.898438 4.28125 L 117.867188 13.460938 C 118.082031 13.535156 118.304688 13.570312 118.53125 13.570312 L 124.714844 13.570312 L 124.714844 43.457031 Z M 145.867188 52.316406 L 131.042969 52.316406 C 130.746094 52.316406 130.464844 52.257812 130.191406 52.144531 C 129.917969 52.03125 129.675781 51.871094 129.46875 51.664062 C 129.261719 51.453125 129.097656 51.214844 128.984375 50.941406 C 128.875 50.667969 128.816406 50.386719 128.816406 50.089844 L 128.816406 6.96875 C 128.816406 6.675781 128.875 6.390625 128.984375 6.117188 C 129.097656 5.847656 129.261719 5.605469 129.46875 5.398438 C 129.675781 5.1875 129.917969 5.027344 130.191406 4.914062 C 130.464844 4.800781 130.746094 4.746094 131.042969 4.746094 L 145.871094 4.746094 Z M 75.707031 82.75 C 75.4375 82.75 75.175781 82.699219 74.921875 82.59375 C 74.671875 82.492188 74.449219 82.34375 74.257812 82.152344 C 74.066406 81.957031 73.917969 81.738281 73.8125 81.484375 C 73.710938 81.234375 73.65625 80.972656 73.65625 80.699219 L 73.65625 78.066406 C 71.089844 77.652344 68.34375 76.597656 65.59375 74.925781 C 65.359375 74.78125 65.164062 74.601562 65.003906 74.382812 C 64.84375 74.164062 64.730469 73.921875 64.664062 73.65625 C 64.601562 73.394531 64.589844 73.125 64.628906 72.859375 C 64.671875 72.589844 64.761719 72.339844 64.90625 72.105469 C 65.046875 71.871094 65.226562 71.675781 65.445312 71.515625 C 65.664062 71.355469 65.90625 71.242188 66.171875 71.179688 C 66.4375 71.113281 66.703125 71.101562 66.972656 71.144531 C 67.242188 71.1875 67.492188 71.277344 67.722656 71.417969 C 71.054688 73.445312 73.695312 74.09375 75.640625 74.164062 C 75.664062 74.164062 75.683594 74.160156 75.707031 74.160156 C 75.757812 74.160156 75.808594 74.164062 75.859375 74.167969 C 77.015625 74.210938 78.125 73.996094 79.183594 73.527344 C 80.542969 72.886719 81.128906 71.949219 81.226562 71.285156 C 81.40625 70.023438 81.027344 69.511719 76.058594 68.742188 C 72.519531 68.195312 68.507812 67.578125 66.785156 64.273438 C 65.585938 61.976562 66.113281 59.226562 68.121094 57.257812 C 69.347656 56.058594 71.242188 55.074219 73.65625 54.78125 L 73.65625 52.265625 C 73.65625 51.996094 73.707031 51.734375 73.8125 51.484375 C 73.917969 51.230469 74.066406 51.007812 74.257812 50.816406 C 74.449219 50.625 74.671875 50.476562 74.921875 50.371094 C 75.171875 50.269531 75.433594 50.21875 75.707031 50.21875 C 75.976562 50.21875 76.238281 50.269531 76.492188 50.371094 C 76.742188 50.476562 76.964844 50.625 77.15625 50.816406 C 77.347656 51.007812 77.496094 51.230469 77.601562 51.484375 C 77.703125 51.734375 77.757812 51.996094 77.757812 52.265625 L 77.757812 54.9375 C 79.855469 55.347656 81.839844 56.082031 83.703125 57.136719 C 83.941406 57.269531 84.144531 57.4375 84.316406 57.652344 C 84.484375 57.863281 84.609375 58.101562 84.683594 58.363281 C 84.761719 58.621094 84.785156 58.890625 84.753906 59.160156 C 84.726562 59.429688 84.644531 59.683594 84.511719 59.921875 C 84.382812 60.160156 84.210938 60.367188 83.996094 60.535156 C 83.785156 60.707031 83.546875 60.828125 83.289062 60.90625 C 83.027344 60.980469 82.761719 61.003906 82.488281 60.972656 C 82.21875 60.941406 81.964844 60.863281 81.726562 60.730469 C 76.734375 57.984375 72.734375 58.480469 70.988281 60.191406 C 70.648438 60.523438 69.910156 61.402344 70.417969 62.378906 C 71.183594 63.84375 74.105469 64.292969 76.683594 64.691406 C 78.695312 65.003906 80.78125 65.324219 82.386719 66.15625 C 84.621094 67.308594 85.648438 69.339844 85.285156 71.871094 C 84.964844 74.097656 83.335938 76.105469 80.933594 77.238281 C 79.921875 77.710938 78.863281 78.015625 77.757812 78.15625 L 77.757812 80.703125 C 77.757812 80.976562 77.707031 81.234375 77.601562 81.488281 C 77.496094 81.738281 77.347656 81.960938 77.15625 82.152344 C 76.964844 82.34375 76.742188 82.492188 76.492188 82.59375 C 76.242188 82.699219 75.980469 82.75 75.707031 82.75 Z M 99.292969 66.480469 C 99.292969 65.683594 99.253906 64.890625 99.175781 64.097656 C 99.097656 63.304688 98.980469 62.515625 98.828125 61.734375 C 98.671875 60.957031 98.476562 60.183594 98.246094 59.421875 C 98.015625 58.660156 97.746094 57.910156 97.441406 57.175781 C 97.136719 56.441406 96.796875 55.722656 96.421875 55.019531 C 96.046875 54.316406 95.636719 53.636719 95.195312 52.972656 C 94.753906 52.3125 94.277344 51.671875 93.773438 51.058594 C 93.269531 50.441406 92.734375 49.851562 92.171875 49.289062 C 91.605469 48.726562 91.019531 48.191406 90.402344 47.6875 C 89.785156 47.183594 89.148438 46.707031 88.484375 46.265625 C 87.824219 45.824219 87.140625 45.414062 86.4375 45.039062 C 85.738281 44.664062 85.019531 44.324219 84.28125 44.019531 C 83.546875 43.714844 82.796875 43.449219 82.035156 43.21875 C 81.273438 42.984375 80.5 42.792969 79.722656 42.636719 C 78.941406 42.480469 78.152344 42.367188 77.359375 42.289062 C 76.566406 42.210938 75.773438 42.171875 74.976562 42.171875 C 74.179688 42.171875 73.386719 42.210938 72.59375 42.289062 C 71.800781 42.367188 71.015625 42.484375 70.234375 42.640625 C 69.453125 42.792969 68.683594 42.988281 67.921875 43.21875 C 67.160156 43.449219 66.410156 43.71875 65.675781 44.023438 C 64.9375 44.328125 64.21875 44.667969 63.515625 45.042969 C 62.816406 45.417969 62.132812 45.828125 61.472656 46.269531 C 60.808594 46.714844 60.171875 47.1875 59.554688 47.691406 C 58.941406 48.199219 58.351562 48.730469 57.789062 49.296875 C 57.226562 49.859375 56.691406 50.449219 56.1875 51.0625 C 55.679688 51.679688 55.207031 52.316406 54.765625 52.980469 C 54.324219 53.640625 53.914062 54.324219 53.539062 55.027344 C 53.164062 55.730469 52.824219 56.449219 52.519531 57.183594 C 52.214844 57.917969 51.945312 58.667969 51.714844 59.429688 C 51.484375 60.191406 51.292969 60.964844 51.136719 61.746094 C 50.980469 62.523438 50.863281 63.3125 50.785156 64.105469 C 50.707031 64.898438 50.667969 65.691406 50.667969 66.488281 C 50.667969 67.285156 50.707031 68.078125 50.785156 68.871094 C 50.863281 69.664062 50.980469 70.449219 51.136719 71.230469 C 51.292969 72.011719 51.484375 72.78125 51.71875 73.542969 C 51.949219 74.308594 52.214844 75.054688 52.523438 75.792969 C 52.828125 76.527344 53.167969 77.246094 53.542969 77.949219 C 53.917969 78.648438 54.328125 79.332031 54.769531 79.992188 C 55.210938 80.65625 55.683594 81.292969 56.191406 81.910156 C 56.695312 82.527344 57.230469 83.113281 57.792969 83.679688 C 58.355469 84.242188 58.945312 84.773438 59.5625 85.28125 C 60.175781 85.785156 60.816406 86.257812 61.476562 86.699219 C 62.140625 87.144531 62.820312 87.550781 63.523438 87.925781 C 64.226562 88.300781 64.945312 88.640625 65.679688 88.945312 C 66.417969 89.25 67.164062 89.519531 67.925781 89.75 C 68.691406 89.980469 69.460938 90.175781 70.242188 90.328125 C 71.023438 90.484375 71.808594 90.601562 72.601562 90.679688 C 73.394531 90.757812 74.1875 90.796875 74.984375 90.796875 C 75.78125 90.796875 76.574219 90.753906 77.367188 90.675781 C 78.160156 90.597656 78.945312 90.480469 79.726562 90.324219 C 80.507812 90.167969 81.277344 89.972656 82.039062 89.742188 C 82.800781 89.511719 83.550781 89.242188 84.285156 88.9375 C 85.019531 88.632812 85.738281 88.292969 86.441406 87.917969 C 87.144531 87.539062 87.824219 87.132812 88.488281 86.6875 C 89.148438 86.246094 89.785156 85.773438 90.402344 85.269531 C 91.015625 84.761719 91.605469 84.226562 92.167969 83.664062 C 92.730469 83.101562 93.265625 82.511719 93.769531 81.898438 C 94.277344 81.28125 94.75 80.644531 95.191406 79.980469 C 95.632812 79.320312 96.042969 78.636719 96.417969 77.9375 C 96.792969 77.234375 97.132812 76.515625 97.4375 75.78125 C 97.742188 75.042969 98.011719 74.296875 98.242188 73.535156 C 98.476562 72.773438 98.667969 72 98.824219 71.222656 C 98.980469 70.441406 99.097656 69.652344 99.175781 68.863281 C 99.253906 68.070312 99.292969 67.273438 99.292969 66.480469 Z M 54.769531 66.480469 C 54.769531 65.816406 54.804688 65.15625 54.867188 64.5 C 54.933594 63.839844 55.03125 63.1875 55.160156 62.535156 C 55.289062 61.886719 55.449219 61.246094 55.640625 60.613281 C 55.832031 59.980469 56.058594 59.355469 56.308594 58.746094 C 56.5625 58.132812 56.847656 57.535156 57.160156 56.953125 C 57.46875 56.367188 57.808594 55.800781 58.179688 55.25 C 58.546875 54.703125 58.941406 54.171875 59.359375 53.660156 C 59.78125 53.148438 60.222656 52.65625 60.691406 52.191406 C 61.160156 51.722656 61.648438 51.277344 62.160156 50.859375 C 62.671875 50.4375 63.203125 50.042969 63.753906 49.675781 C 64.304688 49.308594 64.871094 48.96875 65.457031 48.65625 C 66.039062 48.34375 66.636719 48.0625 67.25 47.808594 C 67.859375 47.554688 68.484375 47.332031 69.117188 47.140625 C 69.75 46.949219 70.390625 46.789062 71.039062 46.660156 C 71.691406 46.53125 72.34375 46.433594 73.003906 46.367188 C 73.660156 46.304688 74.320312 46.273438 74.984375 46.273438 C 75.644531 46.273438 76.304688 46.304688 76.964844 46.371094 C 77.621094 46.433594 78.277344 46.53125 78.925781 46.660156 C 79.574219 46.789062 80.214844 46.949219 80.851562 47.140625 C 81.484375 47.335938 82.105469 47.558594 82.71875 47.8125 C 83.328125 48.0625 83.925781 48.347656 84.511719 48.660156 C 85.09375 48.972656 85.660156 49.3125 86.210938 49.679688 C 86.761719 50.046875 87.292969 50.441406 87.804688 50.859375 C 88.316406 51.28125 88.804688 51.722656 89.273438 52.191406 C 89.742188 52.660156 90.1875 53.148438 90.605469 53.660156 C 91.027344 54.171875 91.417969 54.703125 91.785156 55.253906 C 92.15625 55.804688 92.496094 56.371094 92.808594 56.957031 C 93.117188 57.539062 93.402344 58.136719 93.65625 58.75 C 93.90625 59.359375 94.128906 59.980469 94.324219 60.617188 C 94.515625 61.25 94.675781 61.890625 94.804688 62.539062 C 94.933594 63.1875 95.03125 63.84375 95.097656 64.5 C 95.160156 65.160156 95.191406 65.820312 95.195312 66.480469 C 95.195312 67.144531 95.160156 67.804688 95.097656 68.464844 C 95.03125 69.121094 94.933594 69.777344 94.804688 70.425781 C 94.675781 71.074219 94.515625 71.714844 94.324219 72.347656 C 94.132812 72.984375 93.910156 73.605469 93.65625 74.214844 C 93.402344 74.828125 93.121094 75.425781 92.808594 76.007812 C 92.496094 76.59375 92.15625 77.160156 91.789062 77.710938 C 91.421875 78.261719 91.027344 78.792969 90.605469 79.304688 C 90.1875 79.816406 89.742188 80.304688 89.273438 80.773438 C 88.808594 81.242188 88.316406 81.6875 87.804688 82.105469 C 87.292969 82.527344 86.761719 82.917969 86.214844 83.289062 C 85.664062 83.65625 85.09375 83.996094 84.511719 84.308594 C 83.929688 84.621094 83.332031 84.902344 82.71875 85.15625 C 82.109375 85.410156 81.484375 85.632812 80.851562 85.824219 C 80.21875 86.015625 79.578125 86.175781 78.929688 86.304688 C 78.277344 86.433594 77.625 86.53125 76.964844 86.597656 C 76.308594 86.664062 75.648438 86.695312 74.984375 86.695312 C 74.324219 86.695312 73.664062 86.660156 73.003906 86.597656 C 72.347656 86.53125 71.691406 86.433594 71.042969 86.304688 C 70.394531 86.171875 69.753906 86.011719 69.121094 85.820312 C 68.484375 85.628906 67.863281 85.40625 67.253906 85.152344 C 66.640625 84.898438 66.042969 84.613281 65.460938 84.300781 C 64.875 83.988281 64.308594 83.648438 63.757812 83.28125 C 63.207031 82.914062 62.675781 82.519531 62.164062 82.101562 C 61.652344 81.679688 61.164062 81.238281 60.695312 80.769531 C 60.226562 80.300781 59.785156 79.808594 59.363281 79.300781 C 58.945312 78.789062 58.550781 78.257812 58.183594 77.707031 C 57.816406 77.15625 57.472656 76.589844 57.164062 76.003906 C 56.851562 75.421875 56.566406 74.824219 56.3125 74.210938 C 56.058594 73.601562 55.835938 72.980469 55.644531 72.34375 C 55.453125 71.710938 55.289062 71.070312 55.160156 70.421875 C 55.03125 69.773438 54.933594 69.117188 54.867188 68.460938 C 54.804688 67.800781 54.769531 67.140625 54.769531 66.480469 Z M 111.304688 97.332031 C 109.8125 96.160156 107.238281 95.09375 103.464844 96.652344 L 82.527344 105.015625 C 82.558594 104.722656 82.574219 104.425781 82.574219 104.128906 C 82.574219 103.578125 82.519531 103.03125 82.410156 102.492188 C 82.304688 101.953125 82.144531 101.429688 81.933594 100.917969 C 81.722656 100.410156 81.464844 99.929688 81.160156 99.46875 C 80.851562 99.011719 80.503906 98.589844 80.117188 98.199219 C 79.726562 97.808594 79.304688 97.460938 78.847656 97.15625 C 78.386719 96.847656 77.90625 96.589844 77.398438 96.378906 C 76.886719 96.167969 76.363281 96.007812 75.824219 95.898438 C 75.285156 95.792969 74.738281 95.738281 74.1875 95.734375 L 60.582031 95.734375 L 46.425781 87.164062 C 44.441406 85.960938 42.292969 85.375 39.976562 85.40625 L 25.253906 85.40625 L 25.253906 82.875 C 25.253906 82.460938 25.214844 82.050781 25.132812 81.640625 C 25.050781 81.234375 24.929688 80.839844 24.769531 80.457031 C 24.613281 80.074219 24.417969 79.707031 24.1875 79.363281 C 23.957031 79.019531 23.691406 78.699219 23.398438 78.40625 C 23.105469 78.109375 22.785156 77.847656 22.441406 77.617188 C 22.097656 77.386719 21.730469 77.191406 21.347656 77.03125 C 20.964844 76.875 20.570312 76.753906 20.164062 76.671875 C 19.753906 76.589844 19.34375 76.550781 18.929688 76.550781 L 2.050781 76.550781 C 1.78125 76.550781 1.519531 76.601562 1.265625 76.707031 C 1.015625 76.808594 0.792969 76.957031 0.601562 77.148438 C 0.410156 77.34375 0.261719 77.5625 0.15625 77.816406 C 0.0546875 78.066406 0 78.328125 0 78.601562 L 0 130.273438 C 0 130.542969 0.0546875 130.804688 0.15625 131.058594 C 0.261719 131.308594 0.410156 131.53125 0.601562 131.722656 C 0.792969 131.914062 1.015625 132.0625 1.265625 132.167969 C 1.519531 132.269531 1.78125 132.324219 2.050781 132.324219 L 18.929688 132.324219 C 19.34375 132.320312 19.753906 132.28125 20.164062 132.199219 C 20.570312 132.117188 20.964844 132 21.347656 131.839844 C 21.730469 131.679688 22.097656 131.484375 22.441406 131.253906 C 22.785156 131.023438 23.105469 130.761719 23.398438 130.46875 C 23.691406 130.175781 23.957031 129.855469 24.1875 129.507812 C 24.417969 129.164062 24.613281 128.800781 24.769531 128.417969 C 24.929688 128.03125 25.050781 127.636719 25.132812 127.230469 C 25.214844 126.824219 25.253906 126.410156 25.253906 125.996094 L 25.253906 123.496094 L 31.101562 123.496094 L 58.441406 132.800781 C 58.902344 132.960938 59.363281 132.953125 59.820312 132.78125 L 110.902344 113.695312 C 112.855469 112.96875 114.234375 110.886719 114.683594 107.992188 C 115.21875 104.5625 114.390625 99.761719 111.304688 97.332031 Z M 21.15625 125.996094 C 21.152344 126.292969 21.097656 126.574219 20.984375 126.847656 C 20.871094 127.121094 20.710938 127.359375 20.5 127.570312 C 20.292969 127.777344 20.050781 127.9375 19.78125 128.050781 C 19.507812 128.164062 19.222656 128.222656 18.929688 128.222656 L 4.101562 128.222656 L 4.101562 80.652344 L 18.929688 80.652344 C 19.222656 80.652344 19.507812 80.707031 19.78125 80.820312 C 20.050781 80.933594 20.292969 81.09375 20.5 81.304688 C 20.710938 81.511719 20.871094 81.753906 20.984375 82.023438 C 21.097656 82.296875 21.152344 82.582031 21.15625 82.875 Z M 110.632812 107.363281 C 110.382812 108.964844 109.800781 109.730469 109.46875 109.855469 L 59.070312 128.683594 L 32.101562 119.503906 C 31.886719 119.433594 31.667969 119.398438 31.441406 119.398438 L 25.253906 119.398438 L 25.253906 89.507812 L 39.992188 89.507812 C 41.539062 89.476562 42.976562 89.863281 44.300781 90.675781 L 58.945312 99.539062 C 59.269531 99.738281 59.625 99.835938 60.007812 99.835938 L 74.1875 99.835938 C 74.953125 99.835938 75.664062 100.027344 76.328125 100.410156 C 76.992188 100.792969 77.515625 101.316406 77.898438 101.976562 C 78.28125 102.640625 78.46875 103.355469 78.46875 104.121094 C 78.46875 104.886719 78.277344 105.601562 77.894531 106.261719 C 77.882812 106.28125 77.871094 106.304688 77.859375 106.324219 C 77.710938 106.566406 77.542969 106.792969 77.355469 107.003906 C 77.339844 107.019531 77.324219 107.035156 77.308594 107.050781 C 77.21875 107.148438 77.121094 107.242188 77.019531 107.332031 C 76.210938 108.050781 75.265625 108.410156 74.1875 108.414062 L 52.363281 108.414062 C 52.089844 108.414062 51.828125 108.464844 51.578125 108.570312 C 51.328125 108.671875 51.105469 108.820312 50.914062 109.011719 C 50.71875 109.207031 50.570312 109.425781 50.46875 109.679688 C 50.363281 109.929688 50.3125 110.191406 50.3125 110.460938 C 50.3125 110.734375 50.363281 110.996094 50.46875 111.246094 C 50.570312 111.5 50.71875 111.71875 50.914062 111.914062 C 51.105469 112.105469 51.328125 112.253906 51.578125 112.355469 C 51.828125 112.460938 52.089844 112.511719 52.363281 112.511719 L 74.1875 112.511719 C 76.144531 112.511719 77.882812 111.898438 79.410156 110.675781 L 105.007812 100.453125 C 107.386719 99.46875 108.425781 100.285156 108.769531 100.554688 C 110.230469 101.707031 111.046875 104.695312 110.632812 107.363281 Z M 110.632812 107.363281 " fill-opacity="1" fill-rule="nonzero"/></g></svg>