<svg xmlns="http://www.w3.org/2000/svg" xmlns:xlink="http://www.w3.org/1999/xlink" zoomAndPan="magnify" preserveAspectRatio="xMidYMid meet" version="1.0" viewBox="2.84 1.86 147.12 138.75"><defs><clipPath id="e6c02a61da"><path d="M 54.140625 107.046875 L 84 107.046875 L 84 140.613281 L 54.140625 140.613281 Z M 54.140625 107.046875 " clip-rule="nonzero"/></clipPath><clipPath id="47c946f169"><path d="M 106.832031 68.421875 L 149.953125 68.421875 L 149.953125 132.207031 L 106.832031 132.207031 Z M 106.832031 68.421875 " clip-rule="nonzero"/></clipPath></defs><path fill="#22396a" d="M 87.25 9.453125 L 103.589844 37.75 C 105.878906 41.722656 104.519531 46.800781 100.546875 49.09375 C 96.535156 51.414062 91.398438 49.996094 89.140625 45.945312 L 77.839844 25.648438 L 87.25 9.453125 " fill-opacity="1" fill-rule="nonzero"/><path fill="#22396a" d="M 86.078125 7.460938 L 54.195312 62.59375 L 39.703125 54.226562 L 66.707031 7.453125 C 71.011719 -0.0078125 81.777344 0 86.078125 7.460938 " fill-opacity="1" fill-rule="nonzero"/><path fill="#22396a" d="M 37.917969 41.195312 L 37.921875 70.179688 C 37.921875 72.304688 39.425781 73.175781 41.269531 72.113281 L 66.371094 57.621094 C 68.210938 56.558594 68.210938 54.820312 66.371094 53.757812 L 41.265625 39.261719 C 39.425781 38.199219 37.917969 39.070312 37.917969 41.195312 " fill-opacity="1" fill-rule="nonzero"/><path fill="#22396a" d="M 5.5 113.433594 L 21.847656 85.144531 C 24.144531 81.175781 29.222656 79.816406 33.191406 82.109375 C 37.207031 84.429688 38.542969 89.589844 36.160156 93.566406 L 24.226562 113.496094 L 5.5 113.433594 " fill-opacity="1" fill-rule="nonzero"/><path fill="#22396a" d="M 4.359375 115.449219 L 68.046875 115.519531 L 68.039062 132.257812 L 14.027344 132.234375 C 5.414062 132.230469 0.0429688 122.898438 4.359375 115.449219 " fill-opacity="1" fill-rule="nonzero"/><g clip-path="url(#e6c02a61da)"><path fill="#22396a" d="M 57.640625 140.3125 L 82.75 125.828125 C 84.234375 124.96875 84.238281 122.820312 82.75 121.960938 L 57.65625 107.457031 C 56.167969 106.597656 54.308594 107.667969 54.304688 109.386719 L 54.292969 138.378906 C 54.292969 140.09375 56.152344 141.167969 57.640625 140.3125 " fill-opacity="1" fill-rule="nonzero"/></g><path fill="#22396a" d="M 136.425781 132.1875 L 103.75 132.171875 C 99.164062 132.167969 95.449219 128.449219 95.449219 123.863281 C 95.453125 119.226562 99.25 115.488281 103.886719 115.5625 L 127.113281 115.9375 L 136.425781 132.1875 " fill-opacity="1" fill-rule="nonzero"/><g clip-path="url(#47c946f169)"><path fill="#22396a" d="M 138.738281 132.171875 L 106.960938 76.976562 L 121.460938 68.617188 L 148.441406 115.40625 C 152.742188 122.867188 147.347656 132.183594 138.738281 132.171875 " fill-opacity="1" fill-rule="nonzero"/></g><path fill="#22396a" d="M 133.636719 73.59375 L 108.539062 59.089844 C 107.054688 58.230469 105.191406 59.300781 105.191406 61.019531 L 105.171875 90.003906 C 105.171875 91.722656 107.03125 92.796875 108.519531 91.941406 L 133.632812 77.460938 C 135.121094 76.601562 135.125 74.453125 133.636719 73.59375 " fill-opacity="1" fill-rule="nonzero"/></svg>