<svg viewBox="-4.200000000000003 -3.3000000000000043 97.2 96.3" version="1.0" preserveAspectRatio="xMidYMid meet" zoomAndPan="magnify" xmlns:xlink="http://www.w3.org/1999/xlink" xmlns="http://www.w3.org/2000/svg" style="max-height: 500px" width="97.2" height="96.3"><defs><clipPath id="759ed64b33"><path clip-rule="nonzero" d="M 0 0 L 86 0 L 86 85.5 L 0 85.5 Z M 0 0"/></clipPath></defs><rect fill-opacity="1" height="449.999989" y="-37.499999" fill="#ffffff" width="450" x="-37.5"/><rect fill-opacity="1" height="449.999989" y="-37.499999" fill="#ffffff" width="450" x="-37.5"/><g clip-path="url(#759ed64b33)"><path fill-rule="nonzero" fill-opacity="1" d="M 31.140625 27.164062 L 35.007812 27.164062 C 35.445312 28.949219 36.148438 30.640625 37.101562 32.214844 L 34.367188 34.949219 C 33.949219 35.367188 33.949219 36.042969 34.367188 36.460938 L 39.097656 41.1875 C 39.296875 41.390625 39.566406 41.503906 39.851562 41.503906 C 40.132812 41.503906 40.40625 41.390625 40.605469 41.1875 L 43.339844 38.453125 C 44.914062 39.40625 46.609375 40.109375 48.394531 40.546875 L 48.394531 44.414062 C 48.394531 45.003906 48.871094 45.484375 49.460938 45.484375 L 56.148438 45.484375 C 56.738281 45.484375 57.21875 45.003906 57.21875 44.414062 L 57.21875 40.546875 C 58.777344 40.164062 60.273438 39.578125 61.679688 38.796875 L 65.9375 43.5625 C 66.140625 43.785156 66.425781 43.917969 66.730469 43.917969 C 67.035156 43.917969 67.324219 43.785156 67.527344 43.5625 L 74.121094 36.183594 C 74.402344 35.871094 74.472656 35.421875 74.300781 35.035156 C 74.128906 34.652344 73.746094 34.40625 73.324219 34.40625 L 70.945312 34.40625 L 70.945312 27.160156 L 74.46875 27.160156 C 75.058594 27.160156 75.539062 26.679688 75.539062 26.09375 L 75.539062 19.402344 C 75.539062 18.8125 75.058594 18.335938 74.46875 18.335938 L 70.601562 18.335938 C 70.164062 16.550781 69.460938 14.855469 68.507812 13.28125 L 71.242188 10.546875 C 71.660156 10.132812 71.660156 9.453125 71.242188 9.039062 L 66.511719 4.308594 C 66.3125 4.105469 66.042969 3.996094 65.757812 3.996094 C 65.476562 3.996094 65.203125 4.105469 65.003906 4.308594 L 62.269531 7.042969 C 60.691406 6.089844 59 5.390625 57.214844 4.949219 L 57.214844 1.082031 C 57.214844 0.492188 56.738281 0.015625 56.148438 0.015625 L 49.460938 0.015625 C 48.871094 0.015625 48.390625 0.492188 48.390625 1.082031 L 48.390625 4.949219 C 46.605469 5.390625 44.914062 6.089844 43.339844 7.042969 L 40.605469 4.308594 C 40.402344 4.105469 40.132812 3.996094 39.847656 3.996094 C 39.566406 3.996094 39.292969 4.105469 39.09375 4.308594 L 34.363281 9.039062 C 33.949219 9.453125 33.949219 10.132812 34.363281 10.546875 L 37.097656 13.28125 C 36.144531 14.859375 35.445312 16.550781 35.003906 18.335938 L 31.136719 18.335938 C 30.546875 18.335938 30.070312 18.8125 30.070312 19.402344 L 30.070312 26.09375 C 30.070312 26.683594 30.546875 27.164062 31.140625 27.164062 Z M 66.734375 41.246094 L 62.527344 36.539062 L 63.589844 36.539062 C 64.175781 36.539062 64.65625 36.0625 64.65625 35.472656 L 64.65625 26.589844 L 68.808594 26.589844 L 68.808594 35.472656 C 68.808594 36.0625 69.289062 36.539062 69.878906 36.539062 L 70.9375 36.539062 Z M 32.207031 20.472656 L 35.863281 20.472656 C 36.375 20.472656 36.8125 20.109375 36.910156 19.609375 C 37.328125 17.5 38.144531 15.519531 39.347656 13.730469 C 39.632812 13.304688 39.578125 12.738281 39.21875 12.378906 L 36.632812 9.792969 L 39.851562 6.574219 L 42.4375 9.160156 C 42.796875 9.519531 43.363281 9.574219 43.789062 9.292969 C 45.578125 8.089844 47.554688 7.269531 49.667969 6.855469 C 50.167969 6.757812 50.53125 6.316406 50.53125 5.804688 L 50.53125 2.148438 L 55.082031 2.148438 L 55.082031 5.804688 C 55.082031 6.316406 55.441406 6.753906 55.941406 6.855469 C 58.054688 7.269531 60.035156 8.085938 61.824219 9.292969 C 62.246094 9.574219 62.8125 9.519531 63.175781 9.160156 L 65.761719 6.574219 L 68.980469 9.792969 L 66.394531 12.378906 C 66.03125 12.738281 65.976562 13.304688 66.261719 13.730469 C 67.464844 15.519531 68.285156 17.5 68.699219 19.609375 C 68.796875 20.109375 69.238281 20.472656 69.746094 20.472656 L 73.402344 20.472656 L 73.402344 25.023438 L 70.824219 25.023438 C 70.644531 24.6875 70.289062 24.453125 69.878906 24.453125 L 63.589844 24.453125 C 63 24.453125 62.519531 24.933594 62.519531 25.523438 L 62.519531 34.40625 L 60.140625 34.40625 C 59.71875 34.40625 59.335938 34.652344 59.164062 35.035156 C 58.992188 35.421875 59.0625 35.871094 59.34375 36.183594 L 60.207031 37.15625 C 58.863281 37.847656 57.433594 38.351562 55.941406 38.644531 C 55.441406 38.742188 55.078125 39.179688 55.078125 39.691406 L 55.078125 43.347656 L 50.527344 43.347656 L 50.527344 39.691406 C 50.527344 39.179688 50.167969 38.742188 49.664062 38.644531 C 47.554688 38.230469 45.578125 37.410156 43.785156 36.207031 C 43.363281 35.921875 42.796875 35.976562 42.433594 36.339844 L 39.847656 38.921875 L 36.628906 35.703125 L 39.214844 33.121094 C 39.578125 32.757812 39.632812 32.191406 39.347656 31.769531 C 38.144531 29.980469 37.324219 28 36.910156 25.886719 C 36.8125 25.386719 36.371094 25.027344 35.859375 25.027344 L 32.207031 25.027344 Z M 52.804688 30.863281 C 57.28125 30.863281 60.921875 27.222656 60.921875 22.75 C 60.921875 18.273438 57.28125 14.632812 52.804688 14.632812 C 48.332031 14.632812 44.691406 18.273438 44.691406 22.75 C 44.691406 27.222656 48.332031 30.863281 52.804688 30.863281 Z M 52.804688 16.769531 C 56.101562 16.769531 58.785156 19.453125 58.785156 22.75 C 58.785156 26.046875 56.105469 28.726562 52.804688 28.726562 C 49.507812 28.726562 46.828125 26.046875 46.828125 22.75 C 46.828125 19.453125 49.507812 16.769531 52.804688 16.769531 Z M 85.691406 54.554688 L 84.984375 53.335938 C 82.910156 49.742188 78.3125 48.503906 74.734375 50.570312 L 58.703125 59.824219 C 58.960938 57.976562 58.53125 56.121094 57.46875 54.5625 C 56.335938 52.90625 54.632812 51.789062 52.667969 51.417969 L 33.785156 47.851562 C 31.160156 47.355469 28.757812 47.765625 26.445312 49.101562 L 17.035156 54.535156 L 16.929688 54.355469 C 16.523438 53.648438 15.867188 53.144531 15.074219 52.933594 C 14.289062 52.722656 13.464844 52.832031 12.757812 53.238281 L 8.355469 55.777344 C 7.648438 56.183594 7.144531 56.84375 6.933594 57.632812 C 6.871094 57.871094 6.839844 58.113281 6.832031 58.351562 L 0.695312 61.894531 C 0.183594 62.191406 0.0078125 62.84375 0.300781 63.355469 C 0.5 63.699219 0.859375 63.890625 1.226562 63.890625 C 1.410156 63.890625 1.59375 63.84375 1.761719 63.746094 L 7.511719 60.425781 L 19.109375 80.511719 L 13.359375 83.832031 C 12.847656 84.128906 12.671875 84.78125 12.964844 85.292969 C 13.164062 85.636719 13.523438 85.828125 13.890625 85.828125 C 14.074219 85.828125 14.257812 85.78125 14.425781 85.683594 L 20.5625 82.140625 C 21.011719 82.382812 21.515625 82.515625 22.03125 82.515625 C 22.546875 82.515625 23.070312 82.382812 23.550781 82.105469 L 27.953125 79.5625 C 28.660156 79.15625 29.164062 78.496094 29.375 77.707031 C 29.585938 76.917969 29.480469 76.097656 29.074219 75.390625 L 28.96875 75.210938 L 32.617188 73.105469 C 33.523438 72.582031 34.433594 72.394531 35.476562 72.515625 L 51.320312 74.339844 C 53.65625 74.609375 55.785156 74.171875 57.824219 72.992188 L 84.667969 57.496094 C 86.171875 56.625 86.160156 55.371094 85.691406 54.554688 Z M 27.316406 77.152344 C 27.25 77.390625 27.101562 77.589844 26.890625 77.710938 L 22.484375 80.253906 C 22.046875 80.507812 21.488281 80.355469 21.234375 79.921875 L 9.089844 58.882812 C 8.96875 58.675781 8.933594 58.425781 9 58.191406 C 9.0625 57.953125 9.214844 57.753906 9.425781 57.632812 L 13.828125 55.089844 C 13.96875 55.011719 14.125 54.96875 14.28125 54.96875 C 14.363281 54.96875 14.445312 54.980469 14.523438 55 C 14.761719 55.066406 14.960938 55.214844 15.082031 55.425781 L 15.71875 56.53125 L 27.226562 76.460938 C 27.347656 76.667969 27.378906 76.917969 27.316406 77.152344 Z M 83.601562 55.644531 L 56.757812 71.140625 C 55.109375 72.09375 53.457031 72.4375 51.566406 72.21875 L 35.71875 70.390625 C 34.21875 70.214844 32.855469 70.5 31.546875 71.253906 L 27.902344 73.359375 L 18.101562 56.382812 L 27.511719 50.949219 C 29.363281 49.882812 31.289062 49.554688 33.390625 49.949219 L 52.273438 53.515625 C 53.675781 53.78125 54.894531 54.578125 55.703125 55.765625 C 56.507812 56.949219 56.808594 58.375 56.546875 59.777344 L 56.285156 61.164062 C 56.277344 61.191406 56.265625 61.214844 56.253906 61.234375 L 56.074219 61.339844 C 56.058594 61.339844 56.042969 61.339844 56.03125 61.335938 L 33.753906 57.128906 C 33.175781 57.019531 32.617188 57.402344 32.503906 57.980469 C 32.394531 58.558594 32.777344 59.117188 33.355469 59.226562 L 55.632812 63.433594 C 55.78125 63.464844 55.925781 63.476562 56.074219 63.476562 C 56.542969 63.476562 57 63.335938 57.394531 63.0625 C 57.441406 63.03125 57.484375 63 57.527344 62.964844 L 75.800781 52.417969 C 78.359375 50.9375 81.648438 51.828125 83.132812 54.398438 L 83.78125 55.519531 C 83.738281 55.558594 83.679688 55.597656 83.601562 55.644531 Z M 83.601562 55.644531" fill="#22396a"/></g></svg>