<svg width="40" height="40" viewBox="0 0 40 40" fill="none" xmlns="http://www.w3.org/2000/svg">
<path d="M6.66675 16.6667C6.66675 10.3813 6.66675 7.23862 8.61936 5.28599C10.572 3.33337 13.7147 3.33337 20.0001 3.33337C26.2854 3.33337 29.4282 3.33337 31.3807 5.28599C33.3334 7.23862 33.3334 10.3813 33.3334 16.6667V20C33.3334 26.2854 33.3334 29.4282 31.3807 31.3807C29.4282 33.3334 26.2854 33.3334 20.0001 33.3334C13.7147 33.3334 10.572 33.3334 8.61936 31.3807C6.66675 29.4282 6.66675 26.2854 6.66675 20V16.6667Z" stroke="#004274" stroke-width="1.5"/>
<path d="M6.66675 21.6667H33.3334" stroke="#004274" stroke-width="1.5" stroke-linecap="round" stroke-linejoin="round"/>
<path d="M25.8334 26.6667H28.3334" stroke="#004274" stroke-width="1.5" stroke-linecap="round" stroke-linejoin="round"/>
<path d="M11.6667 26.6667H14.1667" stroke="#004274" stroke-width="1.5" stroke-linecap="round" stroke-linejoin="round"/>
<path d="M10 32.5V35C10 35.9205 10.7462 36.6667 11.6667 36.6667H14.1667C15.0871 36.6667 15.8333 35.9205 15.8333 35V33.3333" stroke="#004274" stroke-width="1.5" stroke-linecap="round" stroke-linejoin="round"/>
<path d="M30.0001 32.5V35C30.0001 35.9205 29.2539 36.6667 28.3334 36.6667H25.8334C24.9129 36.6667 24.1667 35.9205 24.1667 35V33.3333" stroke="#004274" stroke-width="1.5" stroke-linecap="round" stroke-linejoin="round"/>
<path d="M33.3334 15H35C35.9205 15 36.6667 15.7462 36.6667 16.6667V18.3333C36.6667 18.858 36.4197 19.3518 36 19.6667L33.3334 21.6667" stroke="#004274" stroke-width="1.5" stroke-linecap="round" stroke-linejoin="round"/>
<path d="M6.66671 15H5.00004C4.07957 15 3.33337 15.7462 3.33337 16.6667V18.3333C3.33337 18.858 3.58036 19.3518 4.00004 19.6667L6.66671 21.6667" stroke="#004274" stroke-width="1.5" stroke-linecap="round" stroke-linejoin="round"/>
<path d="M32.5 8.33337H7.5" stroke="#004274" stroke-width="1.5" stroke-linecap="round"/>
</svg>
