<svg width="45" height="46" viewBox="0 0 45 46" fill="none" xmlns="http://www.w3.org/2000/svg">
<g clip-path="url(#clip0_138_745)">
<path d="M30.747 5.11658H14.6115C14.1165 5.11658 13.7151 5.51789 13.7151 6.01297V30.1418C13.4878 30.0738 13.2472 30.0368 12.998 30.0368C11.614 30.0368 10.488 31.1628 10.488 32.5468C10.488 33.0419 10.8894 33.4432 11.3844 33.4432C11.8794 33.4432 12.2808 33.0419 12.2808 32.5468C12.2808 32.1514 12.6026 31.8297 12.9979 31.8297C13.3933 31.8297 13.715 32.1514 13.715 32.5468C13.715 33.0419 14.1164 33.4432 14.6114 33.4432H16.6732C17.1682 33.4432 17.5696 33.0419 17.5696 32.5468C17.5696 32.1514 17.8912 31.8297 18.2867 31.8297C18.6821 31.8297 19.0038 32.1514 19.0038 32.5468C19.0038 33.9308 20.1297 35.0568 21.5137 35.0568C22.8978 35.0568 24.0237 33.9308 24.0237 32.5468C24.0237 32.1514 24.3454 31.8297 24.7408 31.8297C25.1362 31.8297 25.4579 32.1514 25.4579 32.5469C25.4579 33.9309 26.5839 35.0569 27.9679 35.0569H30.7468C31.2418 35.0569 31.6432 34.6556 31.6432 34.1605V6.01297C31.6434 5.51789 31.242 5.11658 30.747 5.11658ZM29.8505 33.264H27.9681C27.5727 33.264 27.251 32.9423 27.251 32.5469C27.251 31.1629 26.125 30.0369 24.741 30.0369C23.357 30.0369 22.231 31.1628 22.231 32.5469C22.231 32.9423 21.9092 33.264 21.5139 33.264C21.1186 33.264 20.7968 32.9423 20.7968 32.5469C20.7968 31.1629 19.6708 30.0369 18.2868 30.0369C17.2185 30.0369 16.3039 30.7079 15.9424 31.6505H15.5079V6.90937H20.1693V24.0309C20.1693 24.526 20.5707 24.9273 21.0657 24.9273C21.5607 24.9273 21.9621 24.526 21.9621 24.0309V6.90937H26.7131V24.0309C26.7131 24.526 27.1145 24.9273 27.6095 24.9273C28.1045 24.9273 28.5059 24.526 28.5059 24.0309V6.90937H29.8505V33.264Z" fill="#004274" stroke="#004274" stroke-width="0.390625"/>
<path d="M19.6315 35.8636C19.1365 35.8636 18.7351 36.2649 18.7351 36.76C18.7351 37.1554 18.4134 37.4771 18.018 37.4771C17.6226 37.4771 17.3009 37.1553 17.3009 36.76C17.3009 35.376 16.1749 34.25 14.7909 34.25C13.4069 34.25 12.2809 35.376 12.2809 36.76C12.2809 37.1554 11.9593 37.4771 11.5638 37.4771C11.1684 37.4771 10.8467 37.1553 10.8467 36.76C10.8467 36.2649 10.4454 35.8636 9.95035 35.8636C9.45535 35.8636 9.05396 36.2649 9.05396 36.76C9.05396 38.144 10.1799 39.27 11.5639 39.27C12.9479 39.27 14.0739 38.144 14.0739 36.76C14.0739 36.3646 14.3956 36.0429 14.791 36.0429C15.1864 36.0429 15.5081 36.3646 15.5081 36.76C15.5081 38.144 16.6341 39.27 18.0181 39.27C19.4021 39.27 20.5281 38.144 20.5281 36.76C20.5279 36.2649 20.1265 35.8636 19.6315 35.8636Z" fill="#004274" stroke="#004274" stroke-width="0.390625"/>
<path d="M35.6772 37.4771C35.1822 37.4771 34.7808 37.8784 34.7808 38.3735C34.7808 38.7689 34.459 39.0906 34.0637 39.0906C33.6682 39.0906 33.3466 38.7689 33.3466 38.3735C33.3466 36.9895 32.2206 35.8635 30.8366 35.8635C29.4526 35.8635 28.3266 36.9895 28.3266 38.3735C28.3266 38.7689 28.0048 39.0906 27.6095 39.0906C27.2141 39.0906 26.8924 38.7689 26.8924 38.3735C26.8924 37.8784 26.491 37.4771 25.996 37.4771C25.501 37.4771 25.0996 37.8784 25.0996 38.3735C25.0996 39.7575 26.2256 40.8835 27.6096 40.8835C28.9936 40.8835 30.1196 39.7575 30.1196 38.3735C30.1196 37.9781 30.4412 37.6564 30.8367 37.6564C31.2321 37.6564 31.5538 37.9782 31.5538 38.3735C31.5538 39.7575 32.6797 40.8835 34.0638 40.8835C35.4478 40.8835 36.5737 39.7575 36.5737 38.3735C36.5736 37.8784 36.1722 37.4771 35.6772 37.4771Z" fill="#004274" stroke="#004274" stroke-width="0.390625"/>
<path d="M11.5638 5.11658H10.04C9.54495 5.11658 9.14355 5.51789 9.14355 6.01297C9.14355 6.50806 9.54495 6.90937 10.04 6.90937H11.5638C12.0588 6.90937 12.4602 6.50806 12.4602 6.01297C12.4602 5.51789 12.0588 5.11658 11.5638 5.11658Z" fill="#004274" stroke="#004274" stroke-width="0.390625"/>
<path d="M6.7231 5.11658H0.896396C0.401396 5.11658 0 5.51789 0 6.01297C0 6.50806 0.401396 6.90937 0.896396 6.90937H6.7231C7.21811 6.90937 7.6195 6.50806 7.6195 6.01297C7.6195 5.51789 7.21811 5.11658 6.7231 5.11658Z" fill="#004274" stroke="#004274" stroke-width="0.390625"/>
<path d="M17.7489 7.44727C17.2539 7.44727 16.8525 7.84857 16.8525 8.34366V18.9214C16.8525 19.4165 17.2539 19.8178 17.7489 19.8178C18.2439 19.8178 18.6453 19.4165 18.6453 18.9214V8.34366C18.6453 7.84866 18.2439 7.44727 17.7489 7.44727Z" fill="#004274" stroke="#004274" stroke-width="0.390625"/>
<path d="M24.3825 7.44727C23.8875 7.44727 23.4861 7.84857 23.4861 8.34366V18.9214C23.4861 19.4165 23.8875 19.8178 24.3825 19.8178C24.8775 19.8178 25.2789 19.4165 25.2789 18.9214V8.34366C25.279 7.84866 24.8775 7.44727 24.3825 7.44727Z" fill="#004274" stroke="#004274" stroke-width="0.390625"/>
<path d="M17.7489 21.4312C17.2539 21.4312 16.8525 21.8325 16.8525 22.3275V27.8853C16.8525 28.3804 17.2539 28.7817 17.7489 28.7817C18.2439 28.7817 18.6453 28.3804 18.6453 27.8853V22.3275C18.6453 21.8325 18.2439 21.4312 17.7489 21.4312Z" fill="#004274" stroke="#004274" stroke-width="0.390625"/>
<path d="M24.3825 21.4312C23.8875 21.4312 23.4861 21.8325 23.4861 22.3275V27.8853C23.4861 28.3804 23.8875 28.7817 24.3825 28.7817C24.8775 28.7817 25.2789 28.3804 25.2789 27.8853V22.3275C25.279 21.8325 24.8775 21.4312 24.3825 21.4312Z" fill="#004274" stroke="#004274" stroke-width="0.390625"/>
<path d="M44.1037 5.11658H34.1535C33.6585 5.11658 33.2571 5.51789 33.2571 6.01297C33.2571 6.50806 33.6585 6.90937 34.1535 6.90937H44.1037C44.5987 6.90937 45.0001 6.50806 45.0001 6.01297C45.0001 5.51789 44.5987 5.11658 44.1037 5.11658Z" fill="#004274" stroke="#004274" stroke-width="0.390625"/>
<path d="M27.6095 26.4512C27.1145 26.4512 26.7131 26.8525 26.7131 27.3476V28.7819C26.7131 29.2769 27.1145 29.6783 27.6095 29.6783C28.1045 29.6783 28.5059 29.2769 28.5059 28.7819V27.3476C28.506 26.8525 28.1045 26.4512 27.6095 26.4512Z" fill="#004274" stroke="#004274" stroke-width="0.390625"/>
<path d="M21.0658 26.4512C20.5708 26.4512 20.1694 26.8525 20.1694 27.3476V28.7819C20.1694 29.2769 20.5708 29.6783 21.0658 29.6783C21.5608 29.6783 21.9622 29.2769 21.9622 28.7819V27.3476C21.9622 26.8525 21.5608 26.4512 21.0658 26.4512Z" fill="#004274" stroke="#004274" stroke-width="0.390625"/>
<path d="M33.3466 30.0369C32.8516 30.0369 32.4502 30.4382 32.4502 30.9333C32.4502 31.4284 32.8516 31.8297 33.3466 31.8297C33.742 31.8297 34.0637 32.1513 34.0637 32.5468C34.0637 33.0418 34.4651 33.4432 34.9601 33.4432C35.4551 33.4432 35.8565 33.0418 35.8565 32.5468C35.8566 31.1628 34.7306 30.0369 33.3466 30.0369Z" fill="#004274" stroke="#004274" stroke-width="0.390625"/>
</g>
<defs>
<clipPath id="clip0_138_745">
<rect width="45" height="45" fill="white" transform="translate(0 0.5)"/>
</clipPath>
</defs>
</svg>
