<svg width="45" height="46" viewBox="0 0 45 46" fill="none" xmlns="http://www.w3.org/2000/svg">
<g clip-path="url(#clip0_169_430)">
<path d="M44.2711 37.8218C39.6025 37.8218 36.8252 36.6077 34.1393 35.4335C31.5786 34.3142 28.9308 33.1566 24.8326 33.1566C21.2932 33.1566 17.8994 34.5447 14.905 35.7693C12.3242 36.8248 9.88649 37.8218 7.72678 37.8218H5.36054C6.74252 37.2058 8.31878 36.4356 10.0435 35.5928C16.6072 32.3857 24.7759 28.3942 31.0529 28.3942C38.7283 28.3942 43.7843 32.0993 43.8345 32.1367C44.1565 32.3775 44.6128 32.3121 44.8542 31.9903C45.0957 31.6683 45.0304 31.2113 44.7084 30.9698C44.5254 30.8325 40.8477 28.124 34.892 27.2244V25.99C36.2293 25.7246 37.2246 24.7465 37.2246 23.5832C37.2246 23.0139 36.9474 21.6172 36.4996 20.3532C35.8445 18.5045 35.0803 17.6059 34.1631 17.6059C33.5224 17.6059 32.9563 18.0451 32.45 18.9396C32.3007 18.0443 32.0055 16.8336 31.6074 15.6983C30.7733 13.3195 29.8289 12.1631 28.7203 12.1631C27.6117 12.1631 26.6673 13.3195 25.8332 15.6984C25.2452 17.3753 24.8812 19.218 24.8812 19.9634C24.8812 21.4648 26.222 22.7184 27.9914 22.993V26.5134C23.7685 24.3311 19.5273 23.4087 15.3678 23.7723C12.0067 24.0662 9.41248 25.1487 7.79229 26.0343C5.63968 25.2076 3.30308 24.6037 0.728942 24.6037C0.326371 24.6037 0 24.9301 0 25.3326C0 25.7352 0.326371 26.0616 0.728942 26.0616C4.94757 26.0616 8.60035 27.8761 11.8231 29.4769C13.2413 30.1814 14.5387 30.8257 15.7634 31.2618C13.5569 32.2536 11.4069 33.304 9.40344 34.2829C5.67884 36.1029 2.16087 37.8218 0.728942 37.8218C0.326371 37.8218 0 38.1482 0 38.5508C0 38.9533 0.326371 39.2797 0.728942 39.2797H7.72678C10.1731 39.2797 12.7397 38.23 15.4569 37.1187C18.4671 35.8876 21.5799 34.6145 24.8326 34.6145C28.6261 34.6145 31.0205 35.6612 33.5553 36.7693C36.3785 38.0035 39.2978 39.2797 44.2711 39.2797C44.6736 39.2797 45 38.9533 45 38.5508C45 38.1482 44.6736 37.8218 44.2711 37.8218ZM31.0529 26.9363C30.5287 26.9363 29.9935 26.9621 29.4492 27.0109V22.9929C30.149 22.8844 30.7817 22.623 31.2909 22.2533C31.1691 22.8208 31.1015 23.3027 31.1015 23.5832C31.1015 24.7464 32.0969 25.7245 33.4341 25.99V27.0469C32.6714 26.9762 31.8773 26.9363 31.0529 26.9363ZM33.1335 21.0353C33.5889 19.6778 34.007 19.1821 34.1631 19.0776C34.3192 19.1821 34.7373 19.6778 35.1926 21.0353C35.5622 22.1371 35.7667 23.2413 35.7667 23.5832C35.7667 23.9621 35.4021 24.3081 34.892 24.4833V23.7776C34.892 23.375 34.5656 23.0486 34.1631 23.0486C33.7605 23.0486 33.4341 23.375 33.4341 23.7776V24.4833C32.9241 24.3081 32.5594 23.9621 32.5594 23.5832C32.5594 23.2413 32.7639 22.1371 33.1335 21.0353ZM26.3391 19.9634C26.3391 19.4198 26.67 17.7178 27.209 16.1808C27.9542 14.0554 28.5906 13.621 28.7203 13.621C28.85 13.621 29.4864 14.0554 30.2316 16.1807C30.7706 17.7177 31.1015 19.4197 31.1015 19.9633C31.1015 20.6729 30.3964 21.2936 29.4492 21.5098V19.8899C29.4492 19.4873 29.1229 19.1609 28.7203 19.1609C28.3177 19.1609 27.9914 19.4873 27.9914 19.8899V21.5099C27.0442 21.2937 26.3391 20.6729 26.3391 19.9634ZM12.4717 28.1712C11.5397 27.7083 10.5732 27.2284 9.56614 26.7762C11.0387 26.104 13.0449 25.4389 15.4949 25.2246C19.1395 24.9061 22.8675 25.6543 26.6012 27.449C23.7943 28.0421 20.8351 29.0956 17.9223 30.3213C16.361 30.1015 14.5541 29.2057 12.4717 28.1712Z" fill="#004274"/>
<path d="M6.94916 13.621H8.6231C8.72301 14.1385 8.92643 14.6196 9.21218 15.041L8.02789 16.2253C7.74322 16.5099 7.74322 16.9715 8.02789 17.2561C8.17018 17.3984 8.35679 17.4696 8.5433 17.4696C8.72982 17.4696 8.91642 17.3985 9.05871 17.2561L10.243 16.0718C10.6643 16.3574 11.1454 16.5609 11.663 16.6609V18.3348C11.663 18.7374 11.9894 19.0637 12.3919 19.0637C12.7945 19.0637 13.1209 18.7374 13.1209 18.3348V16.6609C13.6384 16.561 14.1195 16.3574 14.5408 16.0718L15.7251 17.2561C15.8674 17.3984 16.054 17.4696 16.2405 17.4696C16.4271 17.4696 16.6137 17.3985 16.7559 17.2561C17.0406 16.9714 17.0406 16.5098 16.7559 16.2253L15.5717 15.041C15.8573 14.6196 16.0608 14.1385 16.1607 13.621H17.8347C18.2373 13.621 18.5636 13.2946 18.5636 12.892C18.5636 12.4895 18.2373 12.1631 17.8347 12.1631H16.1607C16.0608 11.6456 15.8574 11.1645 15.5717 10.7431L16.7559 9.55884C17.0406 9.27416 17.0406 8.81259 16.7559 8.52801C16.4713 8.24334 16.0097 8.24334 15.7251 8.52801L14.5408 9.7123C14.1195 9.42665 13.6384 9.22323 13.1209 9.12322V7.44928C13.1209 7.04671 12.7945 6.72034 12.3919 6.72034C11.9894 6.72034 11.663 7.04671 11.663 7.44928V9.12322C11.1454 9.22313 10.6643 9.42665 10.243 9.7123L9.05871 8.52801C8.77404 8.24334 8.31247 8.24334 8.02789 8.52801C7.74322 8.81269 7.74322 9.27426 8.02789 9.55884L9.21218 10.7431C8.92653 11.1645 8.72301 11.6456 8.6231 12.1631H6.94916C6.54659 12.1631 6.22021 12.4895 6.22021 12.892C6.22021 13.2946 6.54659 13.621 6.94916 13.621ZM12.3919 10.5108C13.7049 10.5108 14.7731 11.5791 14.7731 12.892C14.7731 14.205 13.7049 15.2733 12.3919 15.2733C11.079 15.2733 10.0107 14.205 10.0107 12.892C10.0107 11.5791 11.079 10.5108 12.3919 10.5108Z" fill="#004274"/>
</g>
<defs>
<clipPath id="clip0_169_430">
<rect width="45" height="45" fill="white" transform="translate(0 0.5)"/>
</clipPath>
</defs>
</svg>
