<!DOCTYPE svg PUBLIC "-//W3C//DTD SVG 1.1//EN" "http://www.w3.org/Graphics/SVG/1.1/DTD/svg11.dtd">
<!-- Uploaded to: SVG Repo, www.svgrepo.com, Transformed by: SVG Repo Mixer Tools -->
<svg fill="#000000" height="800px" width="800px" version="1.1" id="Capa_1" xmlns="http://www.w3.org/2000/svg" xmlns:xlink="http://www.w3.org/1999/xlink" viewBox="0 0 19.502 19.502" xml:space="preserve">
<g id="SVGRepo_bgCarrier" stroke-width="0"/>
<g id="SVGRepo_tracerCarrier" stroke-linecap="round" stroke-linejoin="round"/>
<g id="SVGRepo_iconCarrier"> <g> <g> <path d="M8.06,7.643C7.968,5.775,6.379,4.336,4.51,4.425c-1.869,0.092-3.309,1.68-3.219,3.551 c0.064,1.279,0.831,2.361,1.911,2.886l-0.22,0.526c-0.019,0.029-0.034,0.054-0.046,0.085c-0.008,0.024-0.015,0.047-0.019,0.073 l-0.61,1.467l0.256,0.107l0.507-1.227c0.023,0.019,0.05,0.035,0.08,0.043c0.187,0.07,0.395-0.026,0.461-0.213 c0.071-0.186-0.024-0.393-0.212-0.463c-0.018-0.007-0.04-0.013-0.058-0.015l0.113-0.275c0.38,0.146,0.793,0.227,1.222,0.227 l0.019,0.338c-0.114,0.062-0.19,0.187-0.183,0.327c0.007,0.139,0.093,0.256,0.214,0.311l0.044,0.935l0.327-0.017l-0.046-0.934 c0.115-0.066,0.189-0.189,0.182-0.332c-0.008-0.139-0.093-0.254-0.213-0.309l-0.017-0.337c0.43-0.041,0.829-0.16,1.196-0.344 l0.15,0.285c-0.046,0-0.092,0.012-0.137,0.031c-0.18,0.082-0.26,0.299-0.176,0.479c0.084,0.182,0.3,0.26,0.479,0.178 c0.059-0.026,0.105-0.069,0.141-0.118l0.638,1.197l0.245-0.13L6.44,10.7C7.462,10.076,8.121,8.927,8.06,7.643z M2.378,5.787 l1.829,1.66c-0.062,0.064-0.112,0.14-0.143,0.228l-2.45,0.119C1.618,7.029,1.903,6.326,2.378,5.787z M1.622,7.984l2.405-0.117 c-0.002,0.02-0.002,0.041,0,0.061c0.006,0.105,0.035,0.203,0.086,0.289l-1.598,1.76C1.998,9.464,1.664,8.766,1.622,7.984z M3.328,10.557c-0.245-0.119-0.472-0.273-0.674-0.453L4.23,8.369c0,0,0.002,0.002,0.002,0.004L3.328,10.557z M4.661,10.87 c-0.38-0.004-0.743-0.074-1.081-0.203l0.894-2.152C4.497,8.521,4.521,8.53,4.547,8.536L4.661,10.87z M4.554,7.254 C4.482,7.268,4.419,7.293,4.356,7.328L2.504,5.65c0.501-0.5,1.173-0.83,1.93-0.892L4.554,7.254z M7.036,9.757L5.277,8.16 c0.04-0.09,0.06-0.191,0.055-0.295C5.33,7.841,5.328,7.824,5.326,7.804l2.408-0.117C7.766,8.468,7.498,9.197,7.036,9.757z M7.72,7.498L5.27,7.615C5.232,7.533,5.177,7.462,5.11,7.402l1.656-1.828C7.288,6.061,7.643,6.738,7.72,7.498z M4.742,7.248 L4.623,4.75c0.755-0.014,1.456,0.248,2,0.697L4.944,7.298C4.883,7.27,4.815,7.252,4.742,7.248z M4.986,10.854L4.873,8.518 C4.899,8.51,4.923,8.5,4.946,8.492l1.098,2.056C5.721,10.708,5.365,10.815,4.986,10.854z M6.283,10.411L5.169,8.326 c0.002-0.002,0.002-0.002,0.002-0.004L6.91,9.9C6.726,10.097,6.516,10.268,6.283,10.411z M3.136,4.466 c0.183-0.084,0.262-0.297,0.18-0.479c-0.084-0.185-0.302-0.263-0.48-0.179c-0.181,0.082-0.26,0.3-0.178,0.479 C2.739,4.47,2.957,4.548,3.136,4.466z M5.951,4.356C6.14,4.425,6.346,4.332,6.415,4.141c0.067-0.184-0.025-0.393-0.214-0.46 C6.014,3.612,5.806,3.707,5.737,3.892C5.668,4.08,5.763,4.289,5.951,4.356z M4.497,4.134c0.197-0.012,0.353-0.18,0.344-0.379 C4.829,3.554,4.658,3.402,4.462,3.412c-0.2,0.01-0.354,0.18-0.345,0.379C4.126,3.99,4.296,4.141,4.497,4.134z M8.498,6.449 c0.181-0.084,0.261-0.302,0.177-0.48c-0.084-0.182-0.298-0.26-0.479-0.178C8.014,5.875,7.935,6.091,8.02,6.27 C8.102,6.453,8.315,6.531,8.498,6.449z M1.95,5.337C2.084,5.189,2.071,4.96,1.925,4.825c-0.148-0.132-0.376-0.12-0.512,0.023 C1.282,5,1.291,5.227,1.439,5.361C1.587,5.496,1.815,5.484,1.95,5.337z M7.657,5.057C7.791,4.91,7.78,4.682,7.632,4.546 c-0.146-0.133-0.373-0.121-0.51,0.027C6.989,4.72,7,4.949,7.149,5.084C7.294,5.216,7.522,5.209,7.657,5.057z M8.695,7.252 c-0.201,0.01-0.354,0.18-0.344,0.379C8.36,7.828,8.53,7.981,8.729,7.973c0.199-0.01,0.353-0.182,0.342-0.381 C9.064,7.393,8.895,7.244,8.695,7.252z M8.591,8.871C8.404,8.802,8.198,8.897,8.129,9.084C8.058,9.272,8.152,9.48,8.339,9.549 c0.189,0.07,0.398-0.025,0.466-0.211C8.874,9.147,8.779,8.94,8.591,8.871z M7.401,10.282c-0.134,0.147-0.122,0.375,0.025,0.508 c0.147,0.133,0.376,0.125,0.511-0.023c0.133-0.149,0.123-0.378-0.026-0.512C7.766,10.123,7.537,10.132,7.401,10.282z M0.76,6.748 c0.187,0.067,0.395-0.027,0.464-0.215C1.293,6.345,1.198,6.139,1.012,6.07c-0.19-0.068-0.396,0.024-0.466,0.215 C0.479,6.47,0.573,6.679,0.76,6.748z M2.203,10.534c-0.146-0.133-0.375-0.123-0.51,0.023c-0.133,0.151-0.125,0.379,0.026,0.512 c0.147,0.133,0.376,0.123,0.51-0.025C2.361,10.895,2.353,10.667,2.203,10.534z M0.854,9.17c-0.18,0.084-0.26,0.299-0.176,0.478 C0.76,9.832,0.975,9.91,1.156,9.826c0.181-0.082,0.259-0.295,0.175-0.479C1.249,9.168,1.035,9.087,0.854,9.17z M1.001,7.988 c-0.012-0.199-0.18-0.353-0.38-0.345C0.422,7.654,0.268,7.824,0.279,8.022c0.009,0.199,0.179,0.355,0.378,0.345 C0.856,8.356,1.01,8.186,1.001,7.988z"/> <path d="M19.502,8.072l-1.118,0.506l-0.1,0.399l-0.352-0.176l-1.205,0.428l-0.1,0.326l-0.252-0.201h-1.229L14.894,9.68 L14.72,9.354l-0.979-0.325l-0.329,0.149v-0.3l-0.47-0.365c0.285-0.565,0.525-1.098,0.695-1.543 c0.504-1.303,0.555-2.961-0.424-3.588c-0.926-0.594-2.638-0.477-3.114,1.781c-0.271,1.293,0.277,3.209,1.667,4.521 c-0.927,1.645-2.063,3.36-2.063,3.36l0.199,0.023c0,0,0.314-0.238,1.054-1.255c0.398-0.547,0.803-1.174,1.175-1.811 c0.736,0.578,1.666,0.996,2.79,1.111c1.739,0.178,3.359-0.293,4.581-0.841V8.072z M12.546,8.201l-0.035-0.024H12.16l0.052-0.252 l-0.527-0.754l-0.352-0.049l0.201-0.228l-0.305-1.027l-0.586-0.131c0.063-0.552,0.256-1.033,0.463-1.398 c0.526-0.93,1.824-0.596,2.108,0.148c0.276,0.729,0,2.059-0.452,3.213C12.703,7.854,12.628,8.02,12.546,8.201z"/> <path d="M18.574,11.682c-0.29,0.09-0.146,0.465-0.146,0.465s-0.195-0.139-0.486,0c-0.295,0.144-0.44,0.562-0.44,0.562 s-0.146-0.326-0.438-0.326s-0.439,0.373-0.439,0.373s-0.195-0.514-0.537-0.514c-0.345,0-0.391,0.514-0.391,0.514 s-0.196-0.187-0.49-0.234c-0.293-0.047-0.438,0.609-0.438,0.609s-0.197-0.283-0.49-0.375s-0.781,0.375-0.781,0.375 s-0.051-0.422-0.293-0.562c-0.244-0.14-0.732,0.327-0.732,0.327s0-0.562-0.343-0.653c-0.344-0.096-0.49,0.514-0.49,0.514 s-0.099-0.281-0.44-0.467c-0.342-0.188-0.928,0.516-0.928,0.516s-0.095-0.422-0.439-0.659c-0.342-0.234-0.732,0.375-0.732,0.375 s0.048-0.375-0.342-0.56c-0.391-0.19-0.636,0.373-0.636,0.373s-0.489-0.092-0.978,0c-0.487,0.096-0.34,0.422-0.587,0.375 c-0.241-0.045-0.73,0.234-0.73,0.234s-0.244-0.47-0.586-0.514c-0.342-0.046-0.441,0.467-0.441,0.467s-0.438-0.14-0.684-0.14 c-0.245,0-0.879,0.234-0.879,0.234s-0.342-0.375-0.734-0.375c-0.389,0-0.243,0.328-0.243,0.328s-0.44-0.234-0.683-0.328 c-0.245-0.094-0.587,0.19-0.587,0.19s0,0-0.294-0.096C0.527,12.655,0.225,12.809,0,12.944v3.481h19.455v-4.512 C19.455,11.913,18.87,11.587,18.574,11.682z"/> </g> </g> </g>
</svg>