<svg width="60" height="60" viewBox="0 0 60 60" fill="none" xmlns="http://www.w3.org/2000/svg">
<g clip-path="url(#clip0_83_1097)">
<path d="M42.453 12.7219L31.953 3.72178C31.3909 3.24084 30.6949 2.99979 29.9999 2.99979C29.3049 2.99979 28.6089 3.24084 28.0468 3.72178L17.5468 12.7219C16.5938 13.5389 16.2508 14.8629 16.6858 16.0409C17.1218 17.2179 18.2447 17.9999 19.4998 17.9999V27C19.4998 28.657 20.8428 30 22.4998 30H37.5C39.157 30 40.5 28.657 40.5 27V17.9999C41.755 17.9999 42.878 17.2179 43.314 16.0409C43.749 14.8639 43.406 13.5389 42.453 12.7219ZM37.5 14.9999V27H22.4998V14.9999H19.4998L29.9999 5.99981L40.5 14.9999H37.5Z" fill="#004274"/>
<path d="M33.0001 14.9999H27C26.171 14.9999 25.5 15.6709 25.5 16.4999V22.4999C25.5 23.3289 26.171 23.9999 27 23.9999H33.0001C33.829 23.9999 34.5001 23.3289 34.5001 22.4999V16.4999C34.5001 15.6709 33.8292 14.9999 33.0001 14.9999ZM31.5 20.9999H28.5V17.9999H31.5V20.9999Z" fill="#004274"/>
<path d="M25.9529 39.7221L15.4529 30.722C14.8908 30.2409 14.1948 30 13.4998 30C12.8048 30 12.1088 30.2411 11.5478 30.722L1.04771 39.7221C0.0947323 40.5391 -0.249333 41.8631 0.186725 43.0411C0.621729 44.2181 1.74475 45.0001 2.99972 45.0001V54.0002C2.99972 55.6572 4.3427 57.0002 5.99974 57.0002H20.9999C22.6569 57.0002 23.9999 55.6572 23.9999 54.0002V45.0001C25.2549 45.0001 26.3779 44.2181 26.8139 43.0411C27.2489 41.8642 26.9059 40.5391 25.9529 39.7221ZM20.9999 42.0001V54.0002H5.99974V42.0001H2.99972L13.4998 33L23.9999 42.0001H20.9999Z" fill="#004274"/>
<path d="M16.4998 42.0001H10.4998C9.67078 42.0001 8.99976 42.6711 8.99976 43.5001V49.5002C8.99976 50.3291 9.67078 51.0002 10.4998 51.0002H16.4998C17.3288 51.0002 17.9998 50.3291 17.9998 49.5002V43.5001C17.9998 42.6711 17.3289 42.0001 16.4998 42.0001ZM14.9998 48.0001H11.9998V45.0001H14.9998V48.0001Z" fill="#004274"/>
<path d="M58.9522 39.7221L48.4521 30.722C47.8911 30.2409 47.1952 30 46.5001 30C45.8051 30 45.1091 30.2411 44.5471 30.722L34.047 39.7221C33.094 40.5391 32.7499 41.8631 33.186 43.0411C33.6221 44.2181 34.745 45.0001 36 45.0001V54.0002C36 55.6572 37.343 57.0002 39.0001 57.0002H54.0002C55.6572 57.0002 57.0002 55.6572 57.0002 54.0002V45.0001C58.2552 45.0001 59.3782 44.2181 59.8132 43.0411C60.2491 41.8631 59.9061 40.5391 58.9522 39.7221ZM54.0001 42.0001V54.0002H38.9999V42.0001H35.9999L46.5 33L57.0001 42.0001H54.0001Z" fill="#004274"/>
<path d="M49.5001 42.0001H43.5C42.671 42.0001 42 42.6711 42 43.5001V49.5002C42 50.3291 42.671 51.0002 43.5 51.0002H49.5001C50.329 51.0002 51.0001 50.3291 51.0001 49.5002V43.5001C51.0001 42.6711 50.3292 42.0001 49.5001 42.0001ZM48 48.0001H45V45.0001H48V48.0001Z" fill="#004274"/>
</g>
<defs>
<clipPath id="clip0_83_1097">
<rect width="60" height="60" fill="white"/>
</clipPath>
</defs>
</svg>
