<svg width="51" height="50" viewBox="0 0 51 50" fill="none" xmlns="http://www.w3.org/2000/svg">
<path d="M44.0834 30.2083H27.4167V19.7917H44.0834V30.2083ZM8.66671 43.75H23.25V6.25H8.66671C8.11417 6.25 7.58427 6.46949 7.19357 6.86019C6.80287 7.25089 6.58337 7.7808 6.58337 8.33333V41.6667C6.58337 42.2192 6.80287 42.7491 7.19357 43.1398C7.58427 43.5305 8.11417 43.75 8.66671 43.75ZM44.0834 8.33333C44.0834 7.7808 43.8639 7.25089 43.4732 6.86019C43.0825 6.46949 42.5526 6.25 42 6.25H27.4167V16.6667H44.0834V8.33333ZM44.0834 41.6667V33.3333H27.4167V43.75H42C42.5526 43.75 43.0825 43.5305 43.4732 43.1398C43.8639 42.7491 44.0834 42.2192 44.0834 41.6667Z" fill="#004274"/>
</svg>
