<svg width="51" height="50" viewBox="0 0 51 50" fill="none" xmlns="http://www.w3.org/2000/svg">
<g clip-path="url(#clip0_83_1088)">
<path d="M37.2514 20.9597C38.4717 19.7393 38.4717 17.7607 37.2514 16.5403C36.0311 15.3199 34.0524 15.3199 32.8321 16.5403L22.5417 26.8306L18.5015 22.7903C17.2811 21.5699 15.3024 21.5699 14.082 22.7903C12.8617 24.0107 12.8617 25.9893 14.082 27.2097L20.332 33.4597C21.5524 34.68 23.5311 34.68 24.7515 33.4597L37.2514 20.9597Z" fill="#004274"/>
<path d="M0.666748 25C0.666748 11.1929 11.8596 0 25.6667 0C39.4739 0 50.6667 11.1929 50.6667 25C50.6667 38.8072 39.4739 50 25.6667 50C11.8596 50 0.666748 38.8072 0.666748 25ZM25.6667 6.25C15.3114 6.25 6.91675 14.6447 6.91675 25C6.91675 35.3553 15.3114 43.75 25.6667 43.75C36.0221 43.75 44.4167 35.3553 44.4167 25C44.4167 14.6447 36.0221 6.25 25.6667 6.25Z" fill="#004274"/>
</g>
<defs>
<clipPath id="clip0_83_1088">
<rect width="50" height="50" fill="white" transform="translate(0.666748)"/>
</clipPath>
</defs>
</svg>
