<!DOCTYPE svg PUBLIC "-//W3C//DTD SVG 1.1//EN" "http://www.w3.org/Graphics/SVG/1.1/DTD/svg11.dtd">
<!-- Uploaded to: SVG Repo, www.svgrepo.com, Transformed by: SVG Repo Mixer Tools -->
<svg fill="#ffffff" height="800px" width="800px" version="1.1" id="Capa_1" xmlns="http://www.w3.org/2000/svg" xmlns:xlink="http://www.w3.org/1999/xlink" viewBox="0 0 60 60" xml:space="preserve">
<g id="SVGRepo_bgCarrier" stroke-width="0"/>
<g id="SVGRepo_tracerCarrier" stroke-linecap="round" stroke-linejoin="round"/>
<g id="SVGRepo_iconCarrier"> <g> <g> <path d="M0,0v60h10h40h10V0H0z M12,58V11h17v47H12z M31,58V11h17v47H31z M58,58h-8V9H10v49H2V2h56V58z"/> <path d="M57,26h-6v16h6V26z M55,28v5h-2v-5H55z M53,40v-5h2v5H53z"/> <path d="M39,3H21v5h18V3z M37,6H23V5h14V6z"/> </g> </g> </g>
</svg>