<!DOCTYPE svg PUBLIC "-//W3C//DTD SVG 1.1//EN" "http://www.w3.org/Graphics/SVG/1.1/DTD/svg11.dtd">
<!-- Uploaded to: SVG Repo, www.svgrepo.com, Transformed by: SVG Repo Mixer Tools -->
<svg fill="#ffffff" height="800px" width="800px" version="1.1" id="Layer_1" xmlns="http://www.w3.org/2000/svg" xmlns:xlink="http://www.w3.org/1999/xlink" viewBox="0 0 512 512" xml:space="preserve">
<g id="SVGRepo_bgCarrier" stroke-width="0"/>
<g id="SVGRepo_tracerCarrier" stroke-linecap="round" stroke-linejoin="round"/>
<g id="SVGRepo_iconCarrier"> <g> <g> <path d="M460.8,175.543h-7.314v-65.829c0-12.118-9.825-21.943-21.943-21.943h-71.956l-24.256-72.768 C332.344,6.043,323.958,0,314.514,0H197.486c-9.446,0-17.831,6.043-20.818,15.003l-24.256,72.768H80.457 c-12.118,0-21.943,9.825-21.943,21.943v65.829H51.2c-12.118,0-21.943,9.825-21.943,21.943s9.825,21.943,21.943,21.943h7.314 v270.629c0,12.118,9.825,21.943,21.943,21.943h117.029c12.118,0,21.943-9.825,21.943-21.943V343.771 c0-20.165,16.406-36.571,36.571-36.571s36.571,16.406,36.571,36.571v146.286c0,12.118,9.825,21.943,21.943,21.943h117.029 c12.118,0,21.943-9.825,21.943-21.943V219.429h7.314c12.118,0,21.943-9.825,21.943-21.943S472.918,175.543,460.8,175.543z M213.301,43.886h85.397l14.629,43.886H198.672L213.301,43.886z M175.543,468.114H102.4v-73.143h73.143V468.114z M409.6,468.114 h-73.143v-73.143H409.6V468.114z M409.6,351.086h-73.143v-7.314c0-44.364-36.093-80.457-80.457-80.457 s-80.457,36.093-80.457,80.457v7.314H102.4V219.429h307.2V351.086z M409.6,175.543H102.4v-43.886h65.829h175.543h0.029H409.6 V175.543z"/> </g> </g> </g>
</svg>