<!DOCTYPE svg PUBLIC "-//W3C//DTD SVG 1.1//EN" "http://www.w3.org/Graphics/SVG/1.1/DTD/svg11.dtd">
<!-- Uploaded to: SVG Repo, www.svgrepo.com, Transformed by: SVG Repo Mixer Tools -->
<svg fill="#ffffff" height="800px" width="800px" version="1.1" id="Capa_1" xmlns="http://www.w3.org/2000/svg" xmlns:xlink="http://www.w3.org/1999/xlink" viewBox="0 0 512 512" xml:space="preserve">
<g id="SVGRepo_bgCarrier" stroke-width="0"/>
<g id="SVGRepo_tracerCarrier" stroke-linecap="round" stroke-linejoin="round"/>
<g id="SVGRepo_iconCarrier"> <path d="M375.1,157.988c-4.599-17.701-19.224-32.168-38.458-39.895V104c0-14.908-10.248-27.466-24.069-31.004 c0.041-0.327,0.069-0.658,0.069-0.996c0-39.701-32.299-72-72-72s-72,32.299-72,72v81.376c-9.311,3.303-16,12.195-16,22.624v320h-8 c-4.418,0-8,3.582-8,8s3.582,8,8,8h64c4.418,0,8-3.582,8-8s-3.582-8-8-8h-8V176c0-10.429-6.689-19.321-16-22.624V72 c0-30.878,25.122-56,56-56s56,25.122,56,56c0,0.338,0.028,0.669,0.069,0.996C282.89,76.534,272.643,89.092,272.643,104v14.094 c-19.234,7.726-33.858,22.194-38.458,39.895c-0.623,2.396-0.101,4.947,1.415,6.906c1.515,1.959,3.852,3.106,6.328,3.106h30.715 c0,17.645,14.355,32,32,32s32-14.355,32-32h30.715c2.477,0,4.813-1.147,6.328-3.106C375.201,162.935,375.723,160.385,375.1,157.988z M176.643,168c4.411,0,8,3.589,8,8v256h-16V176C168.643,171.589,172.231,168,176.643,168z M168.643,496v-48h16v48H168.643z M288.643,104c0-8.822,7.178-16,16-16s16,7.178,16,16v9.468c-5.171-0.957-10.529-1.468-16-1.468s-10.829,0.511-16,1.468V104z M304.643,184c-8.822,0-16-7.178-16-16h32C320.643,176.822,313.465,184,304.643,184z M254.068,152c9.116-14.357,28.628-24,50.575-24 s41.458,9.643,50.575,24H254.068z"/> </g>
</svg>