<!DOCTYPE svg PUBLIC "-//W3C//DTD SVG 1.1//EN" "http://www.w3.org/Graphics/SVG/1.1/DTD/svg11.dtd">
<!-- Uploaded to: SVG Repo, www.svgrepo.com, Transformed by: SVG Repo Mixer Tools -->
<svg fill="#ffffff" height="800px" width="800px" version="1.1" id="Layer_1" xmlns="http://www.w3.org/2000/svg" xmlns:xlink="http://www.w3.org/1999/xlink" viewBox="0 0 511.999 511.999" xml:space="preserve">
<g id="SVGRepo_bgCarrier" stroke-width="0"/>
<g id="SVGRepo_tracerCarrier" stroke-linecap="round" stroke-linejoin="round"/>
<g id="SVGRepo_iconCarrier"> <g> <g> <g> <path d="M115.08,94.365l17.232,6.932c17.693,7.118,37.804-1.454,44.92-19.145l6.932-17.233 c7.117-17.691-1.455-37.802-19.148-44.919l-17.23-6.932c-17.691-7.117-37.802,1.455-44.919,19.147l-6.932,17.23 C88.817,67.136,97.39,87.248,115.08,94.365z"/> <path d="M493.004,463.438c-17.37,0-33.484-7.003-45.373-19.719c-1.539-1.645-3.35-2.964-5.32-3.959V165.004 c0-25.158,20.468-45.625,45.625-45.625c10.492,0,18.998-8.506,18.998-18.998c0-10.492-8.506-18.998-18.998-18.998 c-46.109,0-83.622,37.513-83.622,83.622v54.286H287.481c4.579-4.699,7.965-10.675,9.536-17.539 c3.383-14.787-2.619-29.526-14.088-37.999c0.667-24.58,20.857-44.374,45.594-44.374c10.492,0,18.998-8.506,18.998-18.998 c0-10.492-8.506-18.998-18.998-18.998c-41.729,0-76.416,30.727-82.628,70.743l-135.939-31.097 c-0.476-0.109-0.952-0.2-1.427-0.289c-21.043-5.537-43.41,5.312-51.743,26.024L7.398,269.526 c-9.031,22.451,1.848,47.971,24.297,57.002c2.688,1.08,5.421,1.869,8.164,2.394l113.112,27.635l-4.755,105.954 c-3.5,0.603-7.078,0.927-10.715,0.927c-17.37,0-33.483-7.003-45.373-19.719c-3.592-3.843-8.618-6.023-13.878-6.023 c-5.26,0-10.285,2.181-13.878,6.023c-11.891,12.716-28.004,19.719-45.373,19.719C8.506,463.438,0,471.944,0,482.436 c0,10.492,8.506,18.998,18.998,18.998c21.373,0,42.184-6.946,59.25-19.456c17.067,12.51,37.877,19.456,59.25,19.456 c21.375,0,42.184-6.946,59.25-19.456c17.067,12.51,37.877,19.456,59.251,19.456c21.375,0,42.184-6.946,59.25-19.456 c17.068,12.511,37.874,19.456,59.25,19.456c21.375,0,42.184-6.946,59.25-19.456c17.067,12.51,37.877,19.456,59.251,19.456 c10.492,0,18.998-8.506,18.998-18.998C511.999,471.944,503.496,463.438,493.004,463.438z M244.902,462.441H244.9 c-9.109-1.628-17.651-5.251-25.145-10.677l5.431-121.027c0.194-4.322-0.396-8.499-1.639-12.391 c-3.61-11.445-12.934-20.781-25.441-23.838l-96.791-23.646l27.977-69.543l115.609,26.446V462.441z M404.314,455.844 c-9.013,4.956-19.173,7.594-29.811,7.594c-17.37,0-33.484-7.003-45.373-19.719c-3.592-3.843-8.618-6.023-13.878-6.023 c-5.26,0-10.284,2.181-13.878,6.024c-5.383,5.758-11.637,10.33-18.477,13.626v-43.561h121.417V455.844z M404.314,375.787H282.897 v-37.079h121.417V375.787z M404.314,300.711H282.897v-43.423h121.417V300.711z"/> </g> </g> </g> </g>
</svg>