<!DOCTYPE svg PUBLIC "-//W3C//DTD SVG 1.1//EN" "http://www.w3.org/Graphics/SVG/1.1/DTD/svg11.dtd">
<!-- Uploaded to: SVG Repo, www.svgrepo.com, Transformed by: SVG Repo Mixer Tools -->
<svg fill="#ffffff" height="800px" width="800px" version="1.1" id="Capa_1" xmlns="http://www.w3.org/2000/svg" xmlns:xlink="http://www.w3.org/1999/xlink" viewBox="0 0 401.742 401.742" xml:space="preserve">
<g id="SVGRepo_bgCarrier" stroke-width="0"/>
<g id="SVGRepo_tracerCarrier" stroke-linecap="round" stroke-linejoin="round"/>
<g id="SVGRepo_iconCarrier"> <g> <path d="M376.497,211.957c-1.621-0.558-3.412-0.014-4.457,1.34l-11.035,14.283c-8.783,11.373-22.607,18.162-36.977,18.162 c-9.415,0-18.014-4.87-22.878-12.829v-57.732c23.88-3.613,42.242-24.275,42.242-49.147v-6.958c0-1.711-1.089-3.233-2.708-3.786 c-1.62-0.551-3.412-0.014-4.458,1.341l-11.034,14.284c-8.783,11.372-22.607,18.161-36.977,18.161 c-9.957,0-18.995-5.45-23.674-14.237V80.932h7.569c27.409,0,49.708-22.299,49.708-49.708v-6.958c0-1.711-1.089-3.233-2.708-3.786 c-1.619-0.555-3.412-0.014-4.458,1.341l-11.032,14.284c-8.785,11.372-22.608,18.161-36.979,18.161c-9.496,0-18.159-4.957-23-13.04 V4c0-2.209-1.791-4-4-4h-77.164c-2.209,0-4,1.791-4,4v36.556c-4.757,8.475-13.624,13.71-23.378,13.71 c-14.369,0-28.192-6.789-36.977-18.161L87.089,21.82c-1.047-1.354-2.84-1.894-4.458-1.341c-1.619,0.553-2.708,2.075-2.708,3.786 v6.958c0,27.409,22.299,49.708,49.708,49.708h7.57v53.906c-4.68,8.787-13.717,14.237-23.674,14.237 c-14.37,0-28.193-6.789-36.978-18.161L65.516,116.63c-1.047-1.354-2.839-1.895-4.458-1.341c-1.619,0.553-2.708,2.075-2.708,3.786 v6.958c0,24.872,18.362,45.534,42.242,49.147v57.733c-4.865,7.959-13.463,12.828-22.877,12.828 c-14.369,0-28.193-6.79-36.979-18.162l-11.034-14.283c-1.045-1.355-2.837-1.896-4.457-1.34c-1.619,0.553-2.708,2.074-2.708,3.785 v6.958c0,27.409,22.3,49.708,49.709,49.708h15.625v98H66.538c-2.209,0-4,1.791-4,4v23.334c0,2.209,1.791,4,4,4h268.667 c2.209,0,4-1.791,4-4v-23.334c0-2.209-1.791-4-4-4h-21.333v-98h15.625c27.409,0,49.708-22.299,49.708-49.708v-6.958 C379.205,214.031,378.116,212.51,376.497,211.957z M108.592,175.742h19.945v53.333h-19.945V175.742z M136.538,175.742h26.167 v53.333h-26.167V175.742z M170.705,175.742h26.167v53.333h-26.167V175.742z M204.872,175.742h26.166v53.333h-26.166V175.742z M239.038,175.742h26.167v53.333h-26.167V175.742z M273.205,175.742h19.945v53.333h-19.945V175.742z M235.642,37.599h-10.915V8 h10.915V37.599z M185.393,37.599V8h11.667v29.599H185.393z M205.06,8h11.667v29.599H205.06V8z M166.478,8h10.915v29.599h-10.915V8z M88.243,36.4l3.55,4.595c10.288,13.319,26.479,21.271,43.308,21.271c12.23,0,23.401-6.326,29.713-16.667h72.117 c6.311,10.341,17.481,16.667,29.712,16.667c16.83,0,33.021-7.951,43.31-21.271l3.548-4.594 c-2.559,20.563-20.144,36.53-41.389,36.53h-142.48C108.386,72.932,90.8,56.964,88.243,36.4z M256.542,80.932v51.477h-111.34V80.932 H256.542z M66.669,131.21l3.55,4.595c10.288,13.319,26.479,21.27,43.309,21.27c12.23,0,23.4-6.326,29.712-16.667h115.264 c6.311,10.341,17.48,16.667,29.712,16.667c16.831,0,33.021-7.951,43.309-21.27l3.549-4.595 c-2.558,20.564-20.143,36.532-41.389,36.532H108.059C86.814,167.742,69.228,151.774,66.669,131.21z M331.205,393.742H70.538 v-15.334h260.667V393.742z M226.872,289.078v81.33h-22v-81.33H226.872z M196.872,370.408h-22v-81.33h22V370.408z M305.872,370.408 h-71v-85.33c0-2.209-1.791-4-4-4h-60c-2.209,0-4,1.791-4,4v85.33h-71v-98h210V370.408z M329.497,264.408H72.247 c-21.245,0-38.832-15.968-41.39-36.531l3.549,4.594c10.29,13.319,26.479,21.271,43.31,21.271c12.23,0,23.4-6.326,29.712-16.667 h186.889c6.311,10.341,17.48,16.667,29.712,16.667c16.83,0,33.021-7.952,43.308-21.271l3.55-4.594 C368.33,248.441,350.743,264.408,329.497,264.408z"/> <path d="M160.538,123.742h80.667c2.209,0,4-1.791,4-4V94.156c0-2.209-1.791-4-4-4h-80.667c-2.209,0-4,1.791-4,4v25.586 C156.538,121.951,158.329,123.742,160.538,123.742z M164.538,98.156h72.667v17.586h-72.667V98.156z"/> <path d="M111.872,360.075h39.333c2.209,0,4-1.791,4-4v-69.333c0-2.209-1.791-4-4-4h-39.333c-2.209,0-4,1.791-4,4v69.333 C107.872,358.284,109.663,360.075,111.872,360.075z M115.872,352.075v-26.667h31.333v26.667H115.872z M147.205,290.742v26.666 h-31.333v-26.666H147.205z"/> <path d="M250.538,360.075h39.334c2.209,0,4-1.791,4-4v-69.333c0-2.209-1.791-4-4-4h-39.334c-2.209,0-4,1.791-4,4v69.333 C246.538,358.284,248.329,360.075,250.538,360.075z M254.538,352.075v-26.667h31.334v26.667H254.538z M285.872,290.742v26.666 h-31.334v-26.666H285.872z"/> </g> </g>
</svg>