<svg width="46" height="46" viewBox="0 0 46 46" fill="none" xmlns="http://www.w3.org/2000/svg">
<path d="M41.0971 19.2223C41.6655 19.4639 41.6655 19.8594 41.0971 20.0986L24.035 27.3413C23.3661 27.5825 22.6339 27.5825 21.965 27.3413L4.90288 20.101C4.33446 19.8594 4.33446 19.4615 4.90288 19.2223L21.965 11.9797C22.6339 11.7382 23.3661 11.7382 24.035 11.9797L41.0971 19.2223ZM24.9137 29.4136L34.3471 25.411V30.3397C34.3471 33.6413 29.2668 36.3176 23 36.3176C16.7331 36.3176 11.6552 33.6413 11.6552 30.3397V25.4086L21.0863 29.4113C22.317 29.8907 23.6829 29.8907 24.9137 29.4113V29.4136ZM36.6137 33.3855H40.5026V30.8015C40.5117 30.5403 40.4682 30.2799 40.3745 30.0359C40.2808 29.7919 40.139 29.5692 39.9574 29.3812C39.7758 29.1932 39.5582 29.0437 39.3176 28.9415C39.077 28.8394 38.8183 28.7868 38.557 28.7868C38.2956 28.7868 38.0369 28.8394 37.7963 28.9415C37.5557 29.0437 37.3381 29.1932 37.1565 29.3812C36.975 29.5692 36.8331 29.7919 36.7394 30.0359C36.6458 30.2799 36.6022 30.5403 36.6113 30.8015L36.6137 33.3855ZM38.5558 24.852C38.8154 24.8525 39.0693 24.776 39.2854 24.6321C39.5015 24.4882 39.67 24.2834 39.7697 24.0437C39.8694 23.804 39.8957 23.5401 39.8453 23.2854C39.795 23.0307 39.6702 22.7967 39.4868 22.613C39.3034 22.4292 39.0696 22.304 38.815 22.2532C38.5604 22.2024 38.2965 22.2283 38.0566 22.3275C37.8167 22.4267 37.6116 22.5949 37.4673 22.8107C37.3231 23.0266 37.246 23.2803 37.246 23.5399C37.246 23.8879 37.3843 24.2217 37.6303 24.4677C37.8764 24.7138 38.2102 24.852 38.5581 24.852H38.5558ZM38.5558 28.2034C38.8153 28.2038 39.0691 28.1273 39.2851 27.9836C39.5012 27.8398 39.6697 27.6351 39.7695 27.3956C39.8692 27.156 39.8957 26.8922 39.8455 26.6376C39.7953 26.383 39.6708 26.149 39.4876 25.9651C39.3044 25.7813 39.0709 25.6559 38.8164 25.6048C38.562 25.5537 38.2981 25.5793 38.0582 25.6781C37.8183 25.777 37.613 25.9448 37.4685 26.1603C37.3239 26.3758 37.2465 26.6294 37.246 26.8889C37.2457 27.0614 37.2794 27.2323 37.3452 27.3917C37.411 27.5512 37.5076 27.6961 37.6295 27.8182C37.7514 27.9403 37.8961 28.0372 38.0555 28.1033C38.2148 28.1693 38.3856 28.2034 38.5581 28.2034H38.5558Z" fill="#004274"/>
</svg>
