<svg width="51" height="50" viewBox="0 0 51 50" fill="none" xmlns="http://www.w3.org/2000/svg">
<path d="M20.1992 1C18.1659 1 16.5 2.66589 16.5 4.69922V15.4004C16.5 17.4337 18.1659 19.0996 20.1992 19.0996H30.9004C32.9337 19.0996 34.5996 17.4337 34.5996 15.4004V4.69922C34.5997 4.67707 34.599 4.65492 34.5977 4.63281C34.4647 2.63833 32.8341 1 30.8008 1H20.1992ZM20.1992 3H30.8008C31.7659 3 32.5305 3.75856 32.5996 4.76172V15.4004C32.5996 16.3671 31.8671 17.0996 30.9004 17.0996H20.1992C19.2326 17.0996 18.5 16.3671 18.5 15.4004V4.69922C18.5 3.73255 19.2326 3 20.1992 3ZM24.5 6V9H21.5V11H24.5V14H26.5V11H29.5V9H26.5V6H24.5ZM7.19922 9C5.16589 9 3.5 10.6659 3.5 12.6992V46H48.5V12.6992C48.5 10.6659 46.8341 9 44.8008 9H36.5V11H44.8008C45.7674 11 46.5 11.7326 46.5 12.6992V44H30.5V33H29.5H25.9004H20.5V44H5.5V12.6992C5.5 11.7326 6.23255 11 7.19922 11H14.5V9H7.19922ZM7.45898 21.959V30.041H16.541V21.959H15.5H11.4004H7.45898ZM20.459 21.959V30.041H30.541V21.959H29.5H25.4004H20.459ZM34.459 21.959V30.041H43.541V21.959H42.5H39.4004H34.459ZM9.54102 24.041H11.4004H14.459V27.959H9.54102V24.041ZM22.541 24.041H25.4004H28.459V27.959H22.541V24.041ZM36.541 24.041H39.4004H41.459V27.959H36.541V24.041ZM7.45898 32.959V41.041H16.541V32.959H15.5H11.4004H7.45898ZM34.459 32.959V41.041H43.541V32.959H42.5H39.4004H34.459ZM22.5 35H25.9004H28.5V44H22.5V35ZM9.54102 35.041H11.4004H14.459V38.959H9.54102V35.041ZM36.541 35.041H39.4004H41.459V38.959H36.541V35.041Z" fill="#004274"/>
</svg>
