<!DOCTYPE svg PUBLIC "-//W3C//DTD SVG 1.1//EN" "http://www.w3.org/Graphics/SVG/1.1/DTD/svg11.dtd">
<!-- Uploaded to: SVG Repo, www.svgrepo.com, Transformed by: SVG Repo Mixer Tools -->
<svg fill="#004274" height="800px" width="800px" version="1.1" id="Layer_1" xmlns="http://www.w3.org/2000/svg" xmlns:xlink="http://www.w3.org/1999/xlink" viewBox="0 0 512 512" xml:space="preserve" stroke="#004274">
<g id="SVGRepo_bgCarrier" stroke-width="0"/>
<g id="SVGRepo_tracerCarrier" stroke-linecap="round" stroke-linejoin="round"/>
<g id="SVGRepo_iconCarrier"> <g> <g> <g> <path d="M417.959,459.755V407.51h20.898c5.771,0,10.449-4.678,10.449-10.449v-41.796c0-3.113-1.362-5.909-3.522-7.823 l63.156-63.155c4.08-4.08,4.08-10.697,0-14.778l-31.347-31.347c-1.96-1.96-4.617-3.06-7.388-3.06c-0.016,0-0.031,0-0.047,0 c-2.788,0.013-5.454,1.139-7.407,3.127l-21.086,21.473l-16.315-16.315c-4.08-4.079-10.697-4.079-14.778,0l-70.082,70.082h-32.243 c-5.771,0-10.449,4.679-10.449,10.449v20.898H172.408v-15.673c0-3.809-1.041-7.372-2.827-10.449 c1.787-3.077,2.827-6.64,2.827-10.449v-15.673c0-11.523-9.375-20.898-20.898-20.898H67.918c-11.523,0-20.898,9.375-20.898,20.898 v15.673c0,3.809,1.041,7.372,2.827,10.449c-1.787,3.077-2.827,6.64-2.827,10.449v15.673H10.449 C4.678,344.816,0,349.495,0,355.265v41.796c0,5.771,4.678,10.449,10.449,10.449h20.898v52.245H0v20.898h41.796h31.347h303.02 h31.347H512v-20.898H417.959z M318.694,334.367h26.122c2.771,0,5.429-1.101,7.388-3.06l65.754-65.753l9.066,9.067l-68.832,70.196 h-39.499V334.367z M67.918,292.571h83.592l0.001,15.673H67.918V292.571z M67.918,329.143h83.592v15.673H67.918V329.143z M62.694,459.755H52.245V407.51h10.449V459.755z M365.714,459.755H83.592V407.51h282.122V459.755z M397.061,459.755h-10.449 V407.51h10.449V459.755z M376.163,386.612H73.143H41.796H20.898v-20.898h47.02h83.592h211.072c2.807,0,5.495-1.13,7.461-3.134 l79.198-80.77l21.031-21.415l16.503,16.502l-67.918,67.918h-21.794v20.898h26.122h5.224v20.898H407.51H376.163z"/> <path d="M331.15,124.276l-14.621,14.621l14.778,14.778l14.621-14.621c4.416,2.786,9.323,4.854,14.562,6.048v22.082h20.898 v-22.083c5.239-1.194,10.146-3.262,14.562-6.048l14.621,14.621l14.778-14.778l-14.621-14.621 c2.785-4.416,4.854-9.323,6.048-14.562h22.082V88.816h-22.083c-1.194-5.239-3.262-10.146-6.048-14.562l14.621-14.621 L410.57,44.855l-14.621,14.621c-4.416-2.786-9.323-4.855-14.562-6.048V31.347h-20.898V53.43 c-5.239,1.194-10.146,3.262-14.562,6.048l-14.621-14.621l-14.778,14.778l14.621,14.621c-2.785,4.416-4.854,9.323-6.048,14.562 H303.02v20.898h22.083C326.297,114.953,328.365,119.86,331.15,124.276z M370.939,73.143c14.404,0,26.122,11.719,26.122,26.122 s-11.719,26.122-26.122,26.122s-26.122-11.719-26.122-26.122S356.535,73.143,370.939,73.143z"/> <path d="M104.49,120.163c5.762,0,10.449,4.687,10.449,10.449h20.898c0-5.762,4.687-10.449,10.449-10.449 c5.762,0,10.449,4.687,10.449,10.449h20.898c0-17.285-14.062-31.347-31.347-31.347c-8.023,0-15.349,3.032-20.898,8.007 c-5.55-4.975-12.875-8.007-20.898-8.007c-17.285,0-31.347,14.062-31.347,31.347h20.898 C94.041,124.851,98.728,120.163,104.49,120.163z"/> <path d="M135.837,182.857h20.898c0-5.762,4.687-10.449,10.449-10.449c5.762,0,10.449,4.687,10.449,10.449h20.898 c0-5.762,4.687-10.449,10.449-10.449c5.762,0,10.449,4.687,10.449,10.449h20.898c0-17.285-14.062-31.347-31.347-31.347 c-8.023,0-15.349,3.032-20.898,8.007c-5.551-4.975-12.875-8.007-20.898-8.007C149.899,151.51,135.837,165.572,135.837,182.857z"/> </g> </g> </g> </g>
</svg>