<!DOCTYPE svg PUBLIC "-//W3C//DTD SVG 1.1//EN" "http://www.w3.org/Graphics/SVG/1.1/DTD/svg11.dtd">
<!-- Uploaded to: SVG Repo, www.svgrepo.com, Transformed by: SVG Repo Mixer Tools -->
<svg fill="#004274" version="1.1" id="Capa_1" xmlns="http://www.w3.org/2000/svg" xmlns:xlink="http://www.w3.org/1999/xlink" width="800px" height="800px" viewBox="0 0 569.16 569.16" xml:space="preserve">
<g id="SVGRepo_bgCarrier" stroke-width="0"/>
<g id="SVGRepo_tracerCarrier" stroke-linecap="round" stroke-linejoin="round"/>
<g id="SVGRepo_iconCarrier"> <g> <g> <path d="M471.108,96.392H36.27c-20,0-36.27,16.227-36.27,36.172v304.033c0,19.945,16.27,36.172,36.27,36.172h434.838 c20,0,36.273-16.227,36.273-36.172V132.564C507.382,112.619,491.108,96.392,471.108,96.392z M433.973,375.112 c0,2.922-2.708,3.938-6.047,2.268l-121.696-60.885c-3.339-1.672-5.994-0.656-5.931,2.264l0.79,35.902 c0.064,2.924-2.179,3.59-5.013,1.49L75.258,192.509c-2.833-2.099-2.359-2.512,1.056-0.924l152.73,71.01 c3.415,1.588,6.185,0.508,6.185-2.415v-45.282c0-2.922,2.723-3.957,6.086-2.307l186.571,91.438 c3.36,1.646,6.087,5.354,6.087,8.275V375.112z"/> <path d="M532.89,174.893c0,0-1.609,0-3.592,0c-1.983,0-3.593,2.727-3.593,6.086v207.199c0,3.361,1.606,6.086,3.593,6.086h3.592 c20,0,36.271-16.227,36.271-36.172V211.065C569.16,191.12,552.89,174.893,532.89,174.893z"/> </g> </g> </g>
</svg>