<svg width="76" height="75" viewBox="0 0 76 75" fill="none" xmlns="http://www.w3.org/2000/svg">
<path d="M37.9808 35.5954C49.2751 35.5954 58.4529 28.5531 58.4529 19.8868C58.4529 11.2204 49.2751 4.16333 37.9808 4.16333C26.6866 4.16333 17.5088 11.2057 17.5088 19.872C17.5088 28.5383 26.6866 35.5954 37.9808 35.5954Z" fill="#FFC10D"/>
<path d="M37.9807 12.7561C39.7893 12.7561 41.2708 13.8929 41.2708 15.2807C41.2708 16.4323 42.483 17.3624 43.9837 17.3624C45.4845 17.3624 46.6967 16.4323 46.6967 15.2807C46.6967 12.3132 44.1761 9.80335 40.6936 8.91752V7.86929C40.6936 6.71772 39.4814 5.7876 37.9807 5.7876C36.4799 5.7876 35.2677 6.71772 35.2677 7.86929V8.91752C31.7852 9.80335 29.2646 12.3132 29.2646 15.2807C29.2646 18.9717 32.8626 21.9687 37.6728 21.9687C37.6151 21.9687 37.6728 21.9687 37.692 21.9687C39.3467 22.1016 41.29 23.1646 41.29 24.4638C41.29 25.8516 39.8085 26.9884 37.9999 26.9884C36.1913 26.9884 34.7097 25.8516 34.7097 24.4638C34.7097 23.3122 33.4976 22.3821 31.9968 22.3821C30.496 22.3821 29.2839 23.3122 29.2839 24.4638C29.2839 27.4313 31.8044 29.9411 35.287 30.827V31.8752C35.287 33.0268 36.4991 33.9569 37.9999 33.9569C39.5007 33.9569 40.7128 33.0268 40.7128 31.8752V30.827C44.1954 29.9559 46.7159 27.4313 46.7159 24.4638C46.7159 20.7728 42.483 17.7758 37.6728 17.7758C37.5574 17.7758 37.769 17.7758 37.6728 17.7906C35.9989 17.6724 34.7097 16.5799 34.7097 15.2807C34.6905 13.8929 36.172 12.7561 37.9807 12.7561Z" fill="#194F82"/>
<path d="M41.5979 60L55.6243 49.2372C56.6826 48.4252 58.395 48.4252 59.4725 49.2372C60.5307 50.0492 60.5307 51.3632 59.4725 52.1899L45.4268 62.9675C58.6451 60.5315 68.708 51.8504 69.9201 41.2205C56.0861 42.1653 44.7726 49.8868 41.5979 60Z" fill="#56ACE0"/>
<path d="M20.3753 49.2667L34.3632 60C31.1885 49.8868 19.875 42.1653 6.04102 41.2205C7.25318 51.8356 17.316 60.5167 30.5151 62.9527L16.5272 52.2195C15.4689 51.4075 15.4689 50.0935 16.5272 49.2667C17.5854 48.4547 19.2978 48.4547 20.3753 49.2667Z" fill="#56ACE0"/>
<path d="M72.7678 36.9685C56.9135 36.9685 46.4659 43.4941 40.7129 50.7431V39.6555C53.7196 38.6073 63.8979 30.1476 63.8979 19.8868C63.8787 8.91732 52.2573 0 37.9808 0C23.7042 0 12.0829 8.91732 12.0829 19.8868C12.0829 30.1476 22.2612 38.6073 35.2678 39.6555V50.7431C29.4956 43.4941 19.048 36.9685 3.21293 36.9685C1.71216 36.9685 0.5 37.8986 0.5 39.0502C0.5 54.2126 15.8733 66.6585 35.2871 67.7362V72.9183C35.2871 74.0699 36.4992 75 38 75C39.5008 75 40.7129 74.0699 40.7129 72.9183V67.7362C60.1267 66.6585 75.5 54.2126 75.5 39.0502C75.4808 37.8986 74.2494 36.9685 72.7678 36.9685ZM45.4461 62.9528L59.4918 52.1752C60.55 51.3632 60.55 50.0492 59.4918 49.2224C58.4336 48.4104 56.7211 48.4104 55.6437 49.2224L41.6172 59.9852C44.7727 49.8573 56.0862 42.1358 69.9395 41.2057C68.7081 51.8504 58.6452 60.5315 45.4461 62.9528ZM37.9808 4.16339C49.275 4.16339 58.4528 11.2057 58.4528 19.872C58.4528 28.5384 49.275 35.5955 37.9808 35.5955C26.6865 35.5955 17.5087 28.5532 17.5087 19.8868C17.5087 11.2205 26.6865 4.16339 37.9808 4.16339ZM16.5275 52.2195L30.5154 62.9528C17.3163 60.5315 7.25346 51.8504 6.0413 41.2205C19.8753 42.1506 31.1888 49.872 34.3635 60L20.3756 49.2667C19.3173 48.4547 17.6049 48.4547 16.5275 49.2667C15.4692 50.0787 15.4692 51.4075 16.5275 52.2195Z" fill="#194F82"/>
</svg>
