<!DOCTYPE svg PUBLIC "-//W3C//DTD SVG 1.1//EN" "http://www.w3.org/Graphics/SVG/1.1/DTD/svg11.dtd">
<!-- Uploaded to: SVG Repo, www.svgrepo.com, Transformed by: SVG Repo Mixer Tools -->
<svg fill="#ffffff" height="800px" width="800px" version="1.1" id="Layer_1" xmlns="http://www.w3.org/2000/svg" xmlns:xlink="http://www.w3.org/1999/xlink" viewBox="0 0 502.399 502.399" xml:space="preserve">
<g id="SVGRepo_bgCarrier" stroke-width="0"/>
<g id="SVGRepo_tracerCarrier" stroke-linecap="round" stroke-linejoin="round"/>
<g id="SVGRepo_iconCarrier"> <g> <g> <path d="M480,194.133h-38.4L428.8,74.666c-1.067-10.667-9.6-18.133-20.267-18.133h-214.4c-9.6,0-17.067,5.333-20.267,13.867 L131.2,194.133H93.867c-5.333,0-9.6,2.133-13.867,5.333l-72.533,60.8c-5.333,4.267-7.467,9.6-7.467,16v77.867 c0,11.733,9.6,21.333,21.333,21.333h37.333c9.6,40.533,44.8,70.4,88.533,70.4c42.667,0,78.933-29.867,88.533-69.333h30.933 c9.6,39.467,44.8,69.333,88.533,69.333c43.733,0,78.933-29.867,88.533-69.333h37.333c11.733,0,21.333-8.533,21.333-20.267v-140.8 C501.333,203.733,491.733,194.133,480,194.133z M331.733,99.2h57.6L400,194.133h-68.267V99.2z M208,99.2h81.067v94.933H176 L208,99.2z M147.2,404.266c-26.667,0-49.067-22.4-49.067-49.067c0-26.667,22.4-49.067,49.067-49.067 c26.667,0,49.067,22.4,49.067,49.067C196.267,381.866,173.867,404.266,147.2,404.266z M354.134,404.266 c-26.667,0-49.067-22.4-49.067-49.067c0-26.667,22.4-49.067,49.067-49.067c26.667,0,49.067,22.4,49.067,49.067 C403.2,381.866,380.8,404.266,354.134,404.266z M442.667,333.867c-9.6-39.467-44.8-69.333-88.533-69.333 c-43.733,0-78.933,29.867-88.533,69.333h-30.933c-9.6-39.467-44.8-69.333-88.533-69.333c-42.667,0-77.867,28.8-87.467,68.267 H40.534v-46.933l59.733-51.2H457.6v99.2H442.667z"/> </g> </g> </g>
</svg>