<!DOCTYPE svg PUBLIC "-//W3C//DTD SVG 1.1//EN" "http://www.w3.org/Graphics/SVG/1.1/DTD/svg11.dtd">
<!-- Uploaded to: SVG Repo, www.svgrepo.com, Transformed by: SVG Repo Mixer Tools -->
<svg fill="#ffffff" version="1.1" id="Layer_1" xmlns="http://www.w3.org/2000/svg" xmlns:xlink="http://www.w3.org/1999/xlink" viewBox="0 0 512 512" xml:space="preserve" width="800px" height="800px">
<g id="SVGRepo_bgCarrier" stroke-width="0"/>
<g id="SVGRepo_tracerCarrier" stroke-linecap="round" stroke-linejoin="round"/>
<g id="SVGRepo_iconCarrier"> <g> <g> <rect x="276.882" y="41.811" width="15.71" height="20.896"/> </g> </g> <g> <g> <rect x="224.641" y="41.811" width="15.71" height="20.896"/> </g> </g> <g> <g> <path d="M334.381,394.42v-88.772h20.896v-78.399h-26.12V23.546H446.68V7.836H70.544v15.71h117.524v203.703h-26.12v78.399h20.896 v88.772H0v109.744h512V394.42H334.381z M203.777,23.546h109.669v156.685h-91.402v15.71h91.402v31.307H203.777V23.546z M177.657,289.936v-46.979h161.909v46.979H177.657z M235.123,350.033v-44.386h83.548v88.772H198.554v-88.772h20.859v44.386 H235.123z M496.29,488.454H15.71V410.13h480.58V488.454z"/> </g> </g> <g> <g> <rect x="271.655" y="318.691" width="15.71" height="20.896"/> </g> </g> <g> <g> <rect x="250.761" y="350.037" width="15.71" height="20.897"/> </g> </g> <g> <g> <rect x="49.643" y="436.211" width="125.375" height="15.71"/> </g> </g> <g> <g> <rect x="195.923" y="436.211" width="36.569" height="15.71"/> </g> </g> <g> <g> <rect x="425.78" y="446.664" width="26.12" height="15.71"/> </g> </g> <g> <g> <rect x="383.992" y="436.211" width="26.12" height="15.71"/> </g> </g> <g> <g> <rect x="300.404" y="436.211" width="26.12" height="15.71"/> </g> </g> </g>
</svg>