<!DOCTYPE svg PUBLIC "-//W3C//DTD SVG 1.1//EN" "http://www.w3.org/Graphics/SVG/1.1/DTD/svg11.dtd">
<!-- Uploaded to: SVG Repo, www.svgrepo.com, Transformed by: SVG Repo Mixer Tools -->
<svg fill="#ffffff" height="800px" width="800px" version="1.1" id="Capa_1" xmlns="http://www.w3.org/2000/svg" xmlns:xlink="http://www.w3.org/1999/xlink" viewBox="0 0 475.908 475.908" xml:space="preserve">
<g id="SVGRepo_bgCarrier" stroke-width="0"/>
<g id="SVGRepo_tracerCarrier" stroke-linecap="round" stroke-linejoin="round"/>
<g id="SVGRepo_iconCarrier"> <path d="M204.269,269.022v82.632c0,4.143-3.358,7.5-7.5,7.5s-7.5-3.357-7.5-7.5v-82.632c0-4.143,3.358-7.5,7.5-7.5 S204.269,264.879,204.269,269.022z M0,367.951c0-4.143,3.358-7.5,7.5-7.5c27.633,0,50.114-22.48,50.114-50.113 c0-4.143,3.358-7.5,7.5-7.5s7.5,3.357,7.5,7.5c0,27.633,22.481,50.113,50.113,50.113c14.415,0,27.915-6.099,37.438-16.809v-74.666 c-27.964-13.089-45.766-40.838-45.766-72.078c0-43.345,34.82-78.687,77.955-79.582c0.26-0.027,0.524-0.042,0.791-0.042h142.744 V29.961c0-4.143,3.358-7.5,7.5-7.5s7.5,3.357,7.5,7.5v87.313h9.155c43.905,0,79.624,35.719,79.624,79.624 s-35.719,79.624-79.624,79.624h-9.155v82.747c0,0.382-0.038,0.755-0.093,1.122c0.791,0.037,1.585,0.061,2.385,0.061 c27.632,0,50.113-22.48,50.113-50.113c0-4.143,3.358-7.5,7.5-7.5s7.5,3.357,7.5,7.5c0,27.633,22.481,50.113,50.113,50.113 c4.142,0,7.5,3.357,7.5,7.5s-3.358,7.5-7.5,7.5c-24.962,0-46.689-14.121-57.613-34.793c-10.924,20.672-32.651,34.793-57.613,34.793 c-24.962,0-46.69-14.121-57.614-34.793c-10.924,20.672-32.651,34.793-57.613,34.793c-6.737,0-13.378-1.028-19.742-3.052 c-0.033-0.01-0.066-0.019-0.099-0.029c-0.007-0.002-0.014-0.004-0.022-0.006c-0.047-0.015-0.09-0.036-0.136-0.051 c-0.184-0.063-0.367-0.128-0.544-0.205c-0.104-0.045-0.203-0.097-0.304-0.146c-0.115-0.056-0.232-0.109-0.344-0.171 c-0.14-0.077-0.273-0.162-0.406-0.247c-0.067-0.042-0.136-0.082-0.201-0.126c-0.152-0.103-0.296-0.214-0.438-0.328 c-0.044-0.035-0.09-0.067-0.133-0.103c-0.146-0.121-0.283-0.249-0.418-0.38c-0.037-0.036-0.076-0.07-0.113-0.107 c-0.128-0.13-0.249-0.266-0.367-0.404c-0.04-0.046-0.081-0.091-0.12-0.138c-0.106-0.131-0.205-0.267-0.302-0.404 c-0.044-0.062-0.09-0.122-0.132-0.185c-0.086-0.13-0.164-0.263-0.242-0.398c-0.044-0.077-0.091-0.151-0.132-0.229 c-0.071-0.133-0.133-0.269-0.195-0.406c-0.038-0.083-0.079-0.165-0.114-0.25c-0.062-0.149-0.114-0.302-0.166-0.455 c-0.025-0.074-0.054-0.146-0.076-0.222c-0.058-0.188-0.104-0.379-0.147-0.572c-0.009-0.042-0.021-0.082-0.03-0.124 c-0.109-0.535-0.161-1.085-0.149-1.642V240.003c0-5.102-4.15-9.252-9.251-9.252h-19.215c-3.139,0-5.913,1.575-7.586,3.972 c-0.184,0.974-0.563,1.928-1.154,2.802c-0.076,0.113-0.165,0.211-0.246,0.319c-0.167,0.694-0.265,1.414-0.265,2.159v106.254 c0.001,0.037,0,0.074,0,0.111v27.01c0,4.143-3.358,7.5-7.5,7.5s-7.5-3.357-7.5-7.5v-9.74c-10.831,7.63-23.821,11.814-37.438,11.814 c-24.962,0-46.689-14.121-57.613-34.793C54.19,361.33,32.462,375.451,7.5,375.451C3.358,375.451,0,372.094,0,367.951z M220.149,222.27c6.54-6.739,10.306-15.807,10.306-25.372c0-20.089-16.343-36.432-36.431-36.432s-36.431,16.343-36.431,36.432 c0,9.581,3.765,18.635,10.306,25.371c4.334-4.039,10.14-6.518,16.517-6.518h19.215C210.008,215.751,215.815,218.23,220.149,222.27z M335.889,276.522H227.882v82.912c3.297,0.672,6.667,1.018,10.072,1.018c27.632,0,50.113-22.48,50.113-50.113 c0-4.143,3.358-7.5,7.5-7.5s7.5,3.357,7.5,7.5c0,21.558,13.684,39.978,32.821,47.036V276.522z M282.965,132.274 c4.28,4.137,8.144,9.101,11.538,14.876c9.859,16.778,13.372,36.699,13.372,49.748c0,13.046-3.513,32.964-13.372,49.744 c-3.394,5.777-7.259,10.742-11.54,14.88h77.081c35.634,0,64.624-28.99,64.624-64.624s-28.99-64.624-64.624-64.624H282.965z M160.165,251.973v-11.97c0-1.396,0.125-2.763,0.353-4.096c-11.314-9.718-17.926-23.904-17.926-39.01 c0-28.359,23.072-51.432,51.431-51.432s51.431,23.072,51.431,51.432c0,15.076-6.622,29.279-17.927,38.999 c0.229,1.336,0.355,2.706,0.355,4.106v21.519h17.941c14.956,0,26.983-7.563,35.747-22.479c8.335-14.187,11.305-31.072,11.305-42.146 c0-21.085-11.501-64.624-47.052-64.624h-5.369c20.082,14.469,33.193,38.037,33.193,64.624c0,17.723-5.699,34.498-16.481,48.513 c-2.524,3.283-7.234,3.898-10.518,1.371c-3.283-2.525-3.897-7.234-1.371-10.518c8.747-11.369,13.37-24.981,13.37-39.366 c0-35.634-28.99-64.624-64.625-64.624c-35.634,0-64.624,28.99-64.624,64.624C129.399,219.789,141.177,240.369,160.165,251.973z M468.408,438.447c-13.396,0-25.988-5.22-35.456-14.698c-2.927-2.929-7.676-2.933-10.606-0.006 c-2.931,2.928-2.933,7.677-0.006,10.607c12.301,12.314,28.662,19.097,46.068,19.097c4.142,0,7.5-3.357,7.5-7.5 S472.55,438.447,468.408,438.447z M410.794,380.833c-4.142,0-7.5,3.357-7.5,7.5c0,27.633-22.481,50.113-50.113,50.113 c-27.633,0-50.114-22.48-50.114-50.113c0-4.143-3.358-7.5-7.5-7.5s-7.5,3.357-7.5,7.5c0,27.633-22.48,50.113-50.113,50.113 s-50.113-22.48-50.113-50.113c0-4.143-3.358-7.5-7.5-7.5s-7.5,3.357-7.5,7.5c0,27.633-22.481,50.113-50.114,50.113 c-27.633,0-50.113-22.48-50.113-50.113c0-4.143-3.358-7.5-7.5-7.5s-7.5,3.357-7.5,7.5c0,27.633-22.481,50.113-50.114,50.113 c-4.142,0-7.5,3.357-7.5,7.5s3.358,7.5,7.5,7.5c24.962,0,46.69-14.121,57.614-34.793c10.924,20.672,32.651,34.793,57.613,34.793 s46.689-14.121,57.614-34.793c10.924,20.672,32.651,34.793,57.613,34.793s46.689-14.121,57.613-34.793 c10.924,20.672,32.651,34.793,57.614,34.793c35.904,0,65.113-29.21,65.113-65.113C418.294,384.191,414.937,380.833,410.794,380.833z "/> </g>
</svg>