<!DOCTYPE svg PUBLIC "-//W3C//DTD SVG 1.1//EN" "http://www.w3.org/Graphics/SVG/1.1/DTD/svg11.dtd">
<!-- Uploaded to: SVG Repo, www.svgrepo.com, Transformed by: SVG Repo Mixer Tools -->
<svg fill="#ffffff" version="1.1" id="Capa_1" xmlns="http://www.w3.org/2000/svg" xmlns:xlink="http://www.w3.org/1999/xlink" width="800px" height="800px" viewBox="0 0 31.84 31.84" xml:space="preserve">
<g id="SVGRepo_bgCarrier" stroke-width="0"/>
<g id="SVGRepo_tracerCarrier" stroke-linecap="round" stroke-linejoin="round"/>
<g id="SVGRepo_iconCarrier"> <g> <g> <circle cx="28.869" cy="19.435" r="1.634"/> <circle cx="20.015" cy="19.435" r="1.633"/> <circle cx="11.469" cy="19.279" r="1.633"/> <path d="M4.598,19.28c0-0.904-0.729-1.634-1.633-1.634c-0.901,0-1.631,0.729-1.631,1.634c0,0.901,0.729,1.632,1.631,1.632 C3.869,20.912,4.598,20.182,4.598,19.28z"/> <circle cx="28.647" cy="24.542" r="2.351"/> <polygon points="31.67,27.889 29.776,27.245 28.908,28.285 28.017,27.245 25.937,27.889 25.937,31.773 31.802,31.773 "/> <circle cx="20.015" cy="24.542" r="2.351"/> <polygon points="20.922,27.245 20.056,28.285 19.16,27.245 17.083,27.889 17.083,31.773 22.945,31.773 22.813,27.889 "/> <circle cx="24.154" cy="21.261" r="1.719"/> <path d="M26.296,26.448c-0.308-0.579-0.521-1.206-0.521-1.906c0-0.461,0.125-0.888,0.266-1.303h-0.169h-0.419h-0.639L24.185,24 l-0.654-0.762h-0.674h-0.379c0.174,0.4,0.272,0.841,0.272,1.303c0,0.755-0.265,1.447-0.7,2.014h4.246V26.448z"/> <path d="M11.603,26.959c1.296,0,2.349-1.055,2.349-2.35c0-1.297-1.053-2.352-2.349-2.352c-1.297,0-2.352,1.055-2.352,2.352 C9.252,25.904,10.307,26.959,11.603,26.959z"/> <polygon points="12.512,27.311 11.642,28.35 10.748,27.311 8.673,27.954 8.673,31.84 14.535,31.84 14.405,27.954 "/> <circle cx="15.741" cy="21.328" r="1.72"/> <path d="M17.886,26.516c-0.307-0.58-0.521-1.207-0.521-1.906c0-0.461,0.123-0.89,0.264-1.305h-0.168h-0.419h-0.638l-0.634,0.762 l-0.654-0.762h-0.673h-0.376c0.173,0.402,0.273,0.842,0.273,1.303c0,0.756-0.265,1.447-0.702,2.015h4.248V26.516z"/> <path d="M0.616,24.609c0,1.295,1.052,2.35,2.353,2.35c1.295,0,2.349-1.055,2.349-2.35c0-1.297-1.054-2.352-2.349-2.352 C1.668,22.258,0.616,23.312,0.616,24.609z"/> <polygon points="3.875,27.311 3.008,28.35 2.111,27.311 0.038,27.954 0.038,31.84 5.899,31.84 5.768,27.954 "/> <circle cx="7.107" cy="21.328" r="1.72"/> <path d="M9.25,26.516c-0.305-0.58-0.521-1.207-0.521-1.906c0-0.461,0.125-0.89,0.265-1.305H8.826H8.404H7.77l-0.634,0.762 l-0.654-0.762H5.809H5.433c0.175,0.402,0.274,0.842,0.274,1.303c0,0.756-0.266,1.447-0.704,2.015h4.249L9.25,26.516z"/> <path d="M16.087,4.251c-2.049,0-3.716,1.667-3.716,3.713c0,2.049,1.667,3.715,3.716,3.715c2.047,0,3.713-1.666,3.713-3.715 C19.8,5.917,18.134,4.251,16.087,4.251z M14.945,9.723V6.322l3.554,1.7L14.945,9.723z"/> <path d="M31.625,0H0.215v16.078h31.41V0z M16.087,12.969c-2.759,0-5.004-2.245-5.004-5.004c0-2.758,2.245-5.003,5.004-5.003 c2.758,0,5.003,2.245,5.003,5.003C21.09,10.724,18.845,12.969,16.087,12.969z"/> </g> </g> </g>
</svg>