<!DOCTYPE svg PUBLIC "-//W3C//DTD SVG 1.1//EN" "http://www.w3.org/Graphics/SVG/1.1/DTD/svg11.dtd">
<!-- Uploaded to: SVG Repo, www.svgrepo.com, Transformed by: SVG Repo Mixer Tools -->
<svg fill="#ffffff" width="800px" height="800px" viewBox="0 0 64 64" id="Layer_1" version="1.1" xml:space="preserve" xmlns="http://www.w3.org/2000/svg" xmlns:xlink="http://www.w3.org/1999/xlink">
<g id="SVGRepo_bgCarrier" stroke-width="0"/>
<g id="SVGRepo_tracerCarrier" stroke-linecap="round" stroke-linejoin="round"/>
<g id="SVGRepo_iconCarrier"> <g> <path d="M16.4,19.4c-1.3,0-2.3,1-2.3,2.3v4.6c0,1.3,1,2.3,2.3,2.3h5.7c1.3,0,2.3-1,2.3-2.3v-4.6c0-1.3-1-2.3-2.3-2.3H16.4z M20.5,24.6h-2.3v-1.2h2.3V24.6z"/> <path d="M56.8,47.5C56.8,47.5,56.8,47.5,56.8,47.5c-0.1,0-0.1-0.1-0.1-0.1c-2.6-1.4-5-3-7.2-5.1c-2-2-3.5-4.2-4.8-6.7 c-2.9-5.1-7.1-9.1-12.4-11.6c0-0.7,0-1.4,0-2.2c0-1.6,0-3.2,0-4.8c0,0,0-0.1,0-0.1c0,0,0,0,0-0.1c0-0.6-0.4-1.1-0.8-1.4 c-0.1-0.1-0.1-0.1-0.2-0.2c-3.7-2.6-7.4-5.2-11-7.7c-0.5-0.4-1.5-0.4-2,0C14.6,10.4,11,13.2,7.3,16c0,0-0.1,0.1-0.1,0.1 c-0.5,0.3-0.9,0.8-0.9,1.6c0,11.2,0,22.4,0,33.6c0,1.6,0,3.2,0,4.8c0,2.6,4,2.6,4,0c0-1.2,0-2.5,0-3.7h18c0,1.2,0,2.5,0,3.7 c0,2.6,4,2.6,4,0c0-6,0-11.9,0-17.9c0.1,0.1,0.2,0.2,0.3,0.4c0.2,0.3,0.2,0.3,0.6,0.8c0.3,0.4,0.6,0.9,0.9,1.4 c1.6,2.5,3.2,5.1,5,7.5c2,2.6,4.1,5.2,6.8,7.1c2.9,2.1,6.2,3,9.7,3.1c0.9,0,1.4-0.4,1.7-1c0.2-0.3,0.3-0.6,0.3-1c0-2.1,0-4.2,0-6.3 c0-0.3,0-0.6,0-0.9c0,0,0,0,0,0C57.7,48.6,57.5,48,56.8,47.5z M10.3,35.7h18c0,1.4,0,2.9,0,4.3h-18C10.3,38.6,10.3,37.2,10.3,35.7z M28.3,18.1c0,4.5,0,9.1,0,13.6h-18c0-3.1,0-6.2,0-9.2c0-1.3,0-2.5,0-3.8c3-2.3,6-4.6,9-6.8C22.3,13.9,25.3,16,28.3,18.1z M10.3,44 h18c0,1.4,0,2.9,0,4.3h-18C10.3,46.9,10.3,45.5,10.3,44z M41.6,44.8c-1.6-2.2-3-4.5-4.5-6.7c-1.4-2.1-3-3.7-4.9-5.3 c0-1.4,0-2.8,0-4.1c1.5,0.8,2.9,1.8,4.1,2.9c2.4,2.2,3.9,4.7,5.5,7.5c2.8,4.9,6.9,8.6,11.7,11.4c0,1.3,0,2.5,0,3.8 c-2.3-0.4-4.3-1.2-6.1-2.7C45.2,49.6,43.3,47.2,41.6,44.8z"/> </g> </g>
</svg>