<!DOCTYPE svg PUBLIC "-//W3C//DTD SVG 1.1//EN" "http://www.w3.org/Graphics/SVG/1.1/DTD/svg11.dtd">
<!-- Uploaded to: SVG Repo, www.svgrepo.com, Transformed by: SVG Repo Mixer Tools -->
<svg fill="#ffffff" version="1.1" id="Layer_1" xmlns="http://www.w3.org/2000/svg" xmlns:xlink="http://www.w3.org/1999/xlink" viewBox="0 0 512 512" xml:space="preserve" width="800px" height="800px">
<g id="SVGRepo_bgCarrier" stroke-width="0"/>
<g id="SVGRepo_tracerCarrier" stroke-linecap="round" stroke-linejoin="round"/>
<g id="SVGRepo_iconCarrier"> <g> <g> <path d="M458.927,125.041V67.655H334.592v57.386H177.408V67.655H53.073v57.386H0v319.304h512V125.041H458.927z M367.983,101.046 h57.552v23.995h-57.552V101.046z M86.465,101.046h57.552v23.995H86.465V101.046z M478.609,410.953H33.391V158.432h445.217V410.953 z"/> </g> </g> <g> <g> <polygon points="248.654,267.997 271.488,211.275 240.512,198.806 199.217,301.388 263.346,301.388 240.512,358.11 271.488,370.579 312.783,267.997 "/> </g> </g> <g> <g> <polygon points="131.937,216.589 131.937,193.921 98.546,193.921 98.546,216.589 75.877,216.589 75.877,249.98 98.546,249.98 98.546,272.648 131.937,272.648 131.937,249.98 154.604,249.98 154.604,216.589 "/> </g> </g> <g> <g> <rect x="357.398" y="216.587" width="78.726" height="33.391"/> </g> </g> </g>
</svg>