<!DOCTYPE svg PUBLIC "-//W3C//DTD SVG 1.1//EN" "http://www.w3.org/Graphics/SVG/1.1/DTD/svg11.dtd">
<!-- Uploaded to: SVG Repo, www.svgrepo.com, Transformed by: SVG Repo Mixer Tools -->
<svg width="800px" height="800px" viewBox="0 0 1024 1024" fill="#ffffff" class="icon" version="1.1" xmlns="http://www.w3.org/2000/svg">
<g id="SVGRepo_bgCarrier" stroke-width="0"/>
<g id="SVGRepo_tracerCarrier" stroke-linecap="round" stroke-linejoin="round"/>
<g id="SVGRepo_iconCarrier">
<path d="M465.454545 405.643636V178.734545L405.876364 0H59.578182L0 178.734545V488.727273h413.090909A52.363636 52.363636 0 0 1 465.454545 541.090909V1024h93.09091V541.090909a145.687273 145.687273 0 0 0-93.09091-135.447273zM338.850909 93.090909l15.592727 46.545455H111.010909l15.592727-46.545455zM279.272727 395.636364v-93.090909H186.181818v93.090909H93.090909v-162.909091h279.272727v162.909091zM628.363636 674.909091a46.545455 46.545455 0 0 0 32.814546-13.730909l49.338182-49.338182 53.76-10.705455a41.192727 41.192727 0 0 1 11.403636 7.68l11.636364 11.636364a137.076364 137.076364 0 0 0 193.861818 0l29.090909-29.090909a46.545455 46.545455 0 0 0-65.861818-65.861818l-29.090909 29.090909a45.149091 45.149091 0 0 1-62.138182 0l-11.636364-11.636364a137.076364 137.076364 0 0 0-193.861818 0l-52.363636 52.363637A46.545455 46.545455 0 0 0 628.363636 674.909091zM944.64 758.458182l-29.090909 29.090909a45.149091 45.149091 0 0 1-62.138182 0l-11.636364-11.636364a137.076364 137.076364 0 0 0-193.861818 0l-52.363636 52.363637a46.545455 46.545455 0 1 0 65.861818 65.861818l49.338182-49.338182 53.76-10.705455a41.192727 41.192727 0 0 1 11.403636 7.68l11.636364 11.636364a137.076364 137.076364 0 0 0 193.861818 0l29.090909-29.090909a46.545455 46.545455 0 0 0-65.861818-65.861818zM69.818182 628.363636m-46.545455 0a46.545455 46.545455 0 1 0 93.090909 0 46.545455 46.545455 0 1 0-93.090909 0ZM349.090909 628.363636m-46.545454 0a46.545455 46.545455 0 1 0 93.090909 0 46.545455 46.545455 0 1 0-93.090909 0ZM69.818182 907.636364m-46.545455 0a46.545455 46.545455 0 1 0 93.090909 0 46.545455 46.545455 0 1 0-93.090909 0ZM349.090909 907.636364m-46.545454 0a46.545455 46.545455 0 1 0 93.090909 0 46.545455 46.545455 0 1 0-93.090909 0ZM209.454545 768m-46.545454 0a46.545455 46.545455 0 1 0 93.090909 0 46.545455 46.545455 0 1 0-93.090909 0Z"/>
</g>
</svg>