<!DOCTYPE svg PUBLIC "-//W3C//DTD SVG 1.1//EN" "http://www.w3.org/Graphics/SVG/1.1/DTD/svg11.dtd">
<!-- Uploaded to: SVG Repo, www.svgrepo.com, Transformed by: SVG Repo Mixer Tools -->
<svg fill="#ffffff" height="800px" width="800px" version="1.1" id="Capa_1" xmlns="http://www.w3.org/2000/svg" xmlns:xlink="http://www.w3.org/1999/xlink" viewBox="0 0 480 480" xml:space="preserve">
<g id="SVGRepo_bgCarrier" stroke-width="0"/>
<g id="SVGRepo_tracerCarrier" stroke-linecap="round" stroke-linejoin="round"/>
<g id="SVGRepo_iconCarrier"> <g> <path d="M409.706,70.295C364.375,24.965,304.106,0,240,0S115.625,24.965,70.294,70.295C24.964,115.624,0,175.894,0,240 s24.964,124.376,70.294,169.706S175.894,480,240,480s124.375-24.964,169.706-70.294S480,304.106,480,240 S455.036,115.624,409.706,70.295z M398.392,81.608C440.7,123.916,464,180.168,464,240c0,56.209-20.567,109.255-58.134,150.552 L287.314,272h96.688C397.234,272,408,261.234,408,248.002v-16.003C408,218.766,397.234,208,384.001,208H256.002 c-4.418,0-8,3.582-8,8s3.582,8,8,8H360v32h-88.686L89.448,74.135C130.745,36.566,183.791,16,240,16 C299.833,16,356.084,39.3,398.392,81.608z M384.001,224c4.411,0,7.999,3.588,7.999,7.999v16.003c0,4.41-3.588,7.998-7.999,7.998 H376v-32H384.001z M88,256v-32h72v32H88z M176,224h40.002c0.22,0,0.436-0.016,0.651-0.033L248.686,256H176V224z M81.608,398.393 C39.3,356.084,16,299.833,16,240c0-58.105,21.979-112.831,61.996-154.69L200.686,208H80c-4.418,0-8,3.582-8,8v48 c0,4.418,3.582,8,8,8h184.686l130.005,130.005C352.831,442.022,298.105,464,240,464C180.167,464,123.916,440.7,81.608,398.393z"/> <path d="M278.267,98.89C285.434,91.867,294.907,88,304.941,88c21.018,0,38.117,17.1,38.117,38.118 c0,5.905-1.357,11.616-4.033,16.976c-1.125,2.252-1.124,4.901,0.002,7.153c1.126,2.251,3.246,3.841,5.722,4.292 C362.857,157.835,376,173.59,376,192c0,4.418,3.582,8,8,8s8-3.582,8-8c0-22.894-14.313-42.897-35.139-50.662 c1.46-4.926,2.197-10.017,2.197-15.22c0-29.841-24.277-54.118-54.117-54.118c-14.247,0-27.696,5.49-37.872,15.46 c-3.156,3.093-3.208,8.157-0.116,11.313C270.046,101.931,275.111,101.98,278.267,98.89z"/> </g> </g>
</svg>