<!DOCTYPE svg PUBLIC "-//W3C//DTD SVG 1.1//EN" "http://www.w3.org/Graphics/SVG/1.1/DTD/svg11.dtd">
<!-- Uploaded to: SVG Repo, www.svgrepo.com, Transformed by: SVG Repo Mixer Tools -->
<svg fill="#ffffff" version="1.1" id="Capa_1" xmlns="http://www.w3.org/2000/svg" xmlns:xlink="http://www.w3.org/1999/xlink" viewBox="0 0 297 297" xml:space="preserve" width="800px" height="800px">
<g id="SVGRepo_bgCarrier" stroke-width="0"/>
<g id="SVGRepo_tracerCarrier" stroke-linecap="round" stroke-linejoin="round"/>
<g id="SVGRepo_iconCarrier"> <g> <rect x="43.223" y="163" width="133" height="89"/> <path d="M43.223,267v8.18c0,11.827,10.182,21.82,22.008,21.82h90.609c11.828,0,20.383-9.993,20.383-21.82V267H43.223z"/> <rect x="43.223" y="132" width="133" height="16"/> <path d="M240.437,82.637c0,0-13.34,15.74-13.34,26.802c0,7.364,5.975,13.341,13.34,13.341c7.365,0,13.34-5.977,13.34-13.341 C253.777,98.377,240.437,82.637,240.437,82.637z"/> <path d="M233.484,56.865c0,4.143,3.357,7.5,7.5,7.5c4.143,0,7.5-3.357,7.5-7.5c0-12.057-9.76-21.865-21.756-21.865h-88.039 c-1.668-3.826-5.467-6.787-9.467-8.023V14.554C129.223,6.596,123.258,0,115.301,0h-11.332c-7.955,0-14.746,6.596-14.746,14.554 v12.423c-6,1.806-10,7.289-10,13.776V59h8v15.07L50.17,117h120.541l-38.488-43.929V59h8v-9h86.506 C230.455,50,233.484,53.08,233.484,56.865z"/> </g> </g>
</svg>